<?xml version="1.0" encoding="UTF-8"?>
<svg id="Layer_2" data-name="Layer 2" xmlns="http://www.w3.org/2000/svg" xmlns:xlink="http://www.w3.org/1999/xlink" viewBox="0 0 331.27 331.27">
  <defs>
    <clipPath id="clippath">
      <rect x="17.48" y="102.5" width="296.32" height="126.27" style="fill: none;"/>
    </clipPath>
  </defs>
  <g id="Ebene_1" data-name="Ebene 1">
    <rect width="331.27" height="331.27" style="fill: #003c5e;"/>
    <g>
      <g style="clip-path: url(#clippath);">
        <path d="M256.96,186.32c-12.15,0-22.5-7.83-22.5-21.42s10.35-21.42,22.5-21.42h1.44c12.15,0,22.41,7.83,22.41,21.42s-10.26,21.42-22.41,21.42h-1.44ZM257.68,197.3c20.43,0,35.65-12.24,35.65-32.41s-15.21-32.41-35.65-32.41-35.74,12.24-35.74,32.41,15.3,32.41,35.74,32.41M169.2,144.37h21.33c5.94,0,9.45,3.51,9.45,8.55,0,5.49-3.51,8.64-9.45,8.64h-21.33v-17.19ZM169.2,196.4v-23.85h25.02c4.23,0,5.49,1.17,5.49,5.4v18.45h12.42v-21.15c0-6.3-2.25-9.27-8.82-9.27,5.13-1.8,10.08-7.29,10.08-15.39,0-9.9-8.91-17.19-21.51-17.19h-35.11v63.01h12.42ZM102.32,169.49h37.9v-10.98h-37.9v-14.13h43.3v-10.98h-55.72v63.01h56.62v-10.98h-44.2v-15.93ZM78.82,144.37v-10.98H23.46v10.98h38.53l-39.43,41.05v10.98h57.16v-10.98h-40.33l39.43-41.05Z" style="fill: #c0d100;"/>
        <path d="M258.07,179.44c8.05,0,13.23-4.04,14.13-9.8h-5.92c-.78,3.23-3.96,4.82-7.88,4.82h-.65c-6.21,0-9.88-4.29-9.88-9.72s3.68-9.72,9.88-9.72h.65c3.92,0,7.15,1.72,7.88,4.82h5.92c-.82-5.27-5.72-9.8-14.13-9.8-9.72,0-15.89,6.33-15.89,14.7s5.96,14.7,15.89,14.7" style="fill: #fff;"/>
        <path d="M307.11,193.42c4.02-2.49,6.51-4.65,6.51-8.27,0-4.15-3.82-6.61-9.17-6.61s-9.1,3.06-9.24,7.61h4.65c.1-2.03,1.66-3.72,4.35-3.72h.47c2.66,0,4.39,1.2,4.39,2.96,0,1.66-1.26,2.82-4.29,4.72l-9.8,6.11v5.91h18.81v-4.05h-14.15l7.48-4.65Z" style="fill: #fff;"/>
        <path d="M209.04,223c4.4,0,6.62-1.7,6.62-4.26s-1.95-3.85-5-4.42l-2.14-.41c-1.68-.33-2.03-.63-2.03-1.18,0-.63.82-1.07,2.36-1.07h.38c1.87,0,2.89.82,2.99,1.87h3.71c-.22-2.91-2.36-4.81-6.9-4.81-3.46,0-6.24,1.51-6.24,4.29,0,2.58,1.87,3.68,4.89,4.29l2.28.44c1.57.3,2.01.66,2.01,1.21,0,.8-1.04,1.13-2.75,1.13h-.38c-1.57,0-2.89-.58-2.99-1.87h-3.71c.16,2.94,2.56,4.81,6.9,4.81M201.04,222.72v-3.02h-3.74c-.82,0-1.1-.27-1.1-1.1v-6.68h4.23v-2.94h-4.23v-4.45h-3.65v4.45h-3.32v2.94h3.32v7.78c0,1.92,1.02,3.02,3.52,3.02h4.97ZM177,222.72v-6.92c0-2.5,1.9-4.15,3.93-4.15h.38c1.92,0,2.78,1.37,2.78,3.38v7.69h3.65v-8.35c0-3.27-2.01-5.66-5.88-5.66-2.42,0-3.96.99-4.86,2.28v-7.5h-3.65v19.23h3.65ZM161.89,219.78c-2.06,0-3.79-1.18-3.79-4.07s1.84-4.07,3.93-4.07h.38c2.03,0,3.93,1.54,3.93,4.07s-2.03,4.07-4.07,4.07h-.38ZM161.83,228.77c5.39,0,8.16-2.8,8.16-6.35v-13.44h-3.65v1.73c-.8-.96-2.2-2.01-4.81-2.01-3.65,0-7.12,2.2-7.12,7.01s3.52,7.01,7.14,7.01c2.58,0,3.96-1.1,4.78-2.06v1.43c0,2.53-1.9,3.74-4.31,3.74h-.38c-2.03,0-3.49-.55-3.85-1.59h-3.76c.33,2.64,3.05,4.53,7.8,4.53M151.88,208.98h-3.65v13.74h3.65v-13.74ZM152.02,203.49h-3.93v3.82h3.93v-3.82ZM131.44,206.84h6.51c1.81,0,2.89,1.07,2.89,2.61,0,1.68-1.07,2.64-2.89,2.64h-6.51v-5.25ZM131.44,222.72v-7.28h7.64c1.29,0,1.68.36,1.68,1.65v5.63h3.79v-6.46c0-1.92-.69-2.83-2.69-2.83,1.57-.55,3.08-2.23,3.08-4.7,0-3.02-2.72-5.25-6.57-5.25h-10.72v19.23h3.79ZM108.88,220.06c-2.34,0-4.01-1.48-4.01-4.2s1.68-4.2,4.01-4.2h.38c2.39,0,4.23,1.48,4.23,4.2s-1.84,4.2-4.23,4.2h-.38ZM108.39,223c2.28,0,4.15-.77,5.11-2.01v1.73h3.65v-19.23h-3.65v7.31c-.88-1.15-2.58-2.09-5.17-2.09-3.93,0-7.14,2.45-7.14,7.14,0,4.45,3.19,7.14,7.2,7.14M88.06,222.72v-6.92c0-2.5,1.9-4.15,3.93-4.15h.38c1.92,0,2.78,1.37,2.78,3.38v7.69h3.65v-8.35c0-3.27-1.92-5.66-5.88-5.66-2.56,0-4.04,1.13-4.86,2.28v-2.01h-3.65v13.74h3.65ZM73.25,220.06c-1.65,0-2.31-.55-2.31-1.48,0-.88.77-1.48,2.91-1.65l3.79-.27v.85c0,1.79-2.12,2.56-4.01,2.56h-.38ZM72.97,223c2.45,0,4.18-1.21,4.81-2.45,0,.14.05,1.48.19,2.17h3.38c-.11-.96-.19-2.2-.19-3.02v-5.77c0-3.05-2.39-5.22-6.9-5.22-3.74,0-6.35,1.92-6.62,4.53h3.71c.16-1.02,1.26-1.59,2.72-1.59h.44c1.98,0,3.13.71,3.13,2.03v.33l-4.67.33c-3.21.19-5.72,1.46-5.72,4.59,0,2.36,2.03,4.07,5.72,4.07M66.21,222.72v-3.35h-12.89v-15.88h-3.79v19.23h16.68ZM28.13,220.11c-2.56,0-3.76-1.35-3.76-2.69,0-1.24.8-1.81,1.79-2.23l1.04-.41,4.81,4.23c-1.07.71-2.36,1.1-3.87,1.1M28.52,206.1c1.7,0,2.45.91,2.45,2.14,0,1.43-1.18,2.39-2.8,2.97l-.19.05c-1.02-.91-1.84-1.79-1.84-3.02s.71-2.14,2.39-2.14M36.68,218.99c1.26-1.73,2.01-3.96,2.01-6.51v-.74h-3.43v.6c0,1.65-.38,3.16-1.1,4.4l-3.71-3.27c2.58-1.1,4.15-2.94,4.15-5.39,0-3.08-2.8-4.86-6.07-4.86s-6.02,1.87-6.02,4.73c0,2.06.8,3.27,2.14,4.56-2.67,1.07-3.9,2.78-3.9,4.95,0,3.41,2.67,5.55,7.47,5.55,2.39,0,4.51-.66,6.21-1.81l1.76,1.54h4.7l-4.2-3.74Z" style="fill: #c0d100;"/>
      </g>
      <path d="M77.19,126.85v-15.88h7.75v-3.35h-19.29v3.35h7.75v15.88h3.79ZM50.37,118.63h11.57v-3.35h-11.57v-4.31h13.22v-3.35h-17.01v19.23h17.28v-3.35h-13.49v-4.86ZM37.9,121.74l-9.84-14.12h-4.84v19.23h3.79v-14.37l10,14.37h4.67v-19.23h-3.79v14.12Z" style="fill: #c0d100;"/>
    </g>
  </g>
</svg>