<?xml version="1.0" encoding="UTF-8" standalone="no"?>
<!-- Generator: Adobe Illustrator 23.0.2, SVG Export Plug-In . SVG Version: 6.00 Build 0)  -->

<svg
   version="1.1"
   x="0px"
   y="0px"
   viewBox="0 0 142 59.299998"
   xml:space="preserve"
   height="59.299999"
   width="142"
   id="svg60"
   sodipodi:docname="robert bosch stiftung.svg"
   inkscape:version="1.1.2 (0a00cf5339, 2022-02-04, custom)"
   xmlns:inkscape="http://www.inkscape.org/namespaces/inkscape"
   xmlns:sodipodi="http://sodipodi.sourceforge.net/DTD/sodipodi-0.dtd"
   xmlns="http://www.w3.org/2000/svg"
   xmlns:svg="http://www.w3.org/2000/svg"><defs
   id="defs64" /><sodipodi:namedview
   id="namedview62"
   pagecolor="#ffffff"
   bordercolor="#999999"
   borderopacity="1"
   inkscape:pageshadow="0"
   inkscape:pageopacity="0"
   inkscape:pagecheckerboard="0"
   showgrid="false"
   fit-margin-top="1"
   fit-margin-left="1"
   fit-margin-right="1"
   fit-margin-bottom="1"
   inkscape:zoom="4"
   inkscape:cx="74.625"
   inkscape:cy="40.125"
   inkscape:window-width="1920"
   inkscape:window-height="1017"
   inkscape:window-x="-8"
   inkscape:window-y="-8"
   inkscape:window-maximized="1"
   inkscape:current-layer="svg60" />
<style
   type="text/css"
   id="style2">
	.st0{fill:none;}
	.st1{fill:#707B84;}
	.st2{fill:#E10A14;}
</style>
<g
   id="BoundingBox"
   transform="translate(1,1)">
	<rect
   x="-71.699997"
   y="-29.4"
   class="st0"
   width="283.5"
   height="116.2"
   id="rect4" />
</g>
<g
   id="Robert_Bosch_Stiftung_Logo"
   transform="translate(1,1)">
	<g
   id="g57">
		<polygon
   class="st1"
   points="12.3,11.7 15.8,11.7 15.8,18.6 8.9,18.6 8.9,11.7 "
   id="polygon7" />
		<polygon
   class="st1"
   points="3.4,11.7 0,11.7 0,27.4 6.9,27.4 6.9,11.7 "
   id="polygon9" />
		<polygon
   class="st2"
   points="21.2,0 17.8,0 17.8,27.4 24.6,27.4 24.6,0 "
   id="polygon11" />
		<path
   class="st2"
   d="m 26.6,11.7 v 15.8 c 4.4,0 7.9,-3.5 7.9,-7.9 0,-4.4 -3.5,-7.9 -7.9,-7.9 z"
   id="path13" />
		<g
   id="g37">
			<path
   class="st2"
   d="m 46.3,27.4 c 2.8,0 4.4,0.9 4.4,2.6 0,1.4 -1,2.3 -3.1,2.6 1,0.2 1.5,0.6 2.1,1.6 l 1.3,2.1 c 0.4,0.6 0.6,0.7 1.3,0.7 v 0.6 h -3.4 l -2.3,-4 C 46.3,33 45.9,32.8 45.4,32.8 h -0.2 v 3.6 c 0,0.4 0.2,0.5 1.4,0.6 v 0.6 H 41.5 V 37 c 1,-0.1 1.2,-0.2 1.2,-0.6 v -7.9 c 0,-0.4 -0.2,-0.5 -1.2,-0.6 v -0.6 h 4.8 z m -1.1,4.9 H 46 c 1.4,0 2.1,-0.7 2.1,-2.1 0,-1.4 -0.7,-2.1 -1.9,-2.1 h -0.9 v 4.2 z"
   id="path15" />
			<path
   class="st2"
   d="m 59,30.7 c 0.9,0.7 1.4,1.8 1.4,3.1 0,1.4 -0.6,2.5 -1.6,3.3 -0.7,0.5 -1.6,0.8 -2.5,0.8 -0.9,0 -1.9,-0.4 -2.6,-1 -0.9,-0.7 -1.4,-1.8 -1.4,-3.1 0,-1.4 0.6,-2.6 1.6,-3.3 0.7,-0.5 1.6,-0.8 2.4,-0.8 1,0.1 2,0.4 2.7,1 z m -4.3,3.2 c 0,2.2 0.5,3.4 1.6,3.4 1.1,0 1.6,-1.1 1.6,-3.4 0,-2.3 -0.5,-3.4 -1.6,-3.4 -1,-0.1 -1.6,1 -1.6,3.4 z"
   id="path17" />
			<path
   class="st2"
   d="m 64.2,31.2 c 0.7,-1 1.6,-1.4 2.6,-1.4 1.9,0 3.1,1.5 3.1,4 0,1.5 -0.4,2.5 -1.3,3.3 -0.7,0.6 -1.6,0.9 -2.5,0.9 -1,0 -1.9,-0.4 -2.7,-1.2 l -1,1 h -0.5 v -9.6 c 0,-0.5 -0.3,-0.7 -1.2,-0.7 V 27 l 2.9,-0.8 h 0.6 z m 0,3.5 c 0,1.6 0.6,2.5 1.7,2.5 1.1,0 1.6,-1 1.6,-3.2 0,-2 -0.5,-2.9 -1.6,-2.9 -1,0 -1.6,0.8 -1.6,1.9 v 1.7 z"
   id="path19" />
			<path
   class="st2"
   d="m 78.5,36 c -0.7,1.2 -1.8,1.9 -3.3,1.9 -2.4,0 -4.1,-1.6 -4.1,-4.1 0,-2.4 1.6,-4.1 4,-4.1 1.1,0 2,0.4 2.6,1.1 0.6,0.7 0.8,1.4 0.9,2.8 h -5.1 v 0.1 c 0,2.2 0.7,3.2 2.2,3.2 1,0 1.6,-0.3 2.3,-1.2 z m -2.4,-3.4 c 0,-1.6 -0.4,-2.2 -1.2,-2.2 -0.9,0 -1.3,0.7 -1.4,2.7 h 2.6 z"
   id="path21" />
			<path
   class="st2"
   d="m 82.4,29.8 0.2,1.6 c 0.7,-1.2 1.5,-1.7 2.4,-1.7 0.9,0 1.4,0.5 1.4,1.2 0,0.8 -0.5,1.3 -1.3,1.3 h -0.6 v -1 c -0.1,-0.1 -0.2,-0.1 -0.4,-0.1 -0.8,0 -1.3,0.8 -1.3,2 v 3.6 c 0,0.3 0.1,0.4 0.8,0.5 v 0.5 h -4.1 v -0.5 c 0.8,-0.1 0.9,-0.2 0.9,-0.5 v -4.9 c 0,-0.5 -0.3,-0.7 -1.1,-0.7 v -0.5 l 2.6,-0.7 h 0.5 z"
   id="path23" />
			<path
   class="st2"
   d="m 92.7,36 c -0.4,1.3 -1.2,1.9 -2.4,1.9 -1.4,0 -2.3,-0.8 -2.3,-2.2 v -5 H 87 V 30 h 0.3 c 1.3,-0.2 2.1,-1.1 2.4,-2.5 h 0.6 V 30 h 2 v 0.8 h -2 v 5.4 c 0,0.6 0.2,0.9 0.7,0.9 0.5,0 0.8,-0.3 1.2,-1.2 z"
   id="path25" />
			<path
   class="st2"
   d="m 102.3,32.2 c 1.1,0.1 1.8,0.2 2.4,0.6 0.8,0.5 1.3,1.2 1.3,2.1 0,1.8 -1.9,2.9 -5.3,2.9 h -4.2 v -0.6 c 1,-0.1 1.2,-0.2 1.2,-0.6 v -7.9 c 0,-0.4 -0.2,-0.5 -1.2,-0.6 v -0.6 h 4.4 c 3,0 4.3,0.7 4.3,2.4 0,1.1 -0.9,1.9 -2.9,2.3 z m -1.5,-0.3 c 1.2,0 1.8,-0.6 1.8,-1.9 0,-1.3 -0.6,-2 -1.9,-2 h -0.5 v 3.9 z m -0.5,4.8 c 0,0.4 0.2,0.5 0.9,0.5 1.3,0 2.1,-0.8 2.1,-2.3 0,-1.4 -0.9,-2.3 -2.3,-2.3 h -0.7 z"
   id="path27" />
			<path
   class="st2"
   d="m 113.8,30.7 c 0.9,0.7 1.4,1.8 1.4,3.1 0,1.4 -0.6,2.5 -1.6,3.3 -0.7,0.5 -1.6,0.8 -2.5,0.8 -0.9,0 -1.9,-0.4 -2.6,-1 -0.9,-0.7 -1.4,-1.8 -1.4,-3.1 0,-1.4 0.6,-2.6 1.6,-3.3 0.7,-0.5 1.6,-0.8 2.4,-0.8 0.9,0.1 1.9,0.4 2.7,1 z m -4.4,3.2 c 0,2.2 0.5,3.4 1.6,3.4 1.1,0 1.6,-1.1 1.6,-3.4 0,-2.3 -0.5,-3.4 -1.6,-3.4 -1,-0.1 -1.6,1 -1.6,3.4 z"
   id="path29" />
			<path
   class="st2"
   d="m 120.9,31.8 c -0.3,-1 -0.8,-1.4 -1.7,-1.4 -0.8,0 -1.3,0.4 -1.3,1 0,0.6 0.3,0.9 1.6,1.3 2,0.6 2.7,1.3 2.7,2.6 0,1.6 -1.2,2.5 -3.3,2.5 -0.9,0 -1.7,-0.1 -2.6,-0.4 v -2 h 0.8 c 0.7,1.5 1,1.8 2,1.8 0.9,0 1.4,-0.4 1.4,-1.1 0,-0.5 -0.2,-0.8 -0.7,-1.1 -0.3,-0.2 -0.4,-0.2 -1.3,-0.5 -1.5,-0.5 -2.2,-1.3 -2.2,-2.4 0,-1.5 1.2,-2.5 3.1,-2.5 0.8,0 1.5,0.1 2.3,0.3 v 1.8 h -0.8 z"
   id="path31" />
			<path
   class="st2"
   d="m 130.1,35.8 c -0.5,1.4 -1.6,2.2 -3.2,2.2 -2.3,0 -3.8,-1.6 -3.8,-4.1 0,-2.5 1.6,-4.1 4.1,-4.1 1.8,0 2.9,0.7 2.9,1.8 0,0.6 -0.4,1 -1.1,1 h -1 v -1.9 c -0.3,-0.2 -0.6,-0.3 -0.9,-0.3 -1.1,0 -1.6,1 -1.6,3.4 0,2.3 0.5,3.2 1.9,3.2 1,0 1.6,-0.4 2.2,-1.5 z"
   id="path33" />
			<path
   class="st2"
   d="m 134.1,31.1 c 0.8,-0.9 1.6,-1.4 2.7,-1.4 1.4,0 2.3,0.9 2.3,2.2 v 4.7 c 0,0.3 0.1,0.4 0.9,0.5 v 0.5 h -4.1 v -0.5 c 0.7,-0.1 0.8,-0.2 0.8,-0.5 v -4.5 c 0,-0.8 -0.4,-1.2 -1.1,-1.2 -0.9,0 -1.5,0.6 -1.5,1.5 v 4.2 c 0,0.3 0.1,0.4 0.8,0.5 v 0.5 h -4.1 v -0.5 c 0.8,-0.1 0.9,-0.2 0.9,-0.5 v -8.5 c 0,-0.5 -0.3,-0.7 -1.2,-0.7 v -0.5 l 2.9,-0.8 h 0.6 v 5 z"
   id="path35" />
		</g>
		<g
   id="g55">
			<path
   class="st1"
   d="m 47.5,46.1 c -0.6,-1.5 -1.1,-1.9 -2.3,-1.9 -1.2,0 -1.9,0.5 -1.9,1.5 0,0.9 0.4,1.3 2.1,1.9 1.3,0.4 1.8,0.7 2.2,1 0.8,0.6 1.2,1.4 1.2,2.4 0,2 -1.5,3.2 -4,3.2 -1.1,0 -2,-0.1 -3.4,-0.6 V 51 h 0.8 c 0.4,1 0.6,1.4 0.9,1.8 0.4,0.5 1,0.7 1.8,0.7 1.3,0 2.1,-0.6 2.1,-1.6 0,-0.7 -0.3,-1.1 -0.9,-1.5 -0.3,-0.2 -0.6,-0.3 -1.8,-0.7 -2,-0.7 -2.8,-1.6 -2.8,-3.1 0,-1.9 1.5,-3.1 3.9,-3.1 1.1,0 1.9,0.1 2.8,0.4 v 2.2 z"
   id="path39" />
			<path
   class="st1"
   d="m 55,52.3 c -0.4,1.3 -1.2,1.9 -2.4,1.9 -1.4,0 -2.3,-0.8 -2.3,-2.2 v -5 h -1 v -0.7 h 0.3 c 1.3,-0.2 2.1,-1.1 2.4,-2.5 h 0.6 v 2.5 h 2 V 47 h -2 v 5.4 c 0,0.6 0.2,0.9 0.7,0.9 0.5,0 0.8,-0.3 1.2,-1.2 z"
   id="path41" />
			<path
   class="st1"
   d="M 59.1,46.1 V 53 c 0,0.3 0.1,0.4 0.9,0.5 V 54 h -4.2 v -0.5 c 0.8,-0.1 0.9,-0.2 0.9,-0.5 v -4.9 c 0,-0.5 -0.3,-0.7 -1.1,-0.7 v -0.5 l 2.9,-0.7 h 0.6 z m 0,-2.1 c 0,0.7 -0.5,1.3 -1.3,1.3 -0.7,0 -1.2,-0.5 -1.2,-1.3 0,-0.7 0.5,-1.3 1.3,-1.3 0.7,0 1.2,0.6 1.2,1.3 z"
   id="path43" />
			<path
   class="st1"
   d="m 60.6,46.2 h 1.2 v -1 c 0,-1.9 1.2,-2.9 3.3,-2.9 1.4,0 2.3,0.5 2.3,1.3 0,0.5 -0.4,0.9 -0.9,0.9 h -1 V 43 c -0.2,-0.1 -0.3,-0.2 -0.5,-0.2 -0.6,0 -0.8,0.4 -0.8,1.8 v 1.5 H 66 V 47 h -1.8 v 6 c 0,0.3 0.2,0.4 0.8,0.5 h 0.3 V 54 H 60.8 V 53.5 H 61 c 0.6,-0.1 0.7,-0.2 0.7,-0.5 v -6 h -1.2 v -0.8 z"
   id="path45" />
			<path
   class="st1"
   d="m 72.3,52.3 c -0.4,1.3 -1.2,1.9 -2.4,1.9 -1.4,0 -2.3,-0.8 -2.3,-2.2 v -5 h -1 v -0.7 h 0.3 c 1.3,-0.2 2.1,-1.1 2.4,-2.5 H 70 v 2.5 h 2 V 47 h -2 v 5.4 c 0,0.6 0.2,0.9 0.7,0.9 0.5,0 0.8,-0.3 1.2,-1.2 z"
   id="path47" />
			<path
   class="st1"
   d="m 78.7,52.7 c -0.8,1.1 -1.6,1.6 -2.7,1.6 -1.4,0 -2.3,-0.9 -2.3,-2.2 V 47.4 C 73.7,47.1 73.6,47 73,46.9 h -0.2 v -0.5 h 3.3 v 5.5 c 0,0.8 0.4,1.2 1.1,1.2 0.8,0 1.4,-0.6 1.4,-1.5 v -4.2 c 0,-0.3 -0.1,-0.4 -0.8,-0.5 V 46.4 H 81 v 5.9 c 0,0.5 0.3,0.7 1.1,0.7 v 0.5 L 79.5,54 h -0.6 z"
   id="path49" />
			<path
   class="st1"
   d="m 85.7,46.1 0.2,1.5 c 0.8,-1 1.7,-1.6 2.8,-1.6 1.4,0 2.3,0.9 2.3,2.2 V 53 c 0,0.3 0.1,0.4 0.9,0.5 V 54 h -4.1 v -0.5 c 0.7,-0.1 0.8,-0.2 0.8,-0.5 v -4.5 c 0,-0.8 -0.4,-1.2 -1.1,-1.2 -0.9,0 -1.5,0.6 -1.5,1.5 V 53 c 0,0.3 0.1,0.4 0.8,0.5 V 54 h -4.1 v -0.5 c 0.8,-0.1 0.9,-0.2 0.9,-0.5 v -4.9 c 0,-0.5 -0.3,-0.7 -1.1,-0.7 v -0.5 l 2.6,-0.7 h 0.6 z"
   id="path51" />
			<path
   class="st1"
   d="m 99.3,47.6 c 0.2,0.4 0.2,0.7 0.2,1.1 0,1.6 -1.3,2.6 -3.4,2.6 -0.3,0 -0.6,0 -0.9,-0.1 -0.1,0 -0.2,0 -0.2,0 -0.4,0 -0.8,0.3 -0.8,0.6 0,0.3 0.3,0.4 1.2,0.4 h 2.2 c 1.8,0 2.8,0.8 2.8,2.2 0,0.8 -0.4,1.5 -1.2,2.1 -0.8,0.5 -1.8,0.8 -3.1,0.8 -2.4,0 -3.9,-0.7 -3.9,-1.8 0,-0.7 0.5,-1.2 1.7,-1.5 -0.7,-0.3 -1.1,-0.8 -1.1,-1.4 0,-0.8 0.5,-1.3 1.6,-1.7 -1,-0.5 -1.5,-1.3 -1.5,-2.2 0,-1.6 1.4,-2.7 3.4,-2.7 1,0 1.8,0.3 2.5,0.8 l 1.2,-0.6 h 0.5 v 1.4 z m -4.2,6.7 c -0.6,0 -1,0.4 -1,1.1 0,1 0.8,1.5 2.3,1.5 1.5,0 2.4,-0.6 2.4,-1.5 0,-0.7 -0.4,-1 -1.6,-1 h -2.1 z m 0,-5.6 c 0,1.5 0.3,2.1 1.1,2.1 0.9,0 1.2,-0.6 1.2,-2.1 0,-1.5 -0.3,-2.1 -1.1,-2.1 -0.9,0 -1.2,0.5 -1.2,2.1 z"
   id="path53" />
		</g>
	</g>
</g>
</svg>
