<?xml version="1.0" encoding="UTF-8"?>
<svg id="Layer_2" data-name="Layer 2" xmlns="http://www.w3.org/2000/svg" viewBox="0 0 178.05 126.78">
  <g id="Ebene_1" data-name="Ebene 1">
    <g>
      <polygon points="23.17 126.78 0 126.78 0 86.57 23.17 74.69 23.17 126.78" style="fill: #7b9dcf;"/>
      <polygon points="42.78 126.78 19.61 126.78 19.61 68.36 42.78 74.69 42.78 126.78" style="fill: #82c9bb;"/>
      <polygon points="16.57 78.07 16.57 123.16 23.17 123.16 23.17 74.69 16.57 78.07" style="fill: #003c5e;"/>
      <polygon points="42.78 92.12 42.78 126.78 49.38 126.78 49.38 88.74 42.78 92.12" style="fill: #003c5e;"/>
      <g>
        <rect x="3.55" y="93.38" width="1.8" height="2.8" style="fill: #f1ed7f;"/>
        <rect x="7.37" y="93.38" width="1.8" height="2.8" style="fill: #f1ed7f;"/>
        <rect x="11.2" y="93.38" width="1.8" height="2.8" style="fill: #f1ed7f;"/>
      </g>
      <g>
        <rect x="3.55" y="98.84" width="1.8" height="2.8" style="fill: #f1ed7f;"/>
        <rect x="7.37" y="98.84" width="1.8" height="2.8" style="fill: #f1ed7f;"/>
        <rect x="11.2" y="98.84" width="1.8" height="2.8" style="fill: #f1ed7f;"/>
      </g>
      <g>
        <rect x="3.55" y="104.29" width="1.8" height="2.8" style="fill: #f1ed7f;"/>
        <rect x="7.37" y="104.29" width="1.8" height="2.8" style="fill: #f1ed7f;"/>
        <rect x="11.2" y="104.29" width="1.8" height="2.8" style="fill: #f1ed7f;"/>
      </g>
      <g>
        <polygon points="27.82 126.78 13.29 126.78 15.98 109.33 25.61 109.33 27.82 126.78" style="fill: #12120d;"/>
        <rect x="17.39" y="100.24" width="6.82" height="8.08" rx="3.41" ry="3.41" style="fill: #fec800;"/>
        <polygon points="22.95 120.19 22.26 109.33 19.34 109.33 18.65 120.19 20.8 123.91 22.95 120.19 22.95 120.19" style="fill: #fff;"/>
      </g>
      <g>
        <polygon points="42.78 126.78 28.25 126.78 30.94 109.33 40.57 109.33 42.78 126.78" style="fill: #12120d;"/>
        <rect x="32.35" y="100.24" width="6.82" height="8.08" rx="3.41" ry="3.41" style="fill: #a58c3b;"/>
        <polygon points="37.91 120.19 37.22 109.33 34.3 109.33 33.61 120.19 35.76 123.91 37.91 120.19 37.91 120.19" style="fill: #fff;"/>
      </g>
    </g>
  </g>
  <g id="Ebene_4" data-name="Ebene 4">
    <g>
      <g>
        <polygon points="85.92 126.78 49.2 126.78 49.2 18.83 85.92 0 85.92 126.78" style="fill: #7b9dcf;"/>
        <polygon points="75.46 5.36 75.46 126.78 85.92 126.78 85.92 0 75.46 5.36" style="fill: #003c5e;"/>
        <g>
          <g>
            <rect x="54.82" y="29.63" width="2.85" height="4.44" style="fill: #f1ed7f;"/>
            <rect x="60.89" y="29.63" width="2.85" height="4.44" style="fill: #f1ed7f;"/>
            <rect x="66.95" y="29.63" width="2.85" height="4.44" style="fill: #f1ed7f;"/>
          </g>
          <g>
            <rect x="54.82" y="38.27" width="2.85" height="4.44" style="fill: #f1ed7f;"/>
            <rect x="60.89" y="38.27" width="2.85" height="4.44" style="fill: #f1ed7f;"/>
            <rect x="66.95" y="38.27" width="2.85" height="4.44" style="fill: #f1ed7f;"/>
          </g>
          <g>
            <rect x="54.82" y="46.91" width="2.85" height="4.44" style="fill: #f1ed7f;"/>
            <rect x="60.89" y="46.91" width="2.85" height="4.44" style="fill: #f1ed7f;"/>
            <rect x="66.95" y="46.91" width="2.85" height="4.44" style="fill: #f1ed7f;"/>
          </g>
          <g>
            <rect x="54.82" y="55.55" width="2.85" height="4.44" style="fill: #f1ed7f;"/>
            <rect x="60.89" y="55.55" width="2.85" height="4.44" style="fill: #f1ed7f;"/>
            <rect x="66.95" y="55.55" width="2.85" height="4.44" style="fill: #f1ed7f;"/>
          </g>
          <g>
            <rect x="54.82" y="64.19" width="2.85" height="4.44" style="fill: #f1ed7f;"/>
            <rect x="60.89" y="64.19" width="2.85" height="4.44" style="fill: #f1ed7f;"/>
            <rect x="66.95" y="64.19" width="2.85" height="4.44" style="fill: #f1ed7f;"/>
          </g>
          <g>
            <rect x="54.82" y="72.83" width="2.85" height="4.44" style="fill: #f1ed7f;"/>
            <rect x="60.89" y="72.83" width="2.85" height="4.44" style="fill: #f1ed7f;"/>
            <rect x="66.95" y="72.83" width="2.85" height="4.44" style="fill: #f1ed7f;"/>
          </g>
          <g>
            <rect x="54.82" y="81.47" width="2.85" height="4.44" style="fill: #f1ed7f;"/>
            <rect x="60.89" y="81.47" width="2.85" height="4.44" style="fill: #f1ed7f;"/>
            <rect x="66.95" y="81.47" width="2.85" height="4.44" style="fill: #f1ed7f;"/>
          </g>
        </g>
      </g>
      <path d="M153.17,87.04c0-4.72-2.51-8.85-6.25-11.16,2.33-1.96,3.82-4.89,3.82-8.18,0-4.16-2.39-7.76-5.87-9.52.9-1.08,1.45-2.48,1.45-4,0-3.45-2.8-6.25-6.25-6.25s-6.25,2.8-6.25,6.25c0,1.52.54,2.91,1.45,4-3.48,1.76-5.87,5.36-5.87,9.52,0,3.28,1.48,6.22,3.82,8.18-3.75,2.31-6.25,6.44-6.25,11.16,0,6.79,5.16,12.38,11.78,13.05v12.82h2.67v-12.82c6.61-.67,11.78-6.26,11.78-13.05Z" style="fill: #00837b;"/>
      <g>
        <g>
          <polygon points="119.9 106.07 85.98 106.07 97.79 85.7 131.71 85.7 119.9 106.07" style="fill: #ee684e;"/>
          <polygon points="131.66 85.68 119.91 106.03 143.41 106.03 131.66 85.68" style="fill: #f2896d;"/>
          <rect x="85.98" y="106.03" width="33.92" height="20.69" style="fill: #f1ed7f;"/>
          <rect x="119.91" y="106.03" width="23.47" height="20.69" style="fill: #cfc097;"/>
        </g>
        <rect x="104.93" y="80.34" width="3.68" height="9.84" style="fill: #ee684e;"/>
      </g>
      <g>
        <polygon points="159.85 110.74 133.59 110.74 142.74 94.96 169 94.96 159.85 110.74" style="fill: #ee684e;"/>
        <polygon points="168.96 94.95 159.86 110.7 178.05 110.7 168.96 94.95" style="fill: #f2896d;"/>
        <rect x="133.59" y="110.7" width="26.26" height="16.02" style="fill: #f1ed7f;"/>
        <rect x="159.86" y="110.7" width="18.17" height="16.02" style="fill: #cfc097;"/>
        <rect x="148.26" y="90.81" width="2.85" height="7.62" style="fill: #ee684e;"/>
      </g>
    </g>
  </g>
</svg>