<?xml version="1.0" encoding="UTF-8"?>
<svg id="Layer_2" data-name="Layer 2" xmlns="http://www.w3.org/2000/svg" viewBox="0 0 410 140.29">
  <g id="Ebene_1" data-name="Ebene 1">
    <path d="M.65,44.82c-2.82-13.47,4-26.66,12.17-34.24C27.53-3.07,48.09.14,52.18.78c22.9,3.58,26.32,19.48,43.68,18.66,15.95-.75,17.96-14.4,34.77-17.25,21.44-3.64,50.23,13.11,51.37,31.55,1.21,19.61-28.95,39.58-53.23,38.53-18.25-.79-20.8-12.92-39.9-13.27-23.19-.42-28.33,17.3-49.53,15.94-15.83-1.01-34.97-12.29-38.7-30.12Z" style="fill: #dde4f3;"/>
    <path d="M107.11,107.82c-6.71-25.13,22.28-50.89,39.61-61.49,37.09-22.71,81.73-13.38,95.89-10.42,42.91,8.96,72.45,32.29,82.34,21.89,4.91-5.17-.94-12.45,4.17-19.8,11.19-16.12,62.76-14.94,77.13,12.51,10.85,20.72-4.71,46.46-9.38,54.2-6.25,10.34-14.88,24.63-29.18,27.1-23.8,4.1-34.37-29.54-60.45-28.14-24.53,1.32-33.43,32.05-52.11,28.14-14.77-3.09-13.52-23.22-28.14-27.1-20.85-5.53-34.05,32.62-66.7,35.44-21.96,1.89-47.89-12.6-53.15-32.31Z" style="fill: #d1daef;"/>
  </g>
</svg>