<?xml version="1.0" encoding="UTF-8"?>
<svg id="Layer_1" data-name="Layer 1" xmlns="http://www.w3.org/2000/svg" xmlns:xlink="http://www.w3.org/1999/xlink" viewBox="0 0 466.51 263.78">
  <defs>
    <style>
      .cls-1, .cls-2, .cls-3, .cls-4, .cls-5, .cls-6, .cls-7, .cls-8, .cls-9, .cls-10, .cls-11, .cls-12 {
        fill: none;
      }

      .cls-13 {
        fill: #906a59;
      }

      .cls-2 {
        stroke: #44a13f;
      }

      .cls-2, .cls-3, .cls-4, .cls-5, .cls-6, .cls-7, .cls-8, .cls-9, .cls-10, .cls-11, .cls-12 {
        stroke-miterlimit: 10;
      }

      .cls-14 {
        fill: #ffcb05;
      }

      .cls-15 {
        fill: #f37259;
      }

      .cls-16 {
        fill: #004263;
      }

      .cls-17 {
        fill: #231f20;
      }

      .cls-3, .cls-11 {
        stroke: #fff;
      }

      .cls-4, .cls-8 {
        stroke: #231f20;
      }

      .cls-18 {
        fill: #44a13f;
      }

      .cls-19 {
        fill: #739dd2;
      }

      .cls-20 {
        fill: #cabb96;
      }

      .cls-5 {
        stroke: #906a59;
      }

      .cls-6, .cls-9, .cls-10 {
        stroke: #efed86;
      }

      .cls-7 {
        stroke: #739dd2;
        stroke-width: 6px;
      }

      .cls-8 {
        stroke-width: .25px;
      }

      .cls-21 {
        fill: #7cccbf;
      }

      .cls-22 {
        clip-path: url(#clippath-17);
      }

      .cls-23 {
        clip-path: url(#clippath-19);
      }

      .cls-24 {
        clip-path: url(#clippath-11);
      }

      .cls-25 {
        clip-path: url(#clippath-16);
      }

      .cls-26 {
        clip-path: url(#clippath-18);
      }

      .cls-27 {
        clip-path: url(#clippath-10);
      }

      .cls-28 {
        clip-path: url(#clippath-15);
      }

      .cls-29 {
        clip-path: url(#clippath-13);
      }

      .cls-30 {
        clip-path: url(#clippath-14);
      }

      .cls-31 {
        clip-path: url(#clippath-12);
      }

      .cls-32 {
        clip-path: url(#clippath-20);
      }

      .cls-33 {
        clip-path: url(#clippath-21);
      }

      .cls-34 {
        fill: #0f8a81;
      }

      .cls-35 {
        clip-path: url(#clippath-1);
      }

      .cls-36 {
        clip-path: url(#clippath-3);
      }

      .cls-37 {
        clip-path: url(#clippath-4);
      }

      .cls-38 {
        clip-path: url(#clippath-2);
      }

      .cls-39 {
        clip-path: url(#clippath-7);
      }

      .cls-40 {
        clip-path: url(#clippath-6);
      }

      .cls-41 {
        clip-path: url(#clippath-9);
      }

      .cls-42 {
        clip-path: url(#clippath-8);
      }

      .cls-43 {
        clip-path: url(#clippath-5);
      }

      .cls-9, .cls-11, .cls-12 {
        stroke-width: .5px;
      }

      .cls-10 {
        stroke-width: .35px;
      }

      .cls-44 {
        fill: #fff;
      }

      .cls-12 {
        stroke: #004263;
      }

      .cls-45 {
        fill: #82ca9c;
      }

      .cls-46 {
        fill: #b0d1a4;
      }

      .cls-47 {
        fill: #efed86;
      }

      .cls-48 {
        fill: #a28b49;
      }

      .cls-49 {
        clip-path: url(#clippath);
      }

      .cls-50 {
        fill: #f79980;
      }

      .cls-51 {
        fill: #b4c7e7;
      }

      .animate-turbine {
        animation: rotate 3s linear infinite;
      }

      .animate-smoke {
        animation: smoke 2s ease-in-out infinite;
        animation-fill-mode: both;
      }
    </style>
    <clipPath id="clippath">
      <rect class="cls-1" width="466.51" height="263.78"/>
    </clipPath>
    <clipPath id="clippath-1">
      <rect class="cls-1" width="466.51" height="263.78"/>
    </clipPath>
    <clipPath id="clippath-2">
      <rect class="cls-1" width="466.51" height="263.78"/>
    </clipPath>
    <clipPath id="clippath-3">
      <rect class="cls-1" width="466.51" height="263.78"/>
    </clipPath>
    <clipPath id="clippath-4">
      <rect class="cls-1" width="466.51" height="263.78"/>
    </clipPath>
    <clipPath id="clippath-5">
      <rect class="cls-1" width="466.51" height="263.78"/>
    </clipPath>
    <clipPath id="clippath-6">
      <path class="cls-1" d="M41.44,223.97c36.55,21.07,94.39,35.72,160.98,38.91h54.74c66.59-3.18,124.42-17.84,160.98-38.91H41.44Z"/>
    </clipPath>
    <clipPath id="clippath-7">
      <rect class="cls-1" width="466.51" height="263.78"/>
    </clipPath>
    <clipPath id="clippath-8">
      <rect class="cls-1" width="466.51" height="263.78"/>
    </clipPath>
    <clipPath id="clippath-9">
      <rect class="cls-1" width="466.51" height="263.78"/>
    </clipPath>
    <clipPath id="clippath-10">
      <rect class="cls-1" width="466.51" height="263.78"/>
    </clipPath>
    <clipPath id="clippath-11">
      <rect class="cls-1" width="466.51" height="263.78"/>
    </clipPath>
    <clipPath id="clippath-12">
      <rect class="cls-1" width="466.51" height="263.78"/>
    </clipPath>
    <clipPath id="clippath-13">
      <rect class="cls-1" width="466.51" height="263.78"/>
    </clipPath>
    <clipPath id="clippath-14">
      <rect class="cls-1" width="466.51" height="263.78"/>
    </clipPath>
    <clipPath id="clippath-15">
      <rect class="cls-1" width="466.51" height="263.78"/>
    </clipPath>
    <clipPath id="clippath-16">
      <rect class="cls-1" width="466.51" height="263.78"/>
    </clipPath>
    <clipPath id="clippath-17">
      <rect class="cls-1" width="466.51" height="263.78"/>
    </clipPath>
    <clipPath id="clippath-18">
      <rect class="cls-1" width="466.51" height="263.78"/>
    </clipPath>
    <clipPath id="clippath-19">
      <rect class="cls-1" width="466.51" height="263.78"/>
    </clipPath>
    <clipPath id="clippath-20">
      <rect class="cls-1" width="466.51" height="263.78"/>
    </clipPath>
    <clipPath id="clippath-21">
      <rect class="cls-1" width="466.51" height="263.78"/>
    </clipPath>
  </defs>
  <g class="cls-49">
    <path class="cls-18" d="M42.69,82.2c49.93-28.53,118.72,31.96,177.33-12.44,44-33.33,57.33,5.33,88.89,5.33s73.78-13.11,110.67,13.11c21.45,15.24,30.22,63.78,30.22,63.78L11.58,135.97s6.22-39.56,31.11-53.78"/>
    <path class="cls-12" d="M42.69,82.2c49.93-28.53,118.72,31.96,177.33-12.44,44-33.33,57.33,5.33,88.89,5.33s73.78-13.11,110.67,13.11c21.45,15.24,30.22,63.78,30.22,63.78L11.58,135.97s6.22-39.56,31.11-53.78Z"/>
  </g>
  <polygon class="cls-48" points="276.93 117.09 264.72 117.09 266.64 54.03 275.02 54.03 276.93 117.09"/>
  <g class="cls-35">
    <path class="cls-14" d="M.26,170.86c0-35.54,17.66-89,92.66-89s85,40,127,40,43.67-14,109-14,130.4,28.01,130.4,63.34c-1.07.66-157.74,38-157.74,38L.26,170.86Z"/>
    <path class="cls-12" d="M.26,170.86c0-35.54,17.66-89,92.66-89s85,40,127,40,43.67-14,109-14,130.4,28.01,130.4,63.34c-1.07.66-157.74,38-157.74,38L.26,170.86Z"/>
    <path class="cls-15" d="M303.77,35.11c0,7.15-5.8,12.95-12.95,12.95s-12.95-5.8-12.95-12.95,5.8-12.95,12.95-12.95,12.95,5.8,12.95,12.95"/>
    <path class="cls-15" d="M315.97,25.02c0,7.08-5.74,12.82-12.82,12.82s-12.82-5.74-12.82-12.82,5.74-12.82,12.82-12.82,12.82,5.74,12.82,12.82"/>
    <path class="cls-15" d="M310.25,15.93c0,7.15-5.8,12.95-12.95,12.95s-12.95-5.8-12.95-12.95,5.8-12.95,12.95-12.95,12.95,5.8,12.95,12.95"/>
    <path class="cls-15" d="M324.44,18.92c0,5.36-4.35,9.71-9.71,9.71s-9.71-4.35-9.71-9.71,4.35-9.71,9.71-9.71,9.71,4.35,9.71,9.71"/>
    <path class="cls-15" d="M320.7,8.71c0,4.81-3.9,8.71-8.71,8.71s-8.71-3.9-8.71-8.71S307.18,0,311.99,0s8.71,3.9,8.71,8.71"/>
    <path class="cls-15" d="M328.67,10.08c0,3.64-2.95,6.6-6.6,6.6s-6.6-2.95-6.6-6.6,2.95-6.6,6.6-6.6,6.6,2.95,6.6,6.6"/>
    <path class="cls-15" d="M288.59,40.33c0,5.5-4.46,9.96-9.96,9.96s-9.96-4.46-9.96-9.96,4.46-9.96,9.96-9.96,9.96,4.46,9.96,9.96"/>
    <path class="cls-15" d="M276.76,41.33c0,3.51-2.84,6.35-6.35,6.35s-6.35-2.84-6.35-6.35,2.84-6.35,6.35-6.35,6.35,2.84,6.35,6.35"/>
  </g>
  <polygon class="cls-19" points="419.14 171.44 407.31 171.44 410.94 75.12 415.5 75.12 419.14 171.44"/>
  <g class="cls-38">
    <path class="cls-51" d="M413.55,71.81l4.41,7.97c1.71,3.1,1.63,6.88-.23,9.9l-20.52,33.47c-.39.63-1.17.91-1.87.66-.82-.29-1.24-1.19-.95-2.01l17.94-50.43,1.22.43Z"/>
    <path class="cls-51" d="M414.44,72.75l-9.09.44c-3.54.17-6.89-1.57-8.79-4.57l-20.96-33.17c-.4-.63-.3-1.45.23-1.96.62-.6,1.62-.59,2.22.03l37.31,38.33-.93.9Z"/>
    <path class="cls-51" d="M414.14,71.96l3.63-8.35c1.41-3.25,4.46-5.49,7.98-5.86l39.02-4.13c.74-.08,1.43.37,1.66,1.08.27.82-.18,1.71-1.01,1.98l-50.88,16.51-.4-1.23Z"/>
    <path class="cls-19" d="M409.58,72.2c0-1.96,1.59-3.55,3.55-3.55s3.56,1.59,3.56,3.55-1.59,3.56-3.56,3.56-3.55-1.59-3.55-3.56"/>
    <path class="cls-46" d="M.26,170.86c0,.11-.01.22-.01.34,0,50.99,102.77,92.33,229.53,92.33s229.54-41.34,229.54-92.33c0-.11,0-.22-.01-.34H.26Z"/>
    <path class="cls-12" d="M.26,170.86c0,.11-.01.22-.01.34,0,50.99,102.77,92.33,229.53,92.33s229.54-41.34,229.54-92.33c0-.11,0-.22-.01-.34H.26Z"/>
    <path class="cls-21" d="M110.06,88.94l-1.93-32.99c-.19-3.22-2.85-5.73-6.08-5.73s-5.89,2.51-6.08,5.73l-1.93,32.99c-.2,3.5,2.58,6.45,6.08,6.45h1.07v9.95h1.73v-9.95h1.07c3.5,0,6.29-2.95,6.08-6.45"/>
    <path class="cls-34" d="M171.76,61.17l-1.93-32.99c-.19-3.22-2.85-5.73-6.08-5.73s-5.89,2.52-6.08,5.73l-1.93,32.99c-.2,3.5,2.58,6.45,6.08,6.45h1.07v22.15h1.73v-22.15h1.07c3.5,0,6.29-2.95,6.08-6.45"/>
    <path class="cls-21" d="M161.81,65.3c0-4.73-2.51-8.85-6.26-11.16,2.33-1.96,3.82-4.89,3.82-8.18,0-5.9-4.78-10.68-10.68-10.68s-10.68,4.78-10.68,10.68c0,3.28,1.49,6.22,3.82,8.18-3.75,2.31-6.25,6.44-6.25,11.16,0,6.79,5.16,12.38,11.78,13.05v12.82h2.68v-12.82c6.61-.67,11.78-6.26,11.78-13.05"/>
    <path class="cls-21" d="M213.97,65.3c0-4.73-2.51-8.85-6.25-11.16,2.33-1.96,3.82-4.89,3.82-8.18,0-5.9-4.78-10.68-10.68-10.68s-10.68,4.78-10.68,10.68c0,3.28,1.49,6.22,3.82,8.18-3.75,2.31-6.26,6.44-6.26,11.16,0,6.79,5.16,12.38,11.78,13.05v12.82h2.68v-12.82c6.61-.67,11.78-6.26,11.78-13.05"/>
    <path class="cls-45" d="M120.99,79.83h-3.86c-3.5,0-6.28-2.95-6.08-6.45l1.93-32.99c.19-3.22,2.86-5.73,6.08-5.73s5.89,2.51,6.08,5.73l1.93,32.99c.21,3.5-2.58,6.45-6.08,6.45"/>
    <path class="cls-34" d="M90.94,79.47c0-4.72-2.51-8.85-6.25-11.16,2.33-1.96,3.82-4.89,3.82-8.18,0-4.16-2.39-7.76-5.87-9.52.9-1.08,1.44-2.48,1.44-4,0-3.45-2.8-6.25-6.25-6.25s-6.25,2.8-6.25,6.25c0,1.52.54,2.91,1.44,4-3.48,1.76-5.87,5.36-5.87,9.52,0,3.28,1.49,6.22,3.82,8.18-3.75,2.31-6.25,6.44-6.25,11.16,0,6.79,5.16,12.38,11.78,13.05v12.82h2.67v-12.82c6.61-.67,11.78-6.26,11.78-13.05"/>
    <path class="cls-34" d="M194.87,79.47c0-4.72-2.51-8.85-6.26-11.16,2.33-1.96,3.82-4.89,3.82-8.18,0-4.16-2.39-7.76-5.87-9.52.9-1.08,1.44-2.48,1.44-4,0-3.45-2.8-6.25-6.25-6.25s-6.25,2.8-6.25,6.25c0,1.52.54,2.91,1.45,4-3.48,1.76-5.87,5.36-5.87,9.52,0,3.28,1.49,6.22,3.82,8.18-3.75,2.31-6.25,6.44-6.25,11.16,0,6.79,5.16,12.38,11.78,13.05v12.82h2.68v-12.82c6.61-.67,11.78-6.26,11.78-13.05"/>
    <path class="cls-34" d="M146.04,99.39l-7.13-10.34c-.43-.62.02-1.47.77-1.47h1.52c.76,0,1.2-.85.77-1.47l-4.8-6.95c-.43-.62.02-1.47.77-1.47s1.2-.85.77-1.47l-11.23-16.27c-.37-.54-1.17-.54-1.54,0l-11.23,16.27c-.43.62.02,1.47.77,1.47s1.2.85.77,1.47l-4.8,6.95c-.43.62.02,1.47.77,1.47h1.52c.76,0,1.2.85.77,1.47l-7.13,10.34c-.43.62.02,1.47.77,1.47h16.18v4.48h4.74v-4.48h16.18c.76,0,1.2-.85.77-1.47"/>
    <path class="cls-45" d="M183.21,110.85l-6.18-8.96c-.37-.54.01-1.27.67-1.27h1.32c.65,0,1.04-.74.67-1.27l-4.16-6.03c-.37-.54.01-1.27.67-1.27s1.04-.73.67-1.27l-9.73-14.1c-.32-.47-1.01-.47-1.34,0l-9.73,14.1c-.37.54.01,1.27.67,1.27s1.04.74.67,1.27l-4.16,6.03c-.37.54.01,1.27.67,1.27h1.32c.65,0,1.04.74.67,1.27l-6.18,8.96c-.37.54.01,1.27.67,1.27h14.02v3.88h4.11v-3.88h14.02c.65,0,1.04-.74.67-1.27"/>
    <path class="cls-34" d="M209.65,104.42l-4.12-5.97c-.25-.36,0-.85.45-.85h.88c.44,0,.69-.49.45-.85l-2.77-4.01c-.25-.36,0-.85.44-.85s.69-.49.45-.85l-6.48-9.39c-.21-.31-.68-.31-.89,0l-6.48,9.39c-.25.36,0,.85.45.85s.69.49.45.85l-2.77,4.01c-.25.36,0,.85.45.85h.88c.44,0,.69.49.44.85l-4.12,5.97c-.25.36,0,.85.45.85h9.34v2.58h2.74v-2.58h9.34c.44,0,.69-.49.45-.85"/>
    <path class="cls-4" d="M61.61,156.02c-.16,0-3.03,0-3.96,4.22-.74,3.35.92,7.28,0,9.93"/>
    <path class="cls-17" d="M99.06,171.87s.35,6.88,4.06,15.97c0,.01-3.13,0-3.13,0,0,0-4.21-7.78-5.55-15.97-.45.15,4.62,0,4.62,0"/>
    <path class="cls-17" d="M61.43,159.96c.15.75-.82,8.67-1.56,10.89-.74,2.22-4.07,9.22,1.13,17h3.31s-3.13-7.93-1.94-11.36c1.19-3.42,4.13-5.81,4.28-10.57-.45,0-5.21-5.96-5.21-5.96"/>
    <path class="cls-44" d="M62.51,171.56c-.11-3.32-3.46-5.17-3.46-10.87s4.62-6.63,7.04-6.63c7.64.01,22.56,0,28.44,0,8.61,0,14.37,13.97,15.17,16.02l5.33-2.97c.19,3.28-1.66,6.54-1.97,7.06l.03.06,2.14,9.45c.36,1.71-.05,3.06-1.87,3.61-1.85.55-2.86.38-3.44-.74-.11-.22-.19-.44-.26-.67,0,0-6.58-5.77-7.4-8.16-.53-1.56-.18-2.71.72-4.18.05-.08.11-.16.18-.24-12.96.34-9.92,14.54-9.92,14.54h-3.68v-13.74c-5.12,2.12-9.73,1.9-14.09,1.56-4.59-.35-7.25-2.24-7.37-2.46-3.13,4.85,3.12,14.63,3.12,14.63h-3.99l-6.12-10.11s1.52-2.84,1.41-6.17"/>
    <path class="cls-17" d="M107.76,165.85s-.39,2.4-2.32,3.07c-1.94.67-1.56-1.23-3.2-1.66-1.64-.43-3.2.84-4.92,1.28-1.71.45-3.65-.67-1.49-1.64,2.16-.97,4.85-4.66,4.15-4.96-.71-.3-1.4,2.22-3.85,1.08-.88-.41-1.35-4.34,1.27-4.91,3.07-.68,5.88.89,5.88.89,0,0,2.3,2.56,4.49,6.83"/>
    <path class="cls-17" d="M89.5,154.07s4.24.9,4.02,2.83c-.22,1.94-1.86,4.76-4.62,5.51-2.75.74,2.23,3.72,2.01,5.73-.22,2.01-5.44,6.63-13.33,2.01-7.89-4.62-3.5-10.8,1.04-9.23,2.38.82,6.55,1.04,4.1-.67-2.46-1.71-8.34-2.01-9.31-6.18,1.94,0,16.08,0,16.08,0"/>
    <path class="cls-17" d="M71.33,159.36s1.71.89.75,2.23c-.97,1.34-4.02,1.94-3.87,3.13.15,1.19,3.35,2.08,2.98,3.35s-7.25.37-8.24-2.61c-.99-2.98,5.86-7.89,8.39-6.11"/>
    <path class="cls-17" d="M95.31,171.13c1.13.67,1.42,1.51.82,2.4-.6.89-4.17,1.42-4.47,2.68-.3,1.26-.21,4.9-2.15,5.12l.05-7.23s-.21-2.8.98-2.06c1.19.74,3.35-1.75,4.77-.92"/>
    <path class="cls-17" d="M68.1,173.21s-.1-1.97-2.11-1.89c-1.12.05-2.68,1.33-2.32,2.58.36,1.25,1.3.88,1.25,2.29-.09,2.33,2.68,3.34,2.68,3.34,0,0-.48-1.9-.35-3.58.13-1.62.85-2.74.85-2.74"/>
    <path class="cls-17" d="M111.36,176.56c0-.47-.38-.86-.86-.86s-.86.38-.86.86.38.86.86.86.86-.38.86-.86"/>
    <path class="cls-44" d="M74.46,176.91c.53-.53.86-1.27.86-2.09,0-1.63-1.32-2.95-2.95-2.95s-2.95,1.32-2.95,2.95c0,.82.34,1.56.88,2.1l-.32,1.03c-.08.26.07.53.32.61.25.08.53-.07.61-.32l.23-.75c.23.11.48.18.75.23v.66c0,.27.22.49.49.49s.49-.22.49-.49v-.66c.27-.04.52-.12.76-.24l.23.76c.08.25.35.4.61.32.26-.08.4-.35.32-.61l-.32-1.05Z"/>
    <path class="cls-47" d="M13.59,149h-3.74c-2.51,0-3.44-2.23-3.07-4.71l.88-24.54c.3-2.01,2.03-3.49,4.06-3.49s3.76,1.49,4.06,3.49l.88,24.54c.37,2.48-.56,4.71-3.07,4.71"/>
    <path class="cls-18" d="M11.72,144.09l-6.57-22.35s0,.06,0,.09l1.58,27.04c.15,2.64,2.34,4.7,4.98,4.7s4.83-2.06,4.98-4.7l1.58-27.04s0-.06,0-.09l-6.57,22.35Z"/>
  </g>
  <rect class="cls-18" x="11.03" y="150.74" width="1.38" height="19.84"/>
  <g class="cls-36">
    <path class="cls-47" d="M33.48,149h-3.74c-2.51,0-3.44-2.23-3.07-4.71l.88-24.54c.3-2.01,2.03-3.49,4.06-3.49s3.76,1.49,4.06,3.49l.88,24.54c.37,2.48-.56,4.71-3.07,4.71"/>
    <path class="cls-18" d="M31.62,144.09l-6.57-22.35s0,.06,0,.09l1.58,27.04c.15,2.64,2.34,4.7,4.98,4.7s4.83-2.06,4.98-4.7l1.58-27.04s0-.06,0-.09l-6.57,22.35Z"/>
  </g>
  <rect class="cls-18" x="30.92" y="150.74" width="1.38" height="19.84"/>
  <g class="cls-37">
    <path class="cls-47" d="M53.38,149h-3.74c-2.51,0-3.44-2.23-3.07-4.71l.88-24.54c.3-2.01,2.03-3.49,4.06-3.49s3.76,1.49,4.06,3.49l.88,24.54c.37,2.48-.56,4.71-3.07,4.71"/>
    <path class="cls-18" d="M51.51,144.09l-6.57-22.35s0,.06,0,.09l1.58,27.04c.15,2.64,2.34,4.7,4.98,4.7s4.83-2.06,4.98-4.7l1.58-27.04s0-.06,0-.09l-6.57,22.35Z"/>
  </g>
  <rect class="cls-18" x="50.82" y="150.74" width="1.38" height="19.84"/>
  <g class="cls-43">
    <path class="cls-48" d="M41.44,223.97c41.48,23.91,110.37,39.56,188.35,39.56s146.87-15.65,188.35-39.56H41.44Z"/>
    <path class="cls-12" d="M41.44,223.97c41.48,23.91,110.37,39.56,188.35,39.56s146.87-15.65,188.35-39.56H41.44Z"/>
  </g>
  <g class="cls-40">
    <path class="cls-15" d="M74.22,231.39c0,.98-.79,1.77-1.77,1.77s-1.77-.79-1.77-1.77.79-1.77,1.77-1.77,1.77.79,1.77,1.77"/>
    <path class="cls-11" d="M74.22,231.39c0,.98-.79,1.77-1.77,1.77s-1.77-.79-1.77-1.77.79-1.77,1.77-1.77,1.77.79,1.77,1.77Z"/>
    <path class="cls-15" d="M86.29,231.39c0,.98-.79,1.77-1.77,1.77s-1.77-.79-1.77-1.77.79-1.77,1.77-1.77,1.77.79,1.77,1.77"/>
    <path class="cls-11" d="M86.29,231.39c0,.98-.79,1.77-1.77,1.77s-1.77-.79-1.77-1.77.79-1.77,1.77-1.77,1.77.79,1.77,1.77Z"/>
    <path class="cls-15" d="M98.35,231.39c0,.98-.79,1.77-1.77,1.77s-1.77-.79-1.77-1.77.79-1.77,1.77-1.77,1.77.79,1.77,1.77"/>
    <path class="cls-11" d="M98.35,231.39c0,.98-.79,1.77-1.77,1.77s-1.77-.79-1.77-1.77.79-1.77,1.77-1.77,1.77.79,1.77,1.77Z"/>
    <path class="cls-15" d="M110.42,231.39c0,.98-.79,1.77-1.77,1.77s-1.77-.79-1.77-1.77.79-1.77,1.77-1.77,1.77.79,1.77,1.77"/>
    <path class="cls-11" d="M110.42,231.39c0,.98-.79,1.77-1.77,1.77s-1.77-.79-1.77-1.77.79-1.77,1.77-1.77,1.77.79,1.77,1.77Z"/>
    <path class="cls-15" d="M122.48,231.39c0,.98-.79,1.77-1.77,1.77s-1.77-.79-1.77-1.77.79-1.77,1.77-1.77,1.77.79,1.77,1.77"/>
    <path class="cls-11" d="M122.48,231.39c0,.98-.79,1.77-1.77,1.77s-1.77-.79-1.77-1.77.79-1.77,1.77-1.77,1.77.79,1.77,1.77Z"/>
    <path class="cls-15" d="M134.55,231.39c0,.98-.79,1.77-1.77,1.77s-1.77-.79-1.77-1.77.79-1.77,1.77-1.77,1.77.79,1.77,1.77"/>
    <path class="cls-11" d="M134.55,231.39c0,.98-.79,1.77-1.77,1.77s-1.77-.79-1.77-1.77.79-1.77,1.77-1.77,1.77.79,1.77,1.77Z"/>
    <path class="cls-15" d="M146.61,231.39c0,.98-.79,1.77-1.77,1.77s-1.77-.79-1.77-1.77.79-1.77,1.77-1.77,1.77.79,1.77,1.77"/>
    <path class="cls-11" d="M146.61,231.39c0,.98-.79,1.77-1.77,1.77s-1.77-.79-1.77-1.77.79-1.77,1.77-1.77,1.77.79,1.77,1.77Z"/>
    <path class="cls-15" d="M158.68,231.39c0,.98-.79,1.77-1.77,1.77s-1.77-.79-1.77-1.77.79-1.77,1.77-1.77,1.77.79,1.77,1.77"/>
    <path class="cls-11" d="M158.68,231.39c0,.98-.79,1.77-1.77,1.77s-1.77-.79-1.77-1.77.79-1.77,1.77-1.77,1.77.79,1.77,1.77Z"/>
    <path class="cls-15" d="M170.74,231.39c0,.98-.79,1.77-1.77,1.77s-1.77-.79-1.77-1.77.79-1.77,1.77-1.77,1.77.79,1.77,1.77"/>
    <path class="cls-11" d="M170.74,231.39c0,.98-.79,1.77-1.77,1.77s-1.77-.79-1.77-1.77.79-1.77,1.77-1.77,1.77.79,1.77,1.77Z"/>
    <path class="cls-15" d="M182.81,231.39c0,.98-.79,1.77-1.77,1.77s-1.77-.79-1.77-1.77.79-1.77,1.77-1.77,1.77.79,1.77,1.77"/>
    <path class="cls-11" d="M182.81,231.39c0,.98-.79,1.77-1.77,1.77s-1.77-.79-1.77-1.77.79-1.77,1.77-1.77,1.77.79,1.77,1.77Z"/>
    <path class="cls-15" d="M194.87,231.39c0,.98-.79,1.77-1.77,1.77s-1.77-.79-1.77-1.77.79-1.77,1.77-1.77,1.77.79,1.77,1.77"/>
    <path class="cls-11" d="M194.87,231.39c0,.98-.79,1.77-1.77,1.77s-1.77-.79-1.77-1.77.79-1.77,1.77-1.77,1.77.79,1.77,1.77Z"/>
    <path class="cls-15" d="M206.94,231.39c0,.98-.79,1.77-1.77,1.77s-1.77-.79-1.77-1.77.79-1.77,1.77-1.77,1.77.79,1.77,1.77"/>
    <path class="cls-11" d="M206.94,231.39c0,.98-.79,1.77-1.77,1.77s-1.77-.79-1.77-1.77.79-1.77,1.77-1.77,1.77.79,1.77,1.77Z"/>
    <path class="cls-15" d="M219,231.39c0,.98-.79,1.77-1.77,1.77s-1.77-.79-1.77-1.77.79-1.77,1.77-1.77,1.77.79,1.77,1.77"/>
    <path class="cls-11" d="M219,231.39c0,.98-.79,1.77-1.77,1.77s-1.77-.79-1.77-1.77.79-1.77,1.77-1.77,1.77.79,1.77,1.77Z"/>
    <path class="cls-15" d="M231.07,231.39c0,.98-.79,1.77-1.77,1.77s-1.77-.79-1.77-1.77.79-1.77,1.77-1.77,1.77.79,1.77,1.77"/>
    <path class="cls-11" d="M231.07,231.39c0,.98-.79,1.77-1.77,1.77s-1.77-.79-1.77-1.77.79-1.77,1.77-1.77,1.77.79,1.77,1.77Z"/>
    <path class="cls-15" d="M243.13,231.39c0,.98-.79,1.77-1.77,1.77s-1.77-.79-1.77-1.77.79-1.77,1.77-1.77,1.77.79,1.77,1.77"/>
    <path class="cls-11" d="M243.13,231.39c0,.98-.79,1.77-1.77,1.77s-1.77-.79-1.77-1.77.79-1.77,1.77-1.77,1.77.79,1.77,1.77Z"/>
    <path class="cls-15" d="M255.2,231.39c0,.98-.79,1.77-1.77,1.77s-1.77-.79-1.77-1.77.79-1.77,1.77-1.77,1.77.79,1.77,1.77"/>
    <path class="cls-11" d="M255.2,231.39c0,.98-.79,1.77-1.77,1.77s-1.77-.79-1.77-1.77.79-1.77,1.77-1.77,1.77.79,1.77,1.77Z"/>
    <path class="cls-15" d="M267.27,231.39c0,.98-.79,1.77-1.77,1.77s-1.77-.79-1.77-1.77.79-1.77,1.77-1.77,1.77.79,1.77,1.77"/>
    <path class="cls-11" d="M267.27,231.39c0,.98-.79,1.77-1.77,1.77s-1.77-.79-1.77-1.77.79-1.77,1.77-1.77,1.77.79,1.77,1.77Z"/>
    <path class="cls-15" d="M279.33,231.39c0,.98-.79,1.77-1.77,1.77s-1.77-.79-1.77-1.77.79-1.77,1.77-1.77,1.77.79,1.77,1.77"/>
    <path class="cls-11" d="M279.33,231.39c0,.98-.79,1.77-1.77,1.77s-1.77-.79-1.77-1.77.79-1.77,1.77-1.77,1.77.79,1.77,1.77Z"/>
    <path class="cls-15" d="M291.4,231.39c0,.98-.79,1.77-1.77,1.77s-1.77-.79-1.77-1.77.79-1.77,1.77-1.77,1.77.79,1.77,1.77"/>
    <path class="cls-11" d="M291.4,231.39c0,.98-.79,1.77-1.77,1.77s-1.77-.79-1.77-1.77.79-1.77,1.77-1.77,1.77.79,1.77,1.77Z"/>
    <path class="cls-15" d="M303.46,231.39c0,.98-.79,1.77-1.77,1.77s-1.77-.79-1.77-1.77.79-1.77,1.77-1.77,1.77.79,1.77,1.77"/>
    <path class="cls-11" d="M303.46,231.39c0,.98-.79,1.77-1.77,1.77s-1.77-.79-1.77-1.77.79-1.77,1.77-1.77,1.77.79,1.77,1.77Z"/>
    <path class="cls-15" d="M315.53,231.39c0,.98-.79,1.77-1.77,1.77s-1.77-.79-1.77-1.77.79-1.77,1.77-1.77,1.77.79,1.77,1.77"/>
    <path class="cls-11" d="M315.53,231.39c0,.98-.79,1.77-1.77,1.77s-1.77-.79-1.77-1.77.79-1.77,1.77-1.77,1.77.79,1.77,1.77Z"/>
    <path class="cls-15" d="M327.59,231.39c0,.98-.79,1.77-1.77,1.77s-1.77-.79-1.77-1.77.79-1.77,1.77-1.77,1.77.79,1.77,1.77"/>
    <path class="cls-11" d="M327.59,231.39c0,.98-.79,1.77-1.77,1.77s-1.77-.79-1.77-1.77.79-1.77,1.77-1.77,1.77.79,1.77,1.77Z"/>
    <path class="cls-15" d="M339.66,231.39c0,.98-.79,1.77-1.77,1.77s-1.77-.79-1.77-1.77.79-1.77,1.77-1.77,1.77.79,1.77,1.77"/>
    <path class="cls-11" d="M339.66,231.39c0,.98-.79,1.77-1.77,1.77s-1.77-.79-1.77-1.77.79-1.77,1.77-1.77,1.77.79,1.77,1.77Z"/>
    <path class="cls-15" d="M351.72,231.39c0,.98-.79,1.77-1.77,1.77s-1.77-.79-1.77-1.77.79-1.77,1.77-1.77,1.77.79,1.77,1.77"/>
    <path class="cls-11" d="M351.72,231.39c0,.98-.79,1.77-1.77,1.77s-1.77-.79-1.77-1.77.79-1.77,1.77-1.77,1.77.79,1.77,1.77Z"/>
    <path class="cls-15" d="M363.79,231.39c0,.98-.79,1.77-1.77,1.77s-1.77-.79-1.77-1.77.79-1.77,1.77-1.77,1.77.79,1.77,1.77"/>
    <path class="cls-11" d="M363.79,231.39c0,.98-.79,1.77-1.77,1.77s-1.77-.79-1.77-1.77.79-1.77,1.77-1.77,1.77.79,1.77,1.77Z"/>
    <path class="cls-15" d="M375.85,231.39c0,.98-.79,1.77-1.77,1.77s-1.77-.79-1.77-1.77.79-1.77,1.77-1.77,1.77.79,1.77,1.77"/>
    <path class="cls-11" d="M375.85,231.39c0,.98-.79,1.77-1.77,1.77s-1.77-.79-1.77-1.77.79-1.77,1.77-1.77,1.77.79,1.77,1.77Z"/>
    <path class="cls-15" d="M387.92,231.39c0,.98-.79,1.77-1.77,1.77s-1.77-.79-1.77-1.77.79-1.77,1.77-1.77,1.77.79,1.77,1.77"/>
    <path class="cls-11" d="M387.92,231.39c0,.98-.79,1.77-1.77,1.77s-1.77-.79-1.77-1.77.79-1.77,1.77-1.77,1.77.79,1.77,1.77Z"/>
    <path class="cls-15" d="M74.22,248.27c0,.98-.79,1.77-1.77,1.77s-1.77-.79-1.77-1.77.79-1.77,1.77-1.77,1.77.79,1.77,1.77"/>
    <path class="cls-11" d="M74.22,248.27c0,.98-.79,1.77-1.77,1.77s-1.77-.79-1.77-1.77.79-1.77,1.77-1.77,1.77.79,1.77,1.77Z"/>
    <path class="cls-15" d="M86.29,248.27c0,.98-.79,1.77-1.77,1.77s-1.77-.79-1.77-1.77.79-1.77,1.77-1.77,1.77.79,1.77,1.77"/>
    <path class="cls-11" d="M86.29,248.27c0,.98-.79,1.77-1.77,1.77s-1.77-.79-1.77-1.77.79-1.77,1.77-1.77,1.77.79,1.77,1.77Z"/>
    <path class="cls-15" d="M98.35,248.27c0,.98-.79,1.77-1.77,1.77s-1.77-.79-1.77-1.77.79-1.77,1.77-1.77,1.77.79,1.77,1.77"/>
    <path class="cls-11" d="M98.35,248.27c0,.98-.79,1.77-1.77,1.77s-1.77-.79-1.77-1.77.79-1.77,1.77-1.77,1.77.79,1.77,1.77Z"/>
    <path class="cls-15" d="M110.42,248.27c0,.98-.79,1.77-1.77,1.77s-1.77-.79-1.77-1.77.79-1.77,1.77-1.77,1.77.79,1.77,1.77"/>
    <path class="cls-11" d="M110.42,248.27c0,.98-.79,1.77-1.77,1.77s-1.77-.79-1.77-1.77.79-1.77,1.77-1.77,1.77.79,1.77,1.77Z"/>
    <path class="cls-15" d="M122.48,248.27c0,.98-.79,1.77-1.77,1.77s-1.77-.79-1.77-1.77.79-1.77,1.77-1.77,1.77.79,1.77,1.77"/>
    <path class="cls-11" d="M122.48,248.27c0,.98-.79,1.77-1.77,1.77s-1.77-.79-1.77-1.77.79-1.77,1.77-1.77,1.77.79,1.77,1.77Z"/>
    <path class="cls-15" d="M134.55,248.27c0,.98-.79,1.77-1.77,1.77s-1.77-.79-1.77-1.77.79-1.77,1.77-1.77,1.77.79,1.77,1.77"/>
    <path class="cls-11" d="M134.55,248.27c0,.98-.79,1.77-1.77,1.77s-1.77-.79-1.77-1.77.79-1.77,1.77-1.77,1.77.79,1.77,1.77Z"/>
    <path class="cls-15" d="M146.61,248.27c0,.98-.79,1.77-1.77,1.77s-1.77-.79-1.77-1.77.79-1.77,1.77-1.77,1.77.79,1.77,1.77"/>
    <path class="cls-11" d="M146.61,248.27c0,.98-.79,1.77-1.77,1.77s-1.77-.79-1.77-1.77.79-1.77,1.77-1.77,1.77.79,1.77,1.77Z"/>
    <path class="cls-15" d="M158.68,248.27c0,.98-.79,1.77-1.77,1.77s-1.77-.79-1.77-1.77.79-1.77,1.77-1.77,1.77.79,1.77,1.77"/>
    <path class="cls-11" d="M158.68,248.27c0,.98-.79,1.77-1.77,1.77s-1.77-.79-1.77-1.77.79-1.77,1.77-1.77,1.77.79,1.77,1.77Z"/>
    <path class="cls-15" d="M170.74,248.27c0,.98-.79,1.77-1.77,1.77s-1.77-.79-1.77-1.77.79-1.77,1.77-1.77,1.77.79,1.77,1.77"/>
    <path class="cls-11" d="M170.74,248.27c0,.98-.79,1.77-1.77,1.77s-1.77-.79-1.77-1.77.79-1.77,1.77-1.77,1.77.79,1.77,1.77Z"/>
    <path class="cls-15" d="M182.81,248.27c0,.98-.79,1.77-1.77,1.77s-1.77-.79-1.77-1.77.79-1.77,1.77-1.77,1.77.79,1.77,1.77"/>
    <path class="cls-11" d="M182.81,248.27c0,.98-.79,1.77-1.77,1.77s-1.77-.79-1.77-1.77.79-1.77,1.77-1.77,1.77.79,1.77,1.77Z"/>
    <path class="cls-15" d="M194.87,248.27c0,.98-.79,1.77-1.77,1.77s-1.77-.79-1.77-1.77.79-1.77,1.77-1.77,1.77.79,1.77,1.77"/>
    <path class="cls-11" d="M194.87,248.27c0,.98-.79,1.77-1.77,1.77s-1.77-.79-1.77-1.77.79-1.77,1.77-1.77,1.77.79,1.77,1.77Z"/>
    <path class="cls-15" d="M206.94,248.27c0,.98-.79,1.77-1.77,1.77s-1.77-.79-1.77-1.77.79-1.77,1.77-1.77,1.77.79,1.77,1.77"/>
    <path class="cls-11" d="M206.94,248.27c0,.98-.79,1.77-1.77,1.77s-1.77-.79-1.77-1.77.79-1.77,1.77-1.77,1.77.79,1.77,1.77Z"/>
    <path class="cls-15" d="M219,248.27c0,.98-.79,1.77-1.77,1.77s-1.77-.79-1.77-1.77.79-1.77,1.77-1.77,1.77.79,1.77,1.77"/>
    <path class="cls-11" d="M219,248.27c0,.98-.79,1.77-1.77,1.77s-1.77-.79-1.77-1.77.79-1.77,1.77-1.77,1.77.79,1.77,1.77Z"/>
    <path class="cls-15" d="M231.07,248.27c0,.98-.79,1.77-1.77,1.77s-1.77-.79-1.77-1.77.79-1.77,1.77-1.77,1.77.79,1.77,1.77"/>
    <path class="cls-11" d="M231.07,248.27c0,.98-.79,1.77-1.77,1.77s-1.77-.79-1.77-1.77.79-1.77,1.77-1.77,1.77.79,1.77,1.77Z"/>
    <path class="cls-15" d="M243.13,248.27c0,.98-.79,1.77-1.77,1.77s-1.77-.79-1.77-1.77.79-1.77,1.77-1.77,1.77.79,1.77,1.77"/>
    <path class="cls-11" d="M243.13,248.27c0,.98-.79,1.77-1.77,1.77s-1.77-.79-1.77-1.77.79-1.77,1.77-1.77,1.77.79,1.77,1.77Z"/>
    <path class="cls-15" d="M255.2,248.27c0,.98-.79,1.77-1.77,1.77s-1.77-.79-1.77-1.77.79-1.77,1.77-1.77,1.77.79,1.77,1.77"/>
    <path class="cls-11" d="M255.2,248.27c0,.98-.79,1.77-1.77,1.77s-1.77-.79-1.77-1.77.79-1.77,1.77-1.77,1.77.79,1.77,1.77Z"/>
    <path class="cls-15" d="M267.27,248.27c0,.98-.79,1.77-1.77,1.77s-1.77-.79-1.77-1.77.79-1.77,1.77-1.77,1.77.79,1.77,1.77"/>
    <path class="cls-11" d="M267.27,248.27c0,.98-.79,1.77-1.77,1.77s-1.77-.79-1.77-1.77.79-1.77,1.77-1.77,1.77.79,1.77,1.77Z"/>
    <path class="cls-15" d="M279.33,248.27c0,.98-.79,1.77-1.77,1.77s-1.77-.79-1.77-1.77.79-1.77,1.77-1.77,1.77.79,1.77,1.77"/>
    <path class="cls-11" d="M279.33,248.27c0,.98-.79,1.77-1.77,1.77s-1.77-.79-1.77-1.77.79-1.77,1.77-1.77,1.77.79,1.77,1.77Z"/>
    <path class="cls-15" d="M291.4,248.27c0,.98-.79,1.77-1.77,1.77s-1.77-.79-1.77-1.77.79-1.77,1.77-1.77,1.77.79,1.77,1.77"/>
    <path class="cls-11" d="M291.4,248.27c0,.98-.79,1.77-1.77,1.77s-1.77-.79-1.77-1.77.79-1.77,1.77-1.77,1.77.79,1.77,1.77Z"/>
    <path class="cls-15" d="M303.46,248.27c0,.98-.79,1.77-1.77,1.77s-1.77-.79-1.77-1.77.79-1.77,1.77-1.77,1.77.79,1.77,1.77"/>
    <path class="cls-11" d="M303.46,248.27c0,.98-.79,1.77-1.77,1.77s-1.77-.79-1.77-1.77.79-1.77,1.77-1.77,1.77.79,1.77,1.77Z"/>
    <path class="cls-15" d="M315.53,248.27c0,.98-.79,1.77-1.77,1.77s-1.77-.79-1.77-1.77.79-1.77,1.77-1.77,1.77.79,1.77,1.77"/>
    <path class="cls-11" d="M315.53,248.27c0,.98-.79,1.77-1.77,1.77s-1.77-.79-1.77-1.77.79-1.77,1.77-1.77,1.77.79,1.77,1.77Z"/>
    <path class="cls-15" d="M327.59,248.27c0,.98-.79,1.77-1.77,1.77s-1.77-.79-1.77-1.77.79-1.77,1.77-1.77,1.77.79,1.77,1.77"/>
    <path class="cls-11" d="M327.59,248.27c0,.98-.79,1.77-1.77,1.77s-1.77-.79-1.77-1.77.79-1.77,1.77-1.77,1.77.79,1.77,1.77Z"/>
    <path class="cls-15" d="M339.66,248.27c0,.98-.79,1.77-1.77,1.77s-1.77-.79-1.77-1.77.79-1.77,1.77-1.77,1.77.79,1.77,1.77"/>
    <path class="cls-11" d="M339.66,248.27c0,.98-.79,1.77-1.77,1.77s-1.77-.79-1.77-1.77.79-1.77,1.77-1.77,1.77.79,1.77,1.77Z"/>
    <path class="cls-15" d="M351.72,248.27c0,.98-.79,1.77-1.77,1.77s-1.77-.79-1.77-1.77.79-1.77,1.77-1.77,1.77.79,1.77,1.77"/>
    <path class="cls-11" d="M351.72,248.27c0,.98-.79,1.77-1.77,1.77s-1.77-.79-1.77-1.77.79-1.77,1.77-1.77,1.77.79,1.77,1.77Z"/>
    <path class="cls-15" d="M363.79,248.27c0,.98-.79,1.77-1.77,1.77s-1.77-.79-1.77-1.77.79-1.77,1.77-1.77,1.77.79,1.77,1.77"/>
    <path class="cls-11" d="M363.79,248.27c0,.98-.79,1.77-1.77,1.77s-1.77-.79-1.77-1.77.79-1.77,1.77-1.77,1.77.79,1.77,1.77Z"/>
    <path class="cls-15" d="M375.85,248.27c0,.98-.79,1.77-1.77,1.77s-1.77-.79-1.77-1.77.79-1.77,1.77-1.77,1.77.79,1.77,1.77"/>
    <path class="cls-11" d="M375.85,248.27c0,.98-.79,1.77-1.77,1.77s-1.77-.79-1.77-1.77.79-1.77,1.77-1.77,1.77.79,1.77,1.77Z"/>
    <path class="cls-15" d="M387.92,248.27c0,.98-.79,1.77-1.77,1.77s-1.77-.79-1.77-1.77.79-1.77,1.77-1.77,1.77.79,1.77,1.77"/>
    <path class="cls-11" d="M387.92,248.27c0,.98-.79,1.77-1.77,1.77s-1.77-.79-1.77-1.77.79-1.77,1.77-1.77,1.77.79,1.77,1.77Z"/>
    <path class="cls-15" d="M92.61,239.83c0,.98-.79,1.77-1.77,1.77s-1.77-.79-1.77-1.77.79-1.77,1.77-1.77,1.77.79,1.77,1.77"/>
    <path class="cls-11" d="M92.61,239.83c0,.98-.79,1.77-1.77,1.77s-1.77-.79-1.77-1.77.79-1.77,1.77-1.77,1.77.79,1.77,1.77Z"/>
    <path class="cls-15" d="M104.67,239.83c0,.98-.79,1.77-1.77,1.77s-1.77-.79-1.77-1.77.79-1.77,1.77-1.77,1.77.79,1.77,1.77"/>
    <path class="cls-11" d="M104.67,239.83c0,.98-.79,1.77-1.77,1.77s-1.77-.79-1.77-1.77.79-1.77,1.77-1.77,1.77.79,1.77,1.77Z"/>
    <path class="cls-15" d="M116.74,239.83c0,.98-.79,1.77-1.77,1.77s-1.77-.79-1.77-1.77.79-1.77,1.77-1.77,1.77.79,1.77,1.77"/>
    <path class="cls-11" d="M116.74,239.83c0,.98-.79,1.77-1.77,1.77s-1.77-.79-1.77-1.77.79-1.77,1.77-1.77,1.77.79,1.77,1.77Z"/>
    <path class="cls-15" d="M128.8,239.83c0,.98-.79,1.77-1.77,1.77s-1.77-.79-1.77-1.77.79-1.77,1.77-1.77,1.77.79,1.77,1.77"/>
    <path class="cls-11" d="M128.8,239.83c0,.98-.79,1.77-1.77,1.77s-1.77-.79-1.77-1.77.79-1.77,1.77-1.77,1.77.79,1.77,1.77Z"/>
    <path class="cls-15" d="M140.87,239.83c0,.98-.79,1.77-1.77,1.77s-1.77-.79-1.77-1.77.79-1.77,1.77-1.77,1.77.79,1.77,1.77"/>
    <path class="cls-11" d="M140.87,239.83c0,.98-.79,1.77-1.77,1.77s-1.77-.79-1.77-1.77.79-1.77,1.77-1.77,1.77.79,1.77,1.77Z"/>
    <path class="cls-15" d="M152.93,239.83c0,.98-.79,1.77-1.77,1.77s-1.77-.79-1.77-1.77.79-1.77,1.77-1.77,1.77.79,1.77,1.77"/>
    <path class="cls-11" d="M152.93,239.83c0,.98-.79,1.77-1.77,1.77s-1.77-.79-1.77-1.77.79-1.77,1.77-1.77,1.77.79,1.77,1.77Z"/>
    <path class="cls-15" d="M165,239.83c0,.98-.79,1.77-1.77,1.77s-1.77-.79-1.77-1.77.79-1.77,1.77-1.77,1.77.79,1.77,1.77"/>
    <path class="cls-11" d="M165,239.83c0,.98-.79,1.77-1.77,1.77s-1.77-.79-1.77-1.77.79-1.77,1.77-1.77,1.77.79,1.77,1.77Z"/>
    <path class="cls-15" d="M177.06,239.83c0,.98-.79,1.77-1.77,1.77s-1.77-.79-1.77-1.77.79-1.77,1.77-1.77,1.77.79,1.77,1.77"/>
    <path class="cls-11" d="M177.06,239.83c0,.98-.79,1.77-1.77,1.77s-1.77-.79-1.77-1.77.79-1.77,1.77-1.77,1.77.79,1.77,1.77Z"/>
    <path class="cls-15" d="M189.13,239.83c0,.98-.79,1.77-1.77,1.77s-1.77-.79-1.77-1.77.79-1.77,1.77-1.77,1.77.79,1.77,1.77"/>
    <path class="cls-11" d="M189.13,239.83c0,.98-.79,1.77-1.77,1.77s-1.77-.79-1.77-1.77.79-1.77,1.77-1.77,1.77.79,1.77,1.77Z"/>
    <path class="cls-15" d="M201.19,239.83c0,.98-.79,1.77-1.77,1.77s-1.77-.79-1.77-1.77.79-1.77,1.77-1.77,1.77.79,1.77,1.77"/>
    <path class="cls-11" d="M201.19,239.83c0,.98-.79,1.77-1.77,1.77s-1.77-.79-1.77-1.77.79-1.77,1.77-1.77,1.77.79,1.77,1.77Z"/>
    <path class="cls-15" d="M213.26,239.83c0,.98-.79,1.77-1.77,1.77s-1.77-.79-1.77-1.77.79-1.77,1.77-1.77,1.77.79,1.77,1.77"/>
    <path class="cls-11" d="M213.26,239.83c0,.98-.79,1.77-1.77,1.77s-1.77-.79-1.77-1.77.79-1.77,1.77-1.77,1.77.79,1.77,1.77Z"/>
    <path class="cls-15" d="M225.32,239.83c0,.98-.79,1.77-1.77,1.77s-1.77-.79-1.77-1.77.79-1.77,1.77-1.77,1.77.79,1.77,1.77"/>
    <path class="cls-11" d="M225.32,239.83c0,.98-.79,1.77-1.77,1.77s-1.77-.79-1.77-1.77.79-1.77,1.77-1.77,1.77.79,1.77,1.77Z"/>
    <path class="cls-15" d="M237.39,239.83c0,.98-.79,1.77-1.77,1.77s-1.77-.79-1.77-1.77.79-1.77,1.77-1.77,1.77.79,1.77,1.77"/>
    <path class="cls-11" d="M237.39,239.83c0,.98-.79,1.77-1.77,1.77s-1.77-.79-1.77-1.77.79-1.77,1.77-1.77,1.77.79,1.77,1.77Z"/>
    <path class="cls-15" d="M249.45,239.83c0,.98-.79,1.77-1.77,1.77s-1.77-.79-1.77-1.77.79-1.77,1.77-1.77,1.77.79,1.77,1.77"/>
    <path class="cls-11" d="M249.45,239.83c0,.98-.79,1.77-1.77,1.77s-1.77-.79-1.77-1.77.79-1.77,1.77-1.77,1.77.79,1.77,1.77Z"/>
    <path class="cls-15" d="M261.52,239.83c0,.98-.79,1.77-1.77,1.77s-1.77-.79-1.77-1.77.79-1.77,1.77-1.77,1.77.79,1.77,1.77"/>
    <path class="cls-11" d="M261.52,239.83c0,.98-.79,1.77-1.77,1.77s-1.77-.79-1.77-1.77.79-1.77,1.77-1.77,1.77.79,1.77,1.77Z"/>
    <path class="cls-15" d="M273.58,239.83c0,.98-.79,1.77-1.77,1.77s-1.77-.79-1.77-1.77.79-1.77,1.77-1.77,1.77.79,1.77,1.77"/>
    <path class="cls-11" d="M273.58,239.83c0,.98-.79,1.77-1.77,1.77s-1.77-.79-1.77-1.77.79-1.77,1.77-1.77,1.77.79,1.77,1.77Z"/>
    <path class="cls-15" d="M285.65,239.83c0,.98-.79,1.77-1.77,1.77s-1.77-.79-1.77-1.77.79-1.77,1.77-1.77,1.77.79,1.77,1.77"/>
    <path class="cls-11" d="M285.65,239.83c0,.98-.79,1.77-1.77,1.77s-1.77-.79-1.77-1.77.79-1.77,1.77-1.77,1.77.79,1.77,1.77Z"/>
    <path class="cls-15" d="M297.71,239.83c0,.98-.79,1.77-1.77,1.77s-1.77-.79-1.77-1.77.79-1.77,1.77-1.77,1.77.79,1.77,1.77"/>
    <path class="cls-11" d="M297.71,239.83c0,.98-.79,1.77-1.77,1.77s-1.77-.79-1.77-1.77.79-1.77,1.77-1.77,1.77.79,1.77,1.77Z"/>
    <path class="cls-15" d="M309.78,239.83c0,.98-.79,1.77-1.77,1.77s-1.77-.79-1.77-1.77.79-1.77,1.77-1.77,1.77.79,1.77,1.77"/>
    <path class="cls-11" d="M309.78,239.83c0,.98-.79,1.77-1.77,1.77s-1.77-.79-1.77-1.77.79-1.77,1.77-1.77,1.77.79,1.77,1.77Z"/>
    <path class="cls-15" d="M321.84,239.83c0,.98-.79,1.77-1.77,1.77s-1.77-.79-1.77-1.77.79-1.77,1.77-1.77,1.77.79,1.77,1.77"/>
    <path class="cls-11" d="M321.84,239.83c0,.98-.79,1.77-1.77,1.77s-1.77-.79-1.77-1.77.79-1.77,1.77-1.77,1.77.79,1.77,1.77Z"/>
    <path class="cls-15" d="M333.91,239.83c0,.98-.79,1.77-1.77,1.77s-1.77-.79-1.77-1.77.79-1.77,1.77-1.77,1.77.79,1.77,1.77"/>
    <path class="cls-11" d="M333.91,239.83c0,.98-.79,1.77-1.77,1.77s-1.77-.79-1.77-1.77.79-1.77,1.77-1.77,1.77.79,1.77,1.77Z"/>
    <path class="cls-15" d="M345.97,239.83c0,.98-.79,1.77-1.77,1.77s-1.77-.79-1.77-1.77.79-1.77,1.77-1.77,1.77.79,1.77,1.77"/>
    <path class="cls-11" d="M345.97,239.83c0,.98-.79,1.77-1.77,1.77s-1.77-.79-1.77-1.77.79-1.77,1.77-1.77,1.77.79,1.77,1.77Z"/>
    <path class="cls-15" d="M358.04,239.83c0,.98-.79,1.77-1.77,1.77s-1.77-.79-1.77-1.77.79-1.77,1.77-1.77,1.77.79,1.77,1.77"/>
    <path class="cls-11" d="M358.04,239.83c0,.98-.79,1.77-1.77,1.77s-1.77-.79-1.77-1.77.79-1.77,1.77-1.77,1.77.79,1.77,1.77Z"/>
    <path class="cls-15" d="M370.1,239.83c0,.98-.79,1.77-1.77,1.77s-1.77-.79-1.77-1.77.79-1.77,1.77-1.77,1.77.79,1.77,1.77"/>
    <path class="cls-11" d="M370.1,239.83c0,.98-.79,1.77-1.77,1.77s-1.77-.79-1.77-1.77.79-1.77,1.77-1.77,1.77.79,1.77,1.77Z"/>
    <path class="cls-15" d="M382.17,239.83c0,.98-.79,1.77-1.77,1.77s-1.77-.79-1.77-1.77.79-1.77,1.77-1.77,1.77.79,1.77,1.77"/>
    <path class="cls-11" d="M382.17,239.83c0,.98-.79,1.77-1.77,1.77s-1.77-.79-1.77-1.77.79-1.77,1.77-1.77,1.77.79,1.77,1.77Z"/>
    <path class="cls-15" d="M394.23,239.83c0,.98-.79,1.77-1.77,1.77s-1.77-.79-1.77-1.77.79-1.77,1.77-1.77,1.77.79,1.77,1.77"/>
    <path class="cls-11" d="M394.23,239.83c0,.98-.79,1.77-1.77,1.77s-1.77-.79-1.77-1.77.79-1.77,1.77-1.77,1.77.79,1.77,1.77Z"/>
    <path class="cls-15" d="M406.3,239.83c0,.98-.79,1.77-1.77,1.77s-1.77-.79-1.77-1.77.79-1.77,1.77-1.77,1.77.79,1.77,1.77"/>
    <path class="cls-11" d="M406.3,239.83c0,.98-.79,1.77-1.77,1.77s-1.77-.79-1.77-1.77.79-1.77,1.77-1.77,1.77.79,1.77,1.77Z"/>
    <path class="cls-15" d="M92.61,256.72c0,.98-.79,1.77-1.77,1.77s-1.77-.79-1.77-1.77.79-1.77,1.77-1.77,1.77.79,1.77,1.77"/>
    <path class="cls-11" d="M92.61,256.72c0,.98-.79,1.77-1.77,1.77s-1.77-.79-1.77-1.77.79-1.77,1.77-1.77,1.77.79,1.77,1.77Z"/>
    <path class="cls-15" d="M104.67,256.72c0,.98-.79,1.77-1.77,1.77s-1.77-.79-1.77-1.77.79-1.77,1.77-1.77,1.77.79,1.77,1.77"/>
    <path class="cls-11" d="M104.67,256.72c0,.98-.79,1.77-1.77,1.77s-1.77-.79-1.77-1.77.79-1.77,1.77-1.77,1.77.79,1.77,1.77Z"/>
    <path class="cls-15" d="M116.74,256.72c0,.98-.79,1.77-1.77,1.77s-1.77-.79-1.77-1.77.79-1.77,1.77-1.77,1.77.79,1.77,1.77"/>
    <path class="cls-11" d="M116.74,256.72c0,.98-.79,1.77-1.77,1.77s-1.77-.79-1.77-1.77.79-1.77,1.77-1.77,1.77.79,1.77,1.77Z"/>
    <path class="cls-15" d="M128.8,256.72c0,.98-.79,1.77-1.77,1.77s-1.77-.79-1.77-1.77.79-1.77,1.77-1.77,1.77.79,1.77,1.77"/>
    <path class="cls-11" d="M128.8,256.72c0,.98-.79,1.77-1.77,1.77s-1.77-.79-1.77-1.77.79-1.77,1.77-1.77,1.77.79,1.77,1.77Z"/>
    <path class="cls-15" d="M140.87,256.72c0,.98-.79,1.77-1.77,1.77s-1.77-.79-1.77-1.77.79-1.77,1.77-1.77,1.77.79,1.77,1.77"/>
    <path class="cls-11" d="M140.87,256.72c0,.98-.79,1.77-1.77,1.77s-1.77-.79-1.77-1.77.79-1.77,1.77-1.77,1.77.79,1.77,1.77Z"/>
    <path class="cls-15" d="M152.93,256.72c0,.98-.79,1.77-1.77,1.77s-1.77-.79-1.77-1.77.79-1.77,1.77-1.77,1.77.79,1.77,1.77"/>
    <path class="cls-11" d="M152.93,256.72c0,.98-.79,1.77-1.77,1.77s-1.77-.79-1.77-1.77.79-1.77,1.77-1.77,1.77.79,1.77,1.77Z"/>
    <path class="cls-15" d="M165,256.72c0,.98-.79,1.77-1.77,1.77s-1.77-.79-1.77-1.77.79-1.77,1.77-1.77,1.77.79,1.77,1.77"/>
    <path class="cls-11" d="M165,256.72c0,.98-.79,1.77-1.77,1.77s-1.77-.79-1.77-1.77.79-1.77,1.77-1.77,1.77.79,1.77,1.77Z"/>
    <path class="cls-15" d="M177.06,256.72c0,.98-.79,1.77-1.77,1.77s-1.77-.79-1.77-1.77.79-1.77,1.77-1.77,1.77.79,1.77,1.77"/>
    <path class="cls-11" d="M177.06,256.72c0,.98-.79,1.77-1.77,1.77s-1.77-.79-1.77-1.77.79-1.77,1.77-1.77,1.77.79,1.77,1.77Z"/>
    <path class="cls-15" d="M189.13,256.72c0,.98-.79,1.77-1.77,1.77s-1.77-.79-1.77-1.77.79-1.77,1.77-1.77,1.77.79,1.77,1.77"/>
    <path class="cls-11" d="M189.13,256.72c0,.98-.79,1.77-1.77,1.77s-1.77-.79-1.77-1.77.79-1.77,1.77-1.77,1.77.79,1.77,1.77Z"/>
    <path class="cls-15" d="M201.19,256.72c0,.98-.79,1.77-1.77,1.77s-1.77-.79-1.77-1.77.79-1.77,1.77-1.77,1.77.79,1.77,1.77"/>
    <path class="cls-11" d="M201.19,256.72c0,.98-.79,1.77-1.77,1.77s-1.77-.79-1.77-1.77.79-1.77,1.77-1.77,1.77.79,1.77,1.77Z"/>
    <path class="cls-15" d="M213.26,256.72c0,.98-.79,1.77-1.77,1.77s-1.77-.79-1.77-1.77.79-1.77,1.77-1.77,1.77.79,1.77,1.77"/>
    <path class="cls-11" d="M213.26,256.72c0,.98-.79,1.77-1.77,1.77s-1.77-.79-1.77-1.77.79-1.77,1.77-1.77,1.77.79,1.77,1.77Z"/>
    <path class="cls-15" d="M225.32,256.72c0,.98-.79,1.77-1.77,1.77s-1.77-.79-1.77-1.77.79-1.77,1.77-1.77,1.77.79,1.77,1.77"/>
    <path class="cls-11" d="M225.32,256.72c0,.98-.79,1.77-1.77,1.77s-1.77-.79-1.77-1.77.79-1.77,1.77-1.77,1.77.79,1.77,1.77Z"/>
    <path class="cls-15" d="M237.39,256.72c0,.98-.79,1.77-1.77,1.77s-1.77-.79-1.77-1.77.79-1.77,1.77-1.77,1.77.79,1.77,1.77"/>
    <path class="cls-11" d="M237.39,256.72c0,.98-.79,1.77-1.77,1.77s-1.77-.79-1.77-1.77.79-1.77,1.77-1.77,1.77.79,1.77,1.77Z"/>
    <path class="cls-15" d="M249.45,256.72c0,.98-.79,1.77-1.77,1.77s-1.77-.79-1.77-1.77.79-1.77,1.77-1.77,1.77.79,1.77,1.77"/>
    <path class="cls-11" d="M249.45,256.72c0,.98-.79,1.77-1.77,1.77s-1.77-.79-1.77-1.77.79-1.77,1.77-1.77,1.77.79,1.77,1.77Z"/>
    <path class="cls-15" d="M261.52,256.72c0,.98-.79,1.77-1.77,1.77s-1.77-.79-1.77-1.77.79-1.77,1.77-1.77,1.77.79,1.77,1.77"/>
    <path class="cls-11" d="M261.52,256.72c0,.98-.79,1.77-1.77,1.77s-1.77-.79-1.77-1.77.79-1.77,1.77-1.77,1.77.79,1.77,1.77Z"/>
    <path class="cls-15" d="M273.58,256.72c0,.98-.79,1.77-1.77,1.77s-1.77-.79-1.77-1.77.79-1.77,1.77-1.77,1.77.79,1.77,1.77"/>
    <path class="cls-11" d="M273.58,256.72c0,.98-.79,1.77-1.77,1.77s-1.77-.79-1.77-1.77.79-1.77,1.77-1.77,1.77.79,1.77,1.77Z"/>
    <path class="cls-15" d="M285.65,256.72c0,.98-.79,1.77-1.77,1.77s-1.77-.79-1.77-1.77.79-1.77,1.77-1.77,1.77.79,1.77,1.77"/>
    <path class="cls-11" d="M285.65,256.72c0,.98-.79,1.77-1.77,1.77s-1.77-.79-1.77-1.77.79-1.77,1.77-1.77,1.77.79,1.77,1.77Z"/>
    <path class="cls-15" d="M297.71,256.72c0,.98-.79,1.77-1.77,1.77s-1.77-.79-1.77-1.77.79-1.77,1.77-1.77,1.77.79,1.77,1.77"/>
    <path class="cls-11" d="M297.71,256.72c0,.98-.79,1.77-1.77,1.77s-1.77-.79-1.77-1.77.79-1.77,1.77-1.77,1.77.79,1.77,1.77Z"/>
    <path class="cls-15" d="M309.78,256.72c0,.98-.79,1.77-1.77,1.77s-1.77-.79-1.77-1.77.79-1.77,1.77-1.77,1.77.79,1.77,1.77"/>
    <path class="cls-11" d="M309.78,256.72c0,.98-.79,1.77-1.77,1.77s-1.77-.79-1.77-1.77.79-1.77,1.77-1.77,1.77.79,1.77,1.77Z"/>
    <path class="cls-15" d="M321.84,256.72c0,.98-.79,1.77-1.77,1.77s-1.77-.79-1.77-1.77.79-1.77,1.77-1.77,1.77.79,1.77,1.77"/>
    <path class="cls-11" d="M321.84,256.72c0,.98-.79,1.77-1.77,1.77s-1.77-.79-1.77-1.77.79-1.77,1.77-1.77,1.77.79,1.77,1.77Z"/>
    <path class="cls-15" d="M333.91,256.72c0,.98-.79,1.77-1.77,1.77s-1.77-.79-1.77-1.77.79-1.77,1.77-1.77,1.77.79,1.77,1.77"/>
    <path class="cls-11" d="M333.91,256.72c0,.98-.79,1.77-1.77,1.77s-1.77-.79-1.77-1.77.79-1.77,1.77-1.77,1.77.79,1.77,1.77Z"/>
    <path class="cls-15" d="M345.97,256.72c0,.98-.79,1.77-1.77,1.77s-1.77-.79-1.77-1.77.79-1.77,1.77-1.77,1.77.79,1.77,1.77"/>
    <path class="cls-11" d="M345.97,256.72c0,.98-.79,1.77-1.77,1.77s-1.77-.79-1.77-1.77.79-1.77,1.77-1.77,1.77.79,1.77,1.77Z"/>
    <path class="cls-15" d="M358.04,256.72c0,.98-.79,1.77-1.77,1.77s-1.77-.79-1.77-1.77.79-1.77,1.77-1.77,1.77.79,1.77,1.77"/>
    <path class="cls-11" d="M358.04,256.72c0,.98-.79,1.77-1.77,1.77s-1.77-.79-1.77-1.77.79-1.77,1.77-1.77,1.77.79,1.77,1.77Z"/>
    <path class="cls-15" d="M370.1,256.72c0,.98-.79,1.77-1.77,1.77s-1.77-.79-1.77-1.77.79-1.77,1.77-1.77,1.77.79,1.77,1.77"/>
    <path class="cls-11" d="M370.1,256.72c0,.98-.79,1.77-1.77,1.77s-1.77-.79-1.77-1.77.79-1.77,1.77-1.77,1.77.79,1.77,1.77Z"/>
    <path class="cls-15" d="M382.17,256.72c0,.98-.79,1.77-1.77,1.77s-1.77-.79-1.77-1.77.79-1.77,1.77-1.77,1.77.79,1.77,1.77"/>
    <path class="cls-11" d="M382.17,256.72c0,.98-.79,1.77-1.77,1.77s-1.77-.79-1.77-1.77.79-1.77,1.77-1.77,1.77.79,1.77,1.77Z"/>
    <path class="cls-15" d="M394.23,256.72c0,.98-.79,1.77-1.77,1.77s-1.77-.79-1.77-1.77.79-1.77,1.77-1.77,1.77.79,1.77,1.77"/>
    <path class="cls-11" d="M394.23,256.72c0,.98-.79,1.77-1.77,1.77s-1.77-.79-1.77-1.77.79-1.77,1.77-1.77,1.77.79,1.77,1.77Z"/>
    <path class="cls-15" d="M406.3,256.72c0,.98-.79,1.77-1.77,1.77s-1.77-.79-1.77-1.77.79-1.77,1.77-1.77,1.77.79,1.77,1.77"/>
    <path class="cls-11" d="M406.3,256.72c0,.98-.79,1.77-1.77,1.77s-1.77-.79-1.77-1.77.79-1.77,1.77-1.77,1.77.79,1.77,1.77Z"/>
  </g>
  <g class="cls-39">
    <path class="cls-12" d="M41.44,223.97c41.48,23.91,110.37,39.56,188.35,39.56s146.87-15.65,188.35-39.56H41.44Z"/>
  </g>
  <path class="cls-2" d="M142.96,190.72v8.5M139.02,199.03v8.5M132.36,199.03v8.5M125.71,199.03v8.5M119.05,199.03v8.5M112.39,199.03v8.5M105.74,199.03v8.5M99.08,199.03v8.5M128.8,190.72v8.5M122.14,190.72v8.5M115.49,190.72v8.5M108.83,190.72v8.5M102.18,190.72v8.5M95.52,190.72v8.5M88.86,190.72v8.5M135.83,190.72v8.5M155.69,116.96v8.5M149.04,116.96v8.5M142.38,116.96v8.5M135.73,116.96v8.5M129.07,116.96v8.5M122.41,116.96v8.5M115.76,116.96v8.5M145.47,108.64v8.5M138.82,108.64v8.5M132.16,108.64v8.5M125.51,108.64v8.5M118.85,108.64v8.5M112.19,108.64v8.5M105.54,108.64v8.5M108.72,116.96v8.5M102.07,116.96v8.5M95.41,116.96v8.5M88.76,116.96v8.5M82.1,116.96v8.5M75.44,116.96v8.5M68.79,116.96v8.5M98.5,108.64v8.5M91.85,108.64v8.5M85.19,108.64v8.5M78.54,108.64v8.5M71.88,108.64v8.5M65.22,108.64v8.5M58.57,108.64v8.5"/>
  <g class="cls-42">
    <path class="cls-21" d="M316.28,179.32h-146.83c-8.14,0-14.8,7.02-14.8,15.59s6.66,15.59,14.8,15.59h146.83c8.14,0,14.8-7.02,14.8-15.59s-6.66-15.59-14.8-15.59"/>
  </g>
  <polygon class="cls-19" points="320.78 170.55 284.06 170.55 284.06 62.6 320.78 43.77 320.78 170.55"/>
  <polygon class="cls-16" points="310.32 49.14 310.32 170.55 320.78 170.55 320.78 43.77 310.32 49.14"/>
  <rect class="cls-47" x="289.69" y="73.4" width="2.85" height="4.43"/>
  <rect class="cls-47" x="295.75" y="73.4" width="2.85" height="4.43"/>
  <rect class="cls-47" x="301.81" y="73.4" width="2.85" height="4.43"/>
  <rect class="cls-47" x="289.69" y="82.04" width="2.85" height="4.43"/>
  <rect class="cls-47" x="295.75" y="82.04" width="2.85" height="4.43"/>
  <rect class="cls-47" x="301.81" y="82.04" width="2.85" height="4.43"/>
  <rect class="cls-47" x="289.69" y="90.69" width="2.85" height="4.43"/>
  <rect class="cls-47" x="295.75" y="90.69" width="2.85" height="4.43"/>
  <rect class="cls-47" x="301.81" y="90.69" width="2.85" height="4.43"/>
  <rect class="cls-47" x="289.69" y="99.33" width="2.85" height="4.43"/>
  <rect class="cls-47" x="295.75" y="99.33" width="2.85" height="4.43"/>
  <rect class="cls-47" x="301.81" y="99.33" width="2.85" height="4.43"/>
  <rect class="cls-47" x="289.69" y="107.97" width="2.85" height="4.43"/>
  <rect class="cls-47" x="295.75" y="107.97" width="2.85" height="4.43"/>
  <rect class="cls-47" x="301.81" y="107.97" width="2.85" height="4.43"/>
  <rect class="cls-47" x="289.69" y="116.61" width="2.85" height="4.43"/>
  <rect class="cls-47" x="295.75" y="116.61" width="2.85" height="4.43"/>
  <rect class="cls-47" x="301.81" y="116.61" width="2.85" height="4.43"/>
  <rect class="cls-47" x="289.69" y="125.25" width="2.85" height="4.43"/>
  <rect class="cls-47" x="295.75" y="125.25" width="2.85" height="4.43"/>
  <rect class="cls-47" x="301.81" y="125.25" width="2.85" height="4.43"/>
  <g class="cls-41">
    <path class="cls-34" d="M388.03,130.82c0-4.73-2.51-8.85-6.26-11.16,2.33-1.96,3.82-4.89,3.82-8.18,0-4.16-2.39-7.76-5.87-9.52.9-1.08,1.45-2.48,1.45-4,0-3.45-2.8-6.25-6.25-6.25s-6.25,2.8-6.25,6.25c0,1.52.54,2.91,1.45,4-3.48,1.76-5.87,5.36-5.87,9.52,0,3.28,1.48,6.22,3.82,8.18-3.75,2.31-6.26,6.44-6.26,11.16,0,6.79,5.16,12.38,11.78,13.05v12.82h2.67v-12.82c6.61-.67,11.78-6.25,11.78-13.05"/>
  </g>
  <polygon class="cls-15" points="354.76 149.85 320.85 149.85 332.66 129.47 366.58 129.47 354.76 149.85"/>
  <polygon class="cls-50" points="366.52 129.45 354.77 149.81 378.27 149.81 366.52 129.45"/>
  <rect class="cls-47" x="320.85" y="149.8" width="33.92" height="20.69"/>
  <rect class="cls-20" x="354.78" y="149.8" width="23.47" height="20.69"/>
  <rect class="cls-15" x="339.79" y="124.11" width="3.68" height="9.84"/>
  <polygon class="cls-15" points="394.72 154.51 368.46 154.51 377.6 138.74 403.86 138.74 394.72 154.51"/>
  <polygon class="cls-50" points="403.82 138.72 394.72 154.48 412.92 154.48 403.82 138.72"/>
  <rect class="cls-47" x="368.46" y="154.47" width="26.26" height="16.01"/>
  <rect class="cls-20" x="394.73" y="154.47" width="18.17" height="16.01"/>
  <rect class="cls-15" x="383.12" y="134.58" width="2.85" height="7.62"/>
  <g class="cls-27">
    <path class="cls-16" d="M213.01,45.69l5.14-.69-5.35-.72c-.38-.88-1.25-1.49-2.27-1.49-1.13,0-2.12.77-2.4,1.88l-.84,3.34c-1.08,0-2.14.5-2.81,1.45l-6.76,9.64,4.17-1.75-.64.87-6.61,8.08c.53.24,5.69-4.29,5.88-4.41,2.06-1.24,3.89-1.55,5.61-2.1v.91h0l3.24,2.67h.79l-2.95-2.67h0l.39-1.47c.72-.34,1.42-.78,2.12-1.41l2.24,1.85h.79l-2.55-2.31c2.19-2.3,2.81-5.85,2.81-7.21,0-.62,0-1.1-.01-1.47h.01v-2.98Z"/>
    <path class="cls-15" d="M209.76,44.7c0-.36.29-.66.66-.66s.66.29.66.66-.29.66-.66.66-.66-.29-.66-.66"/>
    <circle class="cls-11" cx="210.42" cy="44.7" r=".66"/>
  </g>
  <polyline class="cls-15" points="359 193.27 358.01 217.84 350 217.51 350.98 192.94"/>
  <polyline class="cls-15" points="359.04 193.27 360.03 217.84 368.04 217.51 367.06 192.94"/>
  <polygon class="cls-14" points="351.62 218.77 343.1 223.67 357.31 223.67 357.75 219.05 351.62 218.77"/>
  <polygon class="cls-14" points="366.17 218.77 374.68 223.67 360.48 223.67 360.03 219.05 366.17 218.77"/>
  <g class="cls-24">
    <path class="cls-14" d="M358.66,177.48h0c-3.37,0-6.13-2.76-6.13-6.13v-9.51c0-3.37,2.76-6.13,6.13-6.13s6.14,2.76,6.14,6.13v9.51c0,3.37-2.76,6.13-6.14,6.13"/>
  </g>
  <polygon class="cls-19" points="369.89 195.55 347.63 195.55 349.71 168.75 367.81 168.75 369.89 195.55"/>
  <g class="cls-31">
    <path class="cls-7" d="M350.99,171.84c-4.33-1.05-11.08,0-12.01,6.43-.7,4.83,1.72,7.25,4.98,9.24"/>
    <path class="cls-48" d="M338.15,193.65s5.95,14.79,9.01,14.44c0,0,0,0,0,0,0,0,.01,0,.02,0,0,0,.01,0,.02,0h0c3.04-.6,6.11-16.77,6.11-16.77l-4.77.74.1,1.04-5.61.86-.1-1.04-4.77.74Z"/>
  </g>
  <polygon class="cls-48" points="347.16 194.97 343.97 160.62 341.59 160.98 344.78 195.34 347.16 194.97"/>
  <g class="cls-29">
    <path class="cls-13" d="M364.96,161.07c0-3.45-2.8-6.25-6.25-6.25s-6.25,2.8-6.25,6.25h12.51Z"/>
  </g>
  <line class="cls-5" x1="346.88" y1="161.04" x2="370.54" y2="161.04"/>
  <g class="cls-30">
    <path class="cls-14" d="M341.75,188.37c0-1.37,1.11-2.48,2.48-2.48s2.48,1.11,2.48,2.48-1.11,2.48-2.48,2.48-2.48-1.11-2.48-2.48"/>
    <path class="cls-14" d="M346.43,188.68l-2.03-.99c-.49-.24-.73-.8-.52-1.25.21-.45.78-.61,1.27-.37l2.03.99c.49.24.73.8.52,1.25h0c-.21.45-.78.61-1.27.37"/>
    <path class="cls-14" d="M345.82,190.13l-2.03-.99c-.49-.24-.73-.8-.52-1.25.21-.45.78-.61,1.27-.37l2.03.99c.49.24.73.8.52,1.25-.21.45-.78.61-1.27.37"/>
    <path class="cls-21" d="M212.37,121.65s-.73,6.65-6.4,6.65h-51.02s-14.17,0-14.17,8.5,14.17,8.5,14.17,8.5h96.38s22.68,0,22.68,17.01-22.68,28.35-22.68,28.35h-22.68v-11.34h8.5s11.34-2.83,11.34-17.01c0-8.5-17.01-8.5-17.01-8.5h-76.54s-25.51,0-25.51-17.01,25.51-17.01,25.51-17.01c0,0,48.22.02,48.19,0,1.75.46,7.51,1.86,9.23,1.86"/>
    <path class="cls-48" d="M188.61,155.42l-.07,2.41c0,.27-.05.55-.14.81l-1.41,3.94h-1.58c.64-.99,1.47-1.99,1.42-3.43-.05-1.25-.75-2.03-1.48-2.74l3.26-.98Z"/>
    <path class="cls-48" d="M161.41,142.95c.9-.41,3.6-1.71,3.6-1.71.87-.38,2.64-.6,3.51.2.29.26.81.78,1.41,1.38.58,0,1.1.32,1.53.75h7.1c8.69,0,10.6,2.89,10.6,7.08l-.54,4.8c-.61,0-2.49,1.29-2.85,2.52-.17.56-.28,1.49-.45,1.95l-1.3,2.65h-1.63c.64-.99,1.42-2.17,1.42-3.43,0-.98-.23-1.9-.62-2.73h-10.2l-.37,6.17h-.74l-.13-2.18c-.09-1.49-.23-2.98-2.12-5.97-1.45-2.3-3.26-4.73-4.11-7.61-.7-.25-2.92-1.05-3.62-1.3-.98-.36-1.5-.63-1.5-1.2,0-.65.17-.98,1.02-1.36"/>
  </g>
  <polygon class="cls-48" points="174.95 156.4 174.57 162.58 173.84 162.58 173.27 156.4 173.09 156.4 174.95 156.4"/>
  <g class="cls-28">
    <path class="cls-48" d="M93.72,143.46l.07,2.41c0,.27.05.55.14.81l1.41,3.94h1.58c-.64-.99-1.48-1.99-1.42-3.43.05-1.25.75-2.03,1.48-2.74l-3.26-.98Z"/>
    <path class="cls-48" d="M120.92,130.99c-.9-.41-3.6-1.71-3.6-1.71-.87-.38-2.64-.6-3.51.2-.28.26-.81.78-1.41,1.38-.58,0-1.1.32-1.53.75h-7.1c-8.69,0-10.6,2.89-10.6,7.08l.54,4.8c.61,0,2.49,1.29,2.85,2.52.17.56.28,1.49.45,1.95l1.3,2.65h1.63c-.64-.99-1.42-2.17-1.42-3.43,0-.98.23-1.9.62-2.73h10.2l.37,6.17h.74l.13-2.18c.09-1.49.23-2.98,2.12-5.97,1.45-2.3,3.26-4.73,4.11-7.61.7-.25,2.92-1.05,3.62-1.3.98-.36,1.5-.63,1.5-1.2,0-.65-.17-.98-1.02-1.37"/>
  </g>
  <polygon class="cls-48" points="107.39 144.44 107.76 150.61 108.5 150.61 109.06 144.44 109.25 144.44 107.39 144.44"/>
  <g class="cls-25">
    <path class="cls-16" d="M240.2,117.82c-.72-1.06-2.17-1.33-3.23-.61-1.06.72-1.33,2.17-.61,3.23l3.84-2.62Z"/>
    <path class="cls-47" d="M240.22,117.8l-3.85,2.62c-.45,1.22-.31,2.66.49,3.84,1.31,1.91,3.87,2.44,5.74,1.17,1.86-1.27,2.32-3.85,1.01-5.77-.8-1.18-2.09-1.83-3.39-1.86"/>
  </g>
  <line class="cls-3" x1="238.28" y1="119.09" x2="242.62" y2="125.44"/>
  <g class="cls-22">
    <path class="cls-12" d="M238,117.12c-.05-.15-.3-.89.06-1.71.34-.76.99-1.08,1.15-1.15"/>
  </g>
  <path class="cls-9" d="M243.66,122.55l.83-.08,1.2,1.51,1.18.32M243.36,119.73l.49-.58,1.25,1.37.97.05M241.33,118.29l.42-.31-.79-1.15.42-.82"/>
  <g class="cls-26">
    <path class="cls-12" d="M236.45,118.18c-.12-.11-.72-.61-1.61-.57-.84.04-1.37.53-1.49.65"/>
  </g>
  <path class="cls-9" d="M239.44,125.43l-.37.74.96,1.67-.13,1.21M236.92,124.12l-.71.24.82,1.67-.3.92M236.32,121.71l-.45.28-.79-1.15-.92.09"/>
  <g class="cls-23">
    <path class="cls-13" d="M220.07,118.87s.87,3.85-1.71,5.6c-.02.02-1.94-1.73-1.94-1.73,0,0,2.8-.93,3.65-3.87"/>
    <path class="cls-13" d="M188.5,130.5l-2.11.56c-.61-1.85.47-5.49.5-5.85.71-7.61,6.99-8.02,8.92-8.02,1.51,0,5.81-.84,7.15-.94,2.44-.19,3.37-.96,6-1.81.47-.15,2.38-.29,2.38-.3l-.06-1.81s1.57.24,2.39,1.82c0,.01,1.34-.21,2.29.47,1.11.79,1.42,1.28,1.68,1.85.25.56.53,1.63.78,2.1,0,0,1.4,2.6,4.51,3.87.02,0-1.58,3.18-1.58,3.18,0,0-1.94-.51-1.94-.49,0,0-.76.71-1.01.82-.82.34-1.79.5-3.54-.37-1.93,4.15-3.11,8.42-1.4,12.59,0,0-2.14,0-2.14,0,0,0-2.34-5.02-.85-7.8-1.83,3.42-1.52,7.8-1.52,7.8h-2.52s0-3.05-.09-4.06c-.08-.95-.54-3.76-.54-3.76-4.35,1.84-7.61.76-8.73-.22-.02-.02.19,2.99-2.73,3.88-.79,3.07.82,4.16.82,4.16h-2.73l-.75-4.75c-3.21.93-1.25,4.75-1.25,4.75h-1.56c-3.56-5.32.57-7.2,1.08-8.72.18-.54-1.05-4.36-.88-4.86-.31.09-1.66,3.28-.59,5.91"/>
    <path class="cls-48" d="M194.7,119.71h.78c.23,0,.42-.19.42-.42s-.19-.42-.42-.42h-.78c-.23,0-.42.19-.42.42s.19.42.42.42"/>
    <path class="cls-48" d="M199.83,119.71h.78c.23,0,.42-.19.42-.42s-.19-.42-.42-.42h-.78c-.23,0-.42.19-.42.42s.19.42.42.42"/>
    <path class="cls-48" d="M205.41,119.71h.78c.23,0,.42-.19.42-.42s-.19-.42-.42-.42h-.78c-.23,0-.42.19-.42.42s.19.42.42.42"/>
    <path class="cls-48" d="M208.7,117.34h.78c.23,0,.42-.19.42-.42s-.19-.42-.42-.42h-.78c-.23,0-.42.19-.42.42s.19.42.42.42"/>
    <path class="cls-48" d="M197.51,122.41h.78c.23,0,.42-.19.42-.42s-.19-.42-.42-.42h-.78c-.23,0-.42.19-.42.42s.19.42.42.42"/>
    <path class="cls-48" d="M191.02,122.41h.78c.23,0,.42-.19.42-.42s-.19-.42-.42-.42h-.78c-.23,0-.42.19-.42.42s.19.42.42.42"/>
    <path class="cls-48" d="M203.41,122.41h.78c.23,0,.42-.19.42-.42s-.19-.42-.42-.42h-.78c-.23,0-.42.19-.42.42s.19.42.42.42"/>
    <path class="cls-48" d="M193.77,124.52h.78c.23,0,.42-.19.42-.42s-.19-.42-.42-.42h-.78c-.23,0-.42.19-.42.42s.19.42.42.42"/>
    <path class="cls-48" d="M200.21,124.52h.78c.23,0,.42-.19.42-.42s-.19-.42-.42-.42h-.78c-.23,0-.42.19-.42.42s.19.42.42.42"/>
    <path class="cls-47" d="M135.88,174.88c.32.23.46.64.34,1.01-.27.84-1.03,2.33-3.15,3.04-2.27.76-3.8-.14-4.45-.65-.23-.18-.32-.47-.25-.75.22-.81.93-2.49,3.17-3.23,2.09-.7,3.61.06,4.34.58"/>
    <path class="cls-47" d="M120.82,174.88c-.32.23-.46.64-.34,1.01.27.84,1.03,2.33,3.15,3.04,2.27.76,3.8-.14,4.45-.65.23-.18.32-.47.25-.75-.22-.81-.93-2.49-3.17-3.23-2.09-.7-3.61.06-4.34.58"/>
    <path class="cls-47" d="M135.88,169.44c.32.23.46.64.34,1.01-.27.84-1.03,2.33-3.15,3.04-2.27.76-3.8-.14-4.45-.65-.23-.18-.32-.47-.25-.75.22-.81.93-2.49,3.17-3.23,2.09-.7,3.61.06,4.34.58"/>
    <path class="cls-47" d="M120.82,169.44c-.32.23-.46.64-.34,1.01.27.84,1.03,2.33,3.15,3.04,2.27.76,3.8-.14,4.45-.65.23-.18.32-.47.25-.75-.22-.81-.93-2.49-3.17-3.23-2.09-.7-3.61.06-4.34.58"/>
    <path class="cls-47" d="M135.88,164c.32.23.46.64.34,1.01-.27.84-1.03,2.33-3.15,3.04-2.27.76-3.81-.14-4.45-.65-.23-.18-.32-.47-.25-.75.22-.81.93-2.49,3.17-3.23,2.09-.7,3.61.06,4.34.58"/>
    <path class="cls-47" d="M120.82,164c-.32.23-.46.64-.34,1.01.27.84,1.03,2.33,3.15,3.04,2.27.76,3.8-.14,4.45-.65.23-.18.32-.47.25-.75-.22-.81-.93-2.49-3.17-3.23-2.09-.7-3.61.06-4.34.58"/>
    <path class="cls-47" d="M135.88,158.56c.32.23.46.64.34,1.01-.27.84-1.03,2.33-3.15,3.04-2.27.76-3.81-.14-4.45-.65-.23-.18-.32-.47-.25-.75.22-.81.93-2.49,3.17-3.23,2.09-.7,3.61.06,4.34.58"/>
    <path class="cls-47" d="M120.82,158.56c-.32.23-.46.64-.34,1.01.27.84,1.03,2.33,3.15,3.04,2.27.76,3.8-.14,4.45-.65.23-.18.32-.47.25-.75-.22-.81-.93-2.49-3.17-3.23-2.09-.7-3.61.06-4.34.58"/>
    <path class="cls-47" d="M135.88,153.11c.32.23.46.64.34,1.01-.27.84-1.03,2.33-3.15,3.04-2.27.76-3.8-.14-4.45-.65-.23-.18-.32-.47-.25-.75.22-.81.93-2.49,3.17-3.23,2.09-.7,3.61.06,4.34.58"/>
    <path class="cls-47" d="M120.82,153.11c-.32.23-.46.64-.34,1.01.27.84,1.03,2.33,3.15,3.04,2.27.76,3.8-.14,4.45-.65.23-.18.32-.47.25-.75-.22-.81-.93-2.49-3.17-3.23-2.09-.7-3.61.06-4.34.58"/>
  </g>
  <line class="cls-6" x1="128.35" y1="144.36" x2="128.35" y2="187.83"/>
  <path class="cls-10" d="M136.08,144.59v9.5M120.59,144.59v9.5"/>
  <g class="cls-32">
    <path class="cls-47" d="M155.71,174.88c.32.23.46.64.34,1.01-.27.84-1.03,2.33-3.15,3.04-2.27.76-3.8-.14-4.45-.65-.23-.18-.32-.47-.25-.75.22-.81.93-2.49,3.17-3.23,2.09-.7,3.61.06,4.34.58"/>
    <path class="cls-47" d="M140.65,174.88c-.32.23-.46.64-.34,1.01.27.84,1.03,2.33,3.15,3.04,2.27.76,3.81-.14,4.45-.65.23-.18.32-.47.25-.75-.22-.81-.93-2.49-3.17-3.23-2.09-.7-3.61.06-4.34.58"/>
    <path class="cls-47" d="M155.71,169.44c.32.23.46.64.34,1.01-.27.84-1.03,2.33-3.15,3.04-2.27.76-3.8-.14-4.45-.65-.23-.18-.32-.47-.25-.75.22-.81.93-2.49,3.17-3.23,2.09-.7,3.61.06,4.34.58"/>
    <path class="cls-47" d="M140.65,169.44c-.32.23-.46.64-.34,1.01.27.84,1.03,2.33,3.15,3.04,2.27.76,3.81-.14,4.45-.65.23-.18.32-.47.25-.75-.22-.81-.93-2.49-3.17-3.23-2.09-.7-3.61.06-4.34.58"/>
    <path class="cls-47" d="M155.71,164c.32.23.46.64.34,1.01-.27.84-1.03,2.33-3.15,3.04-2.27.76-3.8-.14-4.45-.65-.23-.18-.32-.47-.25-.75.22-.81.93-2.49,3.17-3.23,2.09-.7,3.61.06,4.34.58"/>
    <path class="cls-47" d="M140.65,164c-.32.23-.46.64-.34,1.01.27.84,1.03,2.33,3.15,3.04,2.27.76,3.8-.14,4.45-.65.23-.18.32-.47.25-.75-.22-.81-.93-2.49-3.17-3.23-2.09-.7-3.61.06-4.34.58"/>
    <path class="cls-47" d="M155.71,158.56c.32.23.46.64.34,1.01-.27.84-1.03,2.33-3.15,3.04-2.27.76-3.8-.14-4.45-.65-.23-.18-.32-.47-.25-.75.22-.81.93-2.49,3.17-3.23,2.09-.7,3.61.06,4.34.58"/>
    <path class="cls-47" d="M140.65,158.56c-.32.23-.46.64-.34,1.01.27.84,1.03,2.33,3.15,3.04,2.27.76,3.8-.14,4.45-.65.23-.18.32-.47.25-.75-.22-.81-.93-2.49-3.17-3.23-2.09-.7-3.61.06-4.34.58"/>
    <path class="cls-47" d="M155.71,153.11c.32.23.46.64.34,1.01-.27.84-1.03,2.33-3.15,3.04-2.27.76-3.8-.14-4.45-.65-.23-.18-.32-.47-.25-.75.22-.81.93-2.49,3.17-3.23,2.09-.7,3.61.06,4.34.58"/>
    <path class="cls-47" d="M140.65,153.11c-.32.23-.46.64-.34,1.01.27.84,1.03,2.33,3.15,3.04,2.27.76,3.8-.14,4.45-.65.23-.18.32-.47.25-.75-.22-.81-.93-2.49-3.17-3.23-2.09-.7-3.61.06-4.34.58"/>
  </g>
  <line class="cls-6" x1="148.18" y1="144.36" x2="148.18" y2="187.83"/>
  <path class="cls-10" d="M155.91,144.59v9.5M140.42,144.59v9.5"/>
  <g class="cls-33">
    <path class="cls-44" d="M216.82,95.77s2.15-1.08,2.15-4.38-2.15-4.33-2.15-4.33c0,0-2.18,1.13-2.18,4.36s2.18,4.36,2.18,4.36M209.53,92.27s2.19,1.01,4.76-1.05c2.57-2.05,2.05-4.38,2.05-4.38,0,0-2.24-1-4.76,1.01-2.53,2.01-2.05,4.42-2.05,4.42M207.72,84.39s.58,2.34,3.79,3.07c3.21.73,4.71-1.13,4.71-1.13,0,0-.61-2.38-3.76-3.09-3.15-.72-4.73,1.15-4.73,1.15M212.75,78.06s-1.47,1.91-.04,4.88c1.43,2.97,3.82,2.97,3.82,2.97,0,0,1.48-1.96.07-4.87-1.4-2.91-3.85-2.98-3.85-2.98M220.84,78.05s-2.41.04-3.84,3.01c-1.43,2.97.06,4.84.06,4.84,0,0,2.45-.07,3.85-2.98,1.4-2.91-.07-4.87-.07-4.87M225.89,84.36s-1.54-1.86-4.75-1.12c-3.21.73-3.75,3.06-3.75,3.06,0,0,1.58,1.87,4.73,1.15,3.15-.72,3.76-3.09,3.76-3.09M224.1,92.25s.49-2.36-2.08-4.41c-2.58-2.05-4.73-1.02-4.73-1.02,0,0-.48,2.41,2.05,4.42,2.52,2.01,4.76,1.01,4.76,1.01"/>
    <path class="cls-8" d="M214.46,81.03c.04.94.25,2.35,1.13,3.88.38.66.81,1.21,1.22,1.65"/>
    <path class="cls-14" d="M213.85,80.89c0-.33.27-.6.6-.6s.6.27.6.6-.27.6-.6.6-.6-.27-.6-.6"/>
    <path class="cls-8" d="M219.35,81.25c-.68.65-1.59,1.76-2.13,3.43-.24.73-.36,1.41-.41,2.01"/>
    <path class="cls-14" d="M219.05,80.7c.25-.22.63-.2.85.05.22.25.2.63-.05.85-.25.22-.63.2-.85-.04-.22-.25-.2-.63.05-.85"/>
    <path class="cls-8" d="M222.72,85.27c-.93-.13-2.36-.18-4.01.42-.72.26-1.34.58-1.85.91"/>
    <path class="cls-14" d="M222.97,84.7c.33.06.54.37.49.7-.06.33-.37.54-.7.49-.33-.06-.54-.37-.49-.7.06-.33.37-.54.7-.49"/>
    <path class="cls-8" d="M221.63,90.05c-.52-.78-1.45-1.88-2.99-2.71-.67-.36-1.33-.6-1.91-.77"/>
    <path class="cls-14" d="M222.22,89.85c.17.28.09.65-.2.83-.28.17-.65.09-.83-.2-.17-.28-.09-.65.2-.83.28-.17.65-.09.83.2"/>
    <path class="cls-8" d="M216.76,92.57c.35-.87.73-2.25.54-4-.08-.76-.25-1.43-.45-2.01"/>
    <path class="cls-14" d="M217.25,92.94c-.13.3-.49.44-.8.31-.3-.14-.44-.49-.31-.8.13-.3.49-.44.8-.31.31.14.44.49.31.8"/>
    <path class="cls-8" d="M212.37,90.39c.88-.33,2.16-.97,3.34-2.27.51-.57.9-1.15,1.19-1.67"/>
    <path class="cls-14" d="M212.42,91.01c-.32.1-.66-.07-.76-.39-.1-.32.07-.66.39-.76.32-.1.66.07.76.39.1.32-.07.66-.39.76"/>
    <path class="cls-8" d="M211.12,84.63c.72.6,1.91,1.39,3.63,1.76.74.16,1.44.21,2.05.2"/>
    <path class="cls-14" d="M210.61,84.98c-.25-.22-.27-.6-.04-.85.22-.25.6-.27.85-.04.25.22.27.6.04.85-.22.25-.61.27-.85.04"/>
    <path class="cls-14" d="M215.6,86.56c0-.67.54-1.21,1.21-1.21s1.21.54,1.21,1.21-.54,1.21-1.21,1.21-1.21-.54-1.21-1.21"/>
  </g>
</svg>