<?xml version="1.0" encoding="UTF-8"?>
<svg id="Layer_2" data-name="Layer 2" xmlns="http://www.w3.org/2000/svg" xmlns:xlink="http://www.w3.org/1999/xlink" viewBox="0 0 463.73 197.6">
  <defs>
    <clipPath id="clippath">
      <rect width="463.73" height="197.6" style="fill: none;"/>
    </clipPath>
  </defs>
  <g id="Ebene_1" data-name="Ebene 1">
    <g>
      <g style="clip-path: url(#clippath);">
        <path d="M374.79,131.17c-19.02,0-35.22-12.26-35.22-33.53s16.2-33.53,35.22-33.53h2.25c19.02,0,35.08,12.26,35.08,33.53s-16.06,33.53-35.08,33.53h-2.25ZM375.92,148.36c31.98,0,55.79-19.16,55.79-50.71s-23.81-50.71-55.79-50.71-55.93,19.16-55.93,50.71,23.95,50.71,55.93,50.71M237.44,65.53h33.39c9.3,0,14.79,5.49,14.79,13.38,0,8.59-5.49,13.52-14.79,13.52h-33.39v-26.91ZM237.44,146.95v-37.33h39.16c6.62,0,8.59,1.83,8.59,8.45v28.88h19.44v-33.11c0-9.86-3.52-14.51-13.81-14.51,8.03-2.82,15.78-11.41,15.78-24.09,0-15.5-13.95-26.91-33.67-26.91h-54.94v98.61h19.44ZM132.77,104.83h59.31v-17.19h-59.31v-22.12h67.76v-17.19h-87.2v98.61h88.61v-17.19h-69.17v-24.93ZM96.01,65.53v-17.19H9.37v17.19h60.29L7.96,129.76v17.19h89.45v-17.19h-63.11l61.7-64.24Z" style="fill: #c0d100;"/>
        <path d="M376.53,120.41c12.59,0,20.71-6.33,22.11-15.34h-9.27c-1.21,5.05-6.2,7.54-12.34,7.54h-1.02c-9.72,0-15.47-6.71-15.47-15.21s5.75-15.21,15.47-15.21h1.02c6.14,0,11.19,2.68,12.34,7.54h9.27c-1.28-8.24-8.95-15.34-22.11-15.34-15.21,0-24.86,9.91-24.86,23.01s9.33,23.01,24.86,23.01" style="fill: #fff;"/>
        <path d="M453.28,142.29c6.29-3.9,10.19-7.28,10.19-12.95,0-6.5-5.98-10.35-14.35-10.35s-14.25,4.78-14.46,11.91h7.28c.16-3.17,2.6-5.82,6.81-5.82h.73c4.16,0,6.86,1.87,6.86,4.63,0,2.6-1.98,4.42-6.71,7.38l-15.34,9.57v9.26h29.43v-6.34h-22.15l11.7-7.28Z" style="fill: #fff;"/>
        <path d="M299.79,188.57c6.88,0,10.36-2.67,10.36-6.66s-3.05-6.02-7.83-6.92l-3.35-.65c-2.62-.52-3.18-.99-3.18-1.85,0-.99,1.29-1.68,3.7-1.68h.6c2.92,0,4.51,1.29,4.69,2.92h5.81c-.34-4.56-3.7-7.52-10.79-7.52-5.42,0-9.76,2.36-9.76,6.71,0,4.04,2.92,5.76,7.65,6.71l3.57.69c2.45.47,3.14,1.03,3.14,1.89,0,1.25-1.63,1.76-4.3,1.76h-.6c-2.45,0-4.51-.9-4.69-2.92h-5.81c.26,4.6,4,7.53,10.79,7.53M287.27,188.14v-4.73h-5.85c-1.29,0-1.72-.43-1.72-1.72v-10.45h6.62v-4.6h-6.62v-6.97h-5.72v6.97h-5.2v4.6h5.2v12.17c0,3.01,1.59,4.73,5.5,4.73h7.78ZM249.65,188.14v-10.84c0-3.91,2.97-6.49,6.15-6.49h.6c3.01,0,4.34,2.15,4.34,5.29v12.04h5.72v-13.07c0-5.12-3.14-8.86-9.2-8.86-3.78,0-6.19,1.55-7.61,3.57v-11.74h-5.72v30.1h5.72ZM226,183.54c-3.22,0-5.93-1.85-5.93-6.36s2.88-6.36,6.15-6.36h.6c3.18,0,6.15,2.41,6.15,6.36s-3.18,6.36-6.36,6.36h-.6ZM225.91,197.6c8.43,0,12.77-4.39,12.77-9.93v-21.03h-5.72v2.71c-1.25-1.51-3.44-3.14-7.52-3.14-5.72,0-11.14,3.44-11.14,10.97s5.5,10.97,11.18,10.97c4.04,0,6.19-1.72,7.48-3.23v2.24c0,3.96-2.97,5.85-6.75,5.85h-.6c-3.18,0-5.46-.86-6.02-2.49h-5.89c.52,4.13,4.77,7.09,12.21,7.09M210.35,166.64h-5.72v21.5h5.72v-21.5ZM210.56,158.04h-6.15v5.98h6.15v-5.98ZM178.36,163.29h10.19c2.84,0,4.51,1.68,4.51,4.08,0,2.62-1.68,4.13-4.51,4.13h-10.19v-8.21ZM178.36,188.14v-11.4h11.95c2.02,0,2.62.56,2.62,2.58v8.82h5.93v-10.1c0-3.01-1.07-4.43-4.21-4.43,2.45-.86,4.82-3.48,4.82-7.35,0-4.73-4.26-8.21-10.28-8.21h-16.77v30.1h5.93ZM143.05,183.97c-3.65,0-6.28-2.32-6.28-6.58s2.62-6.58,6.28-6.58h.6c3.74,0,6.62,2.32,6.62,6.58s-2.88,6.58-6.62,6.58h-.6ZM142.28,188.57c3.57,0,6.49-1.2,8-3.14v2.71h5.72v-30.1h-5.72v11.44c-1.38-1.81-4.04-3.27-8.08-3.27-6.15,0-11.18,3.83-11.18,11.18,0,6.97,4.99,11.18,11.27,11.18M110.46,188.14v-10.84c0-3.91,2.97-6.49,6.15-6.49h.6c3.01,0,4.34,2.15,4.34,5.29v12.04h5.72v-13.07c0-5.12-3.01-8.86-9.2-8.86-4,0-6.32,1.76-7.61,3.57v-3.14h-5.72v21.5h5.72ZM87.28,183.97c-2.58,0-3.61-.86-3.61-2.32,0-1.38,1.2-2.32,4.56-2.58l5.93-.43v1.33c0,2.79-3.31,4-6.28,4h-.6ZM86.85,188.57c3.83,0,6.54-1.89,7.53-3.83,0,.21.09,2.32.3,3.4h5.29c-.17-1.51-.3-3.44-.3-4.73v-9.03c0-4.77-3.74-8.17-10.79-8.17-5.85,0-9.93,3.01-10.36,7.09h5.81c.26-1.59,1.98-2.49,4.26-2.49h.69c3.1,0,4.9,1.12,4.9,3.18v.52l-7.31.52c-5.03.3-8.94,2.28-8.94,7.18,0,3.7,3.18,6.36,8.94,6.36M76.28,188.14v-5.25h-20.17v-24.85h-5.93v30.1h26.1ZM16.68,184.06c-4,0-5.89-2.11-5.89-4.21,0-1.94,1.25-2.84,2.8-3.48l1.63-.64,7.53,6.62c-1.68,1.12-3.7,1.72-6.06,1.72M17.28,162.13c2.67,0,3.83,1.42,3.83,3.35,0,2.24-1.85,3.74-4.39,4.64l-.3.09c-1.59-1.42-2.88-2.8-2.88-4.73s1.12-3.35,3.74-3.35M30.05,182.3c1.98-2.71,3.14-6.19,3.14-10.19v-1.16h-5.38v.95c0,2.58-.6,4.95-1.72,6.88l-5.81-5.12c4.04-1.72,6.49-4.6,6.49-8.43,0-4.82-4.39-7.61-9.5-7.61s-9.42,2.92-9.42,7.4c0,3.22,1.25,5.12,3.35,7.14-4.17,1.68-6.11,4.34-6.11,7.74,0,5.33,4.17,8.69,11.7,8.69,3.74,0,7.05-1.03,9.72-2.84l2.75,2.41h7.35l-6.58-5.85Z" style="fill: #c0d100;"/>
      </g>
      <path d="M93.45,38.1V13.25h12.13v-5.25h-30.19v5.25h12.13v24.85h5.93ZM51.48,25.24h18.1v-5.25h-18.1v-6.75h20.68v-5.25h-26.62v30.1h27.05v-5.25h-21.11v-7.61ZM31.96,30.1L16.57,8h-7.57v30.1h5.93V15.61l15.65,22.49h7.31V8h-5.93v22.1Z" style="fill: #c0d100;"/>
    </g>
  </g>
</svg>