<?xml version="1.0" encoding="UTF-8"?>
<svg id="Layer_2" data-name="Layer 2" xmlns="http://www.w3.org/2000/svg" viewBox="0 0 283.46 116.22">
  <g id="Robert_Bosch_Stiftung_Logo" data-name="Robert Bosch Stiftung Logo">
    <g>
      <polygon points="31.9 37.59 17.98 37.59 17.98 23.67 24.94 23.67 31.9 23.67 31.9 37.59" style="fill: #fff;"/>
      <polygon points="0 55.56 13.92 55.56 13.92 23.67 6.96 23.67 0 23.67 0 55.56" style="fill: #fff;"/>
      <polygon points="35.96 55.56 49.87 55.56 49.87 0 42.91 0 35.96 0 35.96 55.56" style="fill: #fff;"/>
      <path d="M53.93,23.67v31.9c8.81,0,15.95-7.14,15.95-15.95s-7.14-15.95-15.95-15.95Z" style="fill: #fff;"/>
      <g>
        <path d="M93.66,55.56c5.76,0,8.89,1.88,8.89,5.34,0,2.85-2.12,4.64-6.28,5.22,1.97.36,3,1.15,4.34,3.34l2.61,4.31c.76,1.15,1.12,1.37,2.55,1.52v1.15h-6.89l-4.64-8.01c-.7-1.18-1.4-1.67-2.46-1.67h-.33v7.22c0,.85.39,1.03,2.76,1.3v1.15h-10.41v-1.15c2.06-.27,2.49-.49,2.49-1.3v-15.97c0-.79-.39-1-2.49-1.31v-1.15h9.86ZM91.45,65.43h1.55c2.85,0,4.22-1.4,4.22-4.31s-1.33-4.28-3.85-4.28h-1.91v8.59Z" style="fill: #fff;"/>
        <path d="M119.55,62.24c1.82,1.52,2.79,3.67,2.79,6.31,0,2.85-1.15,5.16-3.31,6.68-1.46,1.03-3.22,1.58-5.01,1.58s-3.88-.76-5.34-1.97c-1.79-1.49-2.76-3.7-2.76-6.31,0-2.88,1.18-5.25,3.34-6.74,1.4-.97,3.25-1.55,4.85-1.55,1.91,0,3.94.76,5.43,2ZM110.81,68.64c0,4.55,1.09,6.83,3.31,6.83s3.34-2.16,3.34-6.98-1.06-6.95-3.31-6.95-3.34,2.28-3.34,7.1Z" style="fill: #fff;"/>
        <path d="M129.96,63.12c1.43-1.94,3.19-2.88,5.31-2.88,3.88,0,6.22,3.07,6.22,8.1,0,2.97-.88,5.16-2.7,6.71-1.33,1.12-3.22,1.76-5.13,1.76-2.06,0-3.82-.76-5.46-2.34l-2.06,1.97h-.94v-19.39c0-1-.58-1.34-2.43-1.43v-1.09l5.92-1.64h1.27v10.23ZM129.96,70.16c0,3.25,1.15,4.98,3.37,4.98s3.28-2.03,3.28-6.53c0-4.1-1.03-5.95-3.31-5.95-2,0-3.34,1.55-3.34,3.92v3.58Z" style="fill: #fff;"/>
        <path d="M158.84,72.98c-1.4,2.49-3.7,3.82-6.67,3.82-4.94,0-8.31-3.34-8.31-8.29s3.31-8.29,8.1-8.29c2.24,0,4.1.79,5.31,2.25,1.18,1.43,1.64,2.88,1.73,5.77h-10.28v.27c0,4.37,1.46,6.4,4.55,6.4,2,0,3.28-.7,4.58-2.52l1,.58ZM154.02,66.1c0-3.16-.73-4.55-2.37-4.55-1.88,0-2.67,1.49-2.91,5.4h5.28v-.85Z" style="fill: #fff;"/>
        <path d="M166.86,60.39l.42,3.34c1.37-2.34,2.94-3.49,4.79-3.49s2.82.94,2.82,2.52-1,2.58-2.73,2.58h-1.24v-2.03c-.3-.21-.45-.27-.85-.27-1.55,0-2.55,1.61-2.55,4.07v7.22c0,.67.21.82,1.7,1.03v1.09h-8.34v-1.09c1.67-.21,1.88-.33,1.88-1.03v-9.99c0-1-.58-1.34-2.31-1.37v-1.06l5.19-1.52h1.21Z" style="fill: #fff;"/>
        <path d="M187.61,72.89c-.85,2.64-2.43,3.92-4.92,3.92-2.91,0-4.61-1.64-4.61-4.49v-10.14h-1.94v-1.46l.61-.09c2.58-.39,4.28-2.19,4.79-5.07h1.3v5.04h4.13v1.58h-4.13v10.84c0,1.24.42,1.82,1.34,1.82,1.03,0,1.61-.55,2.37-2.34l1.06.39Z" style="fill: #fff;"/>
        <path d="M207.21,65.15c2.28.12,3.55.42,4.88,1.21,1.64,1,2.55,2.49,2.55,4.28,0,3.73-3.85,5.8-10.8,5.8h-8.49v-1.15c2.06-.27,2.49-.49,2.49-1.3v-15.97c0-.79-.39-1-2.49-1.31v-1.15h8.89c6.04,0,8.8,1.49,8.8,4.77,0,2.46-1.88,3.98-5.82,4.67v.15ZM204.18,64.67c2.52,0,3.7-1.24,3.7-3.85s-1.24-4.01-3.79-4.01h-1.09v7.86h1.18ZM202.99,74.23c0,.79.42,1,1.82,1,2.73,0,4.28-1.67,4.28-4.64s-1.73-4.58-4.61-4.58h-1.49v8.22Z" style="fill: #fff;"/>
        <path d="M230.33,62.24c1.82,1.52,2.79,3.67,2.79,6.31,0,2.85-1.15,5.16-3.31,6.68-1.46,1.03-3.21,1.58-5.01,1.58s-3.88-.76-5.34-1.97c-1.79-1.49-2.76-3.7-2.76-6.31,0-2.88,1.18-5.25,3.34-6.74,1.4-.97,3.25-1.55,4.85-1.55,1.91,0,3.94.76,5.43,2ZM221.6,68.64c0,4.55,1.09,6.83,3.31,6.83s3.34-2.16,3.34-6.98-1.06-6.95-3.31-6.95-3.34,2.28-3.34,7.1Z" style="fill: #fff;"/>
        <path d="M244.75,64.49c-.67-2.12-1.61-2.91-3.46-2.91-1.67,0-2.58.76-2.58,2.12,0,1.24.67,1.79,3.22,2.61,4,1.27,5.43,2.67,5.43,5.31,0,3.25-2.49,5.16-6.67,5.16-1.85,0-3.43-.24-5.28-.79v-4.04h1.58c1.37,2.97,2,3.55,4.04,3.55,1.82,0,2.76-.76,2.76-2.22,0-1-.39-1.64-1.33-2.15-.55-.33-.91-.49-2.55-1.03-3.13-1.06-4.52-2.55-4.52-4.8,0-3.07,2.49-5.04,6.34-5.04,1.61,0,3.09.18,4.58.52v3.7h-1.55Z" style="fill: #fff;"/>
        <path d="M263.5,72.41c-1.06,2.85-3.34,4.4-6.49,4.4-4.64,0-7.71-3.31-7.71-8.29s3.25-8.29,8.22-8.29c3.73,0,5.95,1.37,5.95,3.61,0,1.25-.85,2.03-2.21,2.03h-2.03v-3.76c-.61-.42-1.12-.58-1.88-.58-2.25,0-3.19,2.06-3.19,6.89s1.09,6.49,3.88,6.49c2.09,0,3.31-.85,4.37-3.03l1.09.52Z" style="fill: #fff;"/>
        <path d="M271.51,63.06c1.58-1.91,3.31-2.82,5.43-2.82,2.85,0,4.64,1.73,4.64,4.49v9.59c0,.67.21.82,1.88,1.03v1.09h-8.34v-1.09c1.46-.21,1.67-.36,1.67-1.03v-9.01c0-1.61-.76-2.46-2.18-2.46-1.76,0-3.09,1.27-3.09,3.01v8.47c0,.67.21.82,1.7,1.03v1.09h-8.34v-1.09c1.7-.21,1.88-.33,1.88-1.03v-17.27c0-1-.58-1.34-2.43-1.43v-1.09l5.92-1.64h1.27v10.17Z" style="fill: #fff;"/>
      </g>
      <g>
        <path d="M96.09,93.37c-1.18-2.97-2.15-3.76-4.61-3.76s-3.79,1.09-3.79,2.98.88,2.64,4.34,3.82c2.58.88,3.61,1.34,4.55,1.94,1.64,1.15,2.46,2.76,2.46,4.92,0,4.1-3,6.53-8.13,6.53-2.24,0-4-.3-6.98-1.21v-5.22h1.64c.76,2,1.21,2.88,1.82,3.61.91,1,2.03,1.46,3.67,1.46,2.58,0,4.16-1.27,4.16-3.31,0-1.34-.61-2.28-1.88-2.97-.7-.36-1.24-.58-3.58-1.4-4.1-1.43-5.7-3.19-5.7-6.25,0-3.92,2.97-6.28,7.83-6.28,2.21,0,3.85.24,5.67.79v4.37h-1.46Z" style="fill: #fff;"/>
        <path d="M111.45,105.87c-.85,2.64-2.43,3.92-4.91,3.92-2.91,0-4.61-1.64-4.61-4.49v-10.14h-1.94v-1.46l.61-.09c2.58-.39,4.28-2.18,4.79-5.07h1.3v5.04h4.13v1.58h-4.13v10.84c0,1.24.42,1.82,1.33,1.82,1.03,0,1.61-.55,2.37-2.34l1.06.39Z" style="fill: #fff;"/>
        <path d="M119.58,93.37v13.93c0,.64.27.79,1.88,1.03v1.09h-8.52v-1.09c1.67-.21,1.88-.33,1.88-1.03v-9.99c0-1-.58-1.34-2.31-1.37v-1.06l5.86-1.52h1.21ZM119.73,89.09c0,1.46-1.09,2.55-2.58,2.55s-2.52-1.09-2.52-2.55,1.09-2.55,2.55-2.55,2.55,1.09,2.55,2.55Z" style="fill: #fff;"/>
        <path d="M122.8,93.58h2.4v-2.12c0-3.83,2.37-5.92,6.64-5.92,2.91,0,4.67,1,4.67,2.64,0,1.09-.79,1.91-1.88,1.91h-2v-2.97c-.33-.21-.64-.3-1.09-.3-1.21,0-1.58.85-1.58,3.73v3.04h3.61v1.58h-3.61v12.14c0,.67.33.85,1.7.97l.64.06v1.09h-9.1v-1.09l.49-.06c1.27-.15,1.52-.3,1.52-.97v-12.14h-2.4v-1.58Z" style="fill: #fff;"/>
        <path d="M146.4,105.87c-.85,2.64-2.43,3.92-4.91,3.92-2.91,0-4.61-1.64-4.61-4.49v-10.14h-1.94v-1.46l.61-.09c2.58-.39,4.28-2.18,4.79-5.07h1.3v5.04h4.13v1.58h-4.13v10.84c0,1.24.42,1.82,1.33,1.82,1.03,0,1.61-.55,2.37-2.34l1.06.39Z" style="fill: #fff;"/>
        <path d="M159.36,106.63c-1.55,2.18-3.22,3.16-5.46,3.16-2.85,0-4.61-1.73-4.61-4.49v-9.59c0-.61-.3-.82-1.43-.97l-.46-.06v-1.09h6.67v11.14c0,1.61.76,2.46,2.18,2.46,1.7,0,2.79-1.18,2.79-3v-8.47c0-.67-.21-.79-1.7-1.03v-1.09h6.46v11.9c0,1,.58,1.37,2.3,1.37v1.06l-5.19,1.52h-1.21l-.36-2.79Z" style="fill: #fff;"/>
        <path d="M173.53,93.37l.39,3c1.61-2.12,3.46-3.16,5.7-3.16,2.85,0,4.64,1.73,4.64,4.49v9.59c0,.67.21.82,1.88,1.03v1.09h-8.34v-1.09c1.46-.21,1.67-.36,1.67-1.03v-9.01c0-1.61-.76-2.46-2.18-2.46-1.76,0-3.09,1.27-3.09,3v8.47c0,.67.21.82,1.7,1.03v1.09h-8.34v-1.09c1.67-.21,1.88-.33,1.88-1.03v-9.99c0-1-.58-1.34-2.31-1.37v-1.06l5.19-1.52h1.21Z" style="fill: #fff;"/>
        <path d="M201.05,96.34c.33.79.49,1.46.49,2.28,0,3.22-2.7,5.34-6.83,5.34-.64,0-1.18-.06-1.82-.15-.24-.06-.33-.06-.46-.06-.85,0-1.61.58-1.61,1.18,0,.67.64.91,2.46.91h4.37c3.61,0,5.7,1.67,5.7,4.55,0,1.67-.85,3.13-2.43,4.22-1.58,1.09-3.55,1.61-6.22,1.61-4.94,0-7.92-1.37-7.92-3.67,0-1.46,1.09-2.43,3.4-3.04-1.52-.58-2.31-1.52-2.31-2.82,0-1.55,1.09-2.73,3.15-3.49-1.97-1.03-3.06-2.64-3.06-4.55,0-3.22,2.82-5.43,6.86-5.43,2.06,0,3.7.52,5.1,1.64l2.52-1.28h1.06v2.76h-2.46ZM192.53,109.85c-1.27,0-2.12.88-2.12,2.22,0,1.97,1.61,3.01,4.64,3.01s4.91-1.15,4.91-3.13c0-1.52-.91-2.09-3.28-2.09h-4.16ZM192.53,98.62c0,3.13.61,4.22,2.31,4.22s2.4-1.12,2.4-4.22-.67-4.28-2.31-4.28c-1.79,0-2.4,1.09-2.4,4.28Z" style="fill: #fff;"/>
      </g>
    </g>
  </g>
</svg>