<?xml version="1.0" encoding="UTF-8"?>
<svg id="Layer_2" data-name="Layer 2" xmlns="http://www.w3.org/2000/svg" viewBox="0 0 325.93 134.18">
  <g id="Ebene_1" data-name="Ebene 1">
    <path d="M178.06,34.53l-6.18-8.96c-.37-.54.01-1.27.67-1.27h1.32c.65,0,1.04-.74.67-1.27l-4.16-6.03c-.37-.54.01-1.27.67-1.27s1.04-.74.67-1.27L161.99.35c-.32-.47-1.01-.47-1.34,0l-9.73,14.1c-.37.54.01,1.27.67,1.27s1.04.74.67,1.27l-4.16,6.03c-.37.54.01,1.27.67,1.27h1.32c.66,0,1.04.74.67,1.27l-6.18,8.96c-.37.54.01,1.27.67,1.27h14.02v3.88h4.11v-3.88h14.02c.66,0,1.04-.74.67-1.27Z" style="fill: #85c695;"/>
    <path d="M204.5,28.1l-4.12-5.97c-.25-.36,0-.85.45-.85h.88c.44,0,.69-.49.45-.85l-2.77-4.01c-.25-.36,0-.85.45-.85s.69-.49.45-.85l-6.48-9.39c-.22-.31-.68-.31-.89,0l-6.48,9.39c-.25.36,0,.85.45.85s.69.49.45.85l-2.77,4.01c-.25.36,0,.85.45.85h.88c.44,0,.69.49.45.85l-4.12,5.97c-.25.36,0,.85.45.85h9.34v2.58h2.74v-2.58h9.34c.44,0,.69-.49.45-.85Z" style="fill: #00837b;"/>
    <g>
      <g>
        <g>
          <path d="M56.46,79.7c-.16,0-3.03,0-3.96,4.21-.74,3.35.92,7.28,0,9.93" style="fill: none; stroke: #12120d; stroke-miterlimit: 10;"/>
          <path d="M93.91,95.55s.35,6.88,4.06,15.97c0,.01-3.13,0-3.13,0,0,0-4.21-7.78-5.55-15.97-.45.15,4.62,0,4.62,0Z" style="fill: #12120d;"/>
          <path d="M56.27,83.64c.15.74-.82,8.66-1.56,10.89s-4.07,9.22,1.13,17h3.31s-3.14-7.93-1.94-11.36c1.19-3.43,4.13-5.81,4.28-10.57-.45,0-5.21-5.96-5.21-5.96Z" style="fill: #12120d;"/>
          <path d="M57.36,95.25c-.11-3.32-3.46-5.16-3.46-10.87s4.62-6.63,7.04-6.63c7.64.01,22.56,0,28.44,0,8.61,0,14.37,13.97,15.17,16.03l5.33-2.97c.19,3.28-1.66,6.54-1.97,7.06l.03.06,2.13,9.45c.37,1.71-.05,3.06-1.87,3.61s-2.86.38-3.44-.74c-.11-.22-.2-.44-.26-.67,0,0-6.58-5.77-7.4-8.16-.53-1.56-.19-2.71.72-4.18.05-.08.11-.16.18-.24-12.96.34-9.92,14.54-9.92,14.54h-3.68s0-13.74,0-13.74c-5.12,2.12-9.73,1.9-14.09,1.56-4.59-.35-7.26-2.24-7.37-2.46-3.13,4.85,3.12,14.63,3.12,14.63h-3.99s-6.12-10.11-6.12-10.11c0,0,1.52-2.84,1.41-6.17Z" style="fill: #fff;"/>
          <path d="M102.61,89.53s-.39,2.4-2.32,3.07-1.56-1.23-3.2-1.66-3.2.84-4.91,1.28-3.65-.67-1.49-1.64,4.85-4.66,4.15-4.96-1.4,2.22-3.85,1.08c-.88-.41-1.35-4.34,1.27-4.91,3.07-.67,5.88.89,5.88.89,0,0,2.3,2.56,4.49,6.83Z" style="fill: #12120d;"/>
          <path d="M84.35,77.75s4.24.9,4.02,2.83c-.22,1.94-1.86,4.77-4.62,5.51-2.76.74,2.23,3.72,2.01,5.73s-5.44,6.63-13.33,2.01c-7.89-4.62-3.5-10.8,1.04-9.23,2.38.82,6.55,1.04,4.1-.67s-8.34-2.01-9.31-6.18c1.94,0,16.08,0,16.08,0Z" style="fill: #12120d;"/>
          <path d="M66.18,83.04s1.71.89.74,2.23-4.02,1.94-3.87,3.13c.15,1.19,3.35,2.08,2.98,3.35s-7.25.37-8.24-2.61,5.86-7.89,8.39-6.11Z" style="fill: #12120d;"/>
          <path d="M90.16,94.81c1.13.67,1.41,1.51.82,2.4s-4.17,1.41-4.47,2.68-.21,4.9-2.15,5.12l.05-7.23s-.21-2.8.98-2.06,3.35-1.75,4.77-.91Z" style="fill: #12120d;"/>
          <path d="M62.95,96.89s-.1-1.97-2.11-1.89c-1.12.05-2.68,1.33-2.32,2.58.36,1.25,1.3.88,1.25,2.29-.09,2.33,2.68,3.34,2.68,3.34,0,0-.48-1.9-.35-3.58s.85-2.74.85-2.74Z" style="fill: #12120d;"/>
        </g>
        <circle cx="105.35" cy="100.24" r=".86" style="fill: #12120d;"/>
      </g>
      <path d="M69.31,100.59c.53-.53.86-1.27.86-2.09,0-1.63-1.32-2.95-2.95-2.95s-2.95,1.32-2.95,2.95c0,.82.34,1.57.88,2.1l-.32,1.04c-.08.26.07.53.32.61s.53-.07.61-.32l.23-.75c.23.11.48.18.75.23v.66c0,.27.22.49.49.49s.49-.22.49-.49v-.66c.27-.04.52-.12.76-.24l.23.76c.08.26.35.4.61.32s.4-.35.32-.61l-.32-1.05Z" style="fill: #fff;"/>
    </g>
    <g>
      <g>
        <g>
          <path d="M8.44,72.68h-3.74c-2.51,0-3.44-2.23-3.07-4.71l.88-24.54c.3-2.01,2.03-3.49,4.06-3.49h0c2.03,0,3.76,1.49,4.06,3.49l.88,24.54c.37,2.48-.56,4.71-3.07,4.71Z" style="fill: #f1ed7f;"/>
          <path d="M6.57,67.77L0,45.43s0,.06,0,.09l1.58,27.04c.15,2.64,2.34,4.7,4.98,4.7,2.64,0,4.83-2.06,4.98-4.7l1.58-27.04s0-.06,0-.09l-6.57,22.35Z" style="fill: #3c9823;"/>
        </g>
        <rect x="5.88" y="74.43" width="1.38" height="19.84" style="fill: #3c9823;"/>
      </g>
      <g>
        <g>
          <path d="M28.33,72.68h-3.74c-2.51,0-3.44-2.23-3.07-4.71l.88-24.54c.3-2.01,2.03-3.49,4.06-3.49h0c2.03,0,3.76,1.49,4.06,3.49l.88,24.54c.37,2.48-.56,4.71-3.07,4.71Z" style="fill: #f1ed7f;"/>
          <path d="M26.46,67.77l-6.57-22.35s0,.06,0,.09l1.58,27.04c.15,2.64,2.34,4.7,4.98,4.7,2.64,0,4.83-2.06,4.98-4.7l1.58-27.04s0-.06,0-.09l-6.57,22.35Z" style="fill: #3c9823;"/>
        </g>
        <rect x="25.77" y="74.43" width="1.38" height="19.84" style="fill: #3c9823;"/>
      </g>
      <g>
        <g>
          <path d="M48.23,72.68h-3.74c-2.51,0-3.44-2.23-3.07-4.71l.88-24.54c.3-2.01,2.03-3.49,4.06-3.49h0c2.03,0,3.76,1.49,4.06,3.49l.88,24.54c.37,2.48-.56,4.71-3.07,4.71Z" style="fill: #f1ed7f;"/>
          <path d="M46.36,67.77l-6.57-22.35s0,.06,0,.09l1.58,27.04c.15,2.64,2.34,4.7,4.98,4.7,2.64,0,4.83-2.06,4.98-4.7l1.58-27.04s0-.06,0-.09l-6.57,22.35Z" style="fill: #3c9823;"/>
        </g>
        <rect x="45.67" y="74.43" width="1.38" height="19.84" style="fill: #3c9823;"/>
      </g>
    </g>
    <g>
      <g>
        <g>
          <line x1="53.42" y1="32.32" x2="53.42" y2="40.82" style="fill: none; stroke: #3c9823; stroke-miterlimit: 10;"/>
          <line x1="60.07" y1="32.32" x2="60.07" y2="40.82" style="fill: none; stroke: #3c9823; stroke-miterlimit: 10;"/>
          <line x1="66.73" y1="32.32" x2="66.73" y2="40.82" style="fill: none; stroke: #3c9823; stroke-miterlimit: 10;"/>
          <line x1="73.39" y1="32.32" x2="73.39" y2="40.82" style="fill: none; stroke: #3c9823; stroke-miterlimit: 10;"/>
          <line x1="80.04" y1="32.32" x2="80.04" y2="40.82" style="fill: none; stroke: #3c9823; stroke-miterlimit: 10;"/>
          <line x1="86.7" y1="32.32" x2="86.7" y2="40.82" style="fill: none; stroke: #3c9823; stroke-miterlimit: 10;"/>
          <line x1="93.35" y1="32.32" x2="93.35" y2="40.82" style="fill: none; stroke: #3c9823; stroke-miterlimit: 10;"/>
        </g>
        <g>
          <line x1="63.64" y1="40.64" x2="63.64" y2="49.14" style="fill: none; stroke: #3c9823; stroke-miterlimit: 10;"/>
          <line x1="70.29" y1="40.64" x2="70.29" y2="49.14" style="fill: none; stroke: #3c9823; stroke-miterlimit: 10;"/>
          <line x1="76.95" y1="40.64" x2="76.95" y2="49.14" style="fill: none; stroke: #3c9823; stroke-miterlimit: 10;"/>
          <line x1="83.6" y1="40.64" x2="83.6" y2="49.14" style="fill: none; stroke: #3c9823; stroke-miterlimit: 10;"/>
          <line x1="90.26" y1="40.64" x2="90.26" y2="49.14" style="fill: none; stroke: #3c9823; stroke-miterlimit: 10;"/>
          <line x1="96.92" y1="40.64" x2="96.92" y2="49.14" style="fill: none; stroke: #3c9823; stroke-miterlimit: 10;"/>
          <line x1="103.57" y1="40.64" x2="103.57" y2="49.14" style="fill: none; stroke: #3c9823; stroke-miterlimit: 10;"/>
        </g>
      </g>
      <g>
        <g>
          <line x1="100.39" y1="32.32" x2="100.39" y2="40.82" style="fill: none; stroke: #3c9823; stroke-miterlimit: 10;"/>
          <line x1="107.04" y1="32.32" x2="107.04" y2="40.82" style="fill: none; stroke: #3c9823; stroke-miterlimit: 10;"/>
          <line x1="113.7" y1="32.32" x2="113.7" y2="40.82" style="fill: none; stroke: #3c9823; stroke-miterlimit: 10;"/>
          <line x1="120.35" y1="32.32" x2="120.35" y2="40.82" style="fill: none; stroke: #3c9823; stroke-miterlimit: 10;"/>
          <line x1="127.01" y1="32.32" x2="127.01" y2="40.82" style="fill: none; stroke: #3c9823; stroke-miterlimit: 10;"/>
          <line x1="133.67" y1="32.32" x2="133.67" y2="40.82" style="fill: none; stroke: #3c9823; stroke-miterlimit: 10;"/>
          <line x1="140.32" y1="32.32" x2="140.32" y2="40.82" style="fill: none; stroke: #3c9823; stroke-miterlimit: 10;"/>
        </g>
        <g>
          <line x1="110.61" y1="40.64" x2="110.61" y2="49.14" style="fill: none; stroke: #3c9823; stroke-miterlimit: 10;"/>
          <line x1="117.26" y1="40.64" x2="117.26" y2="49.14" style="fill: none; stroke: #3c9823; stroke-miterlimit: 10;"/>
          <line x1="123.92" y1="40.64" x2="123.92" y2="49.14" style="fill: none; stroke: #3c9823; stroke-miterlimit: 10;"/>
          <line x1="130.57" y1="40.64" x2="130.57" y2="49.14" style="fill: none; stroke: #3c9823; stroke-miterlimit: 10;"/>
          <line x1="137.23" y1="40.64" x2="137.23" y2="49.14" style="fill: none; stroke: #3c9823; stroke-miterlimit: 10;"/>
          <line x1="143.89" y1="40.64" x2="143.89" y2="49.14" style="fill: none; stroke: #3c9823; stroke-miterlimit: 10;"/>
          <line x1="150.54" y1="40.64" x2="150.54" y2="49.14" style="fill: none; stroke: #3c9823; stroke-miterlimit: 10;"/>
        </g>
      </g>
    </g>
    <g>
      <g>
        <line x1="130.68" y1="114.4" x2="130.68" y2="122.9" style="fill: none; stroke: #3c9823; stroke-miterlimit: 10;"/>
        <line x1="131.88" y1="114.4" x2="131.88" y2="122.9" style="fill: none; stroke: #3c9823; stroke-miterlimit: 10;"/>
        <line x1="133.09" y1="114.4" x2="133.09" y2="122.9" style="fill: none; stroke: #3c9823; stroke-miterlimit: 10;"/>
        <line x1="134.29" y1="114.4" x2="134.29" y2="122.9" style="fill: none; stroke: #3c9823; stroke-miterlimit: 10;"/>
        <line x1="135.49" y1="114.4" x2="135.49" y2="122.9" style="fill: none; stroke: #3c9823; stroke-miterlimit: 10;"/>
        <line x1="136.7" y1="114.4" x2="136.7" y2="122.9" style="fill: none; stroke: #3c9823; stroke-miterlimit: 10;"/>
        <line x1="137.9" y1="114.4" x2="137.9" y2="122.9" style="fill: none; stroke: #3c9823; stroke-miterlimit: 10;"/>
      </g>
      <g>
        <g>
          <g>
            <line x1="83.71" y1="114.4" x2="83.71" y2="122.9" style="fill: none; stroke: #3c9823; stroke-miterlimit: 10;"/>
            <line x1="90.37" y1="114.4" x2="90.37" y2="122.9" style="fill: none; stroke: #3c9823; stroke-miterlimit: 10;"/>
            <line x1="97.02" y1="114.4" x2="97.02" y2="122.9" style="fill: none; stroke: #3c9823; stroke-miterlimit: 10;"/>
            <line x1="103.68" y1="114.4" x2="103.68" y2="122.9" style="fill: none; stroke: #3c9823; stroke-miterlimit: 10;"/>
            <line x1="110.34" y1="114.4" x2="110.34" y2="122.9" style="fill: none; stroke: #3c9823; stroke-miterlimit: 10;"/>
            <line x1="116.99" y1="114.4" x2="116.99" y2="122.9" style="fill: none; stroke: #3c9823; stroke-miterlimit: 10;"/>
            <line x1="123.65" y1="114.4" x2="123.65" y2="122.9" style="fill: none; stroke: #3c9823; stroke-miterlimit: 10;"/>
          </g>
          <g>
            <line x1="93.93" y1="122.72" x2="93.93" y2="131.22" style="fill: none; stroke: #3c9823; stroke-miterlimit: 10;"/>
            <line x1="100.59" y1="122.72" x2="100.59" y2="131.22" style="fill: none; stroke: #3c9823; stroke-miterlimit: 10;"/>
            <line x1="107.24" y1="122.72" x2="107.24" y2="131.22" style="fill: none; stroke: #3c9823; stroke-miterlimit: 10;"/>
            <line x1="113.9" y1="122.72" x2="113.9" y2="131.22" style="fill: none; stroke: #3c9823; stroke-miterlimit: 10;"/>
            <line x1="120.56" y1="122.72" x2="120.56" y2="131.22" style="fill: none; stroke: #3c9823; stroke-miterlimit: 10;"/>
            <line x1="127.21" y1="122.72" x2="127.21" y2="131.22" style="fill: none; stroke: #3c9823; stroke-miterlimit: 10;"/>
            <line x1="133.87" y1="122.72" x2="133.87" y2="131.22" style="fill: none; stroke: #3c9823; stroke-miterlimit: 10;"/>
          </g>
        </g>
        <g>
          <line x1="137.81" y1="114.4" x2="137.81" y2="122.9" style="fill: none; stroke: #3c9823; stroke-miterlimit: 10;"/>
          <line x1="139.01" y1="114.4" x2="139.01" y2="122.9" style="fill: none; stroke: #3c9823; stroke-miterlimit: 10;"/>
          <line x1="140.21" y1="114.4" x2="140.21" y2="122.9" style="fill: none; stroke: #3c9823; stroke-miterlimit: 10;"/>
          <line x1="141.42" y1="114.4" x2="141.42" y2="122.9" style="fill: none; stroke: #3c9823; stroke-miterlimit: 10;"/>
          <line x1="142.62" y1="114.4" x2="142.62" y2="122.9" style="fill: none; stroke: #3c9823; stroke-miterlimit: 10;"/>
          <line x1="143.82" y1="114.4" x2="143.82" y2="122.9" style="fill: none; stroke: #3c9823; stroke-miterlimit: 10;"/>
          <line x1="145.02" y1="114.4" x2="145.02" y2="122.9" style="fill: none; stroke: #3c9823; stroke-miterlimit: 10;"/>
        </g>
      </g>
    </g>
    <path d="M311.13,103h-146.83c-8.14,0-14.8,7.02-14.8,15.59s6.66,15.59,14.8,15.59h146.83c8.14,0,14.8-7.02,14.8-15.59s-6.66-15.59-14.8-15.59Z" style="fill: #82c9bb;"/>
    <path d="M207.21,45.33s-.73,6.65-6.39,6.65h-51.02s-14.17,0-14.17,8.5,14.17,8.5,14.17,8.5h96.38s22.68,0,22.68,17.01-22.68,28.35-22.68,28.35h-22.68v-11.34h8.5s11.34-2.83,11.34-17.01c0-8.5-17.01-8.5-17.01-8.5h-76.54s-25.51,0-25.51-17.01,25.51-17.01,25.51-17.01c0,0,48.22.02,48.19,0,1.75.46,7.51,1.86,9.23,1.86Z" style="fill: #82c9bb;"/>
    <g>
      <path d="M183.46,79.1l-.07,2.41c0,.28-.05.55-.14.81l-1.41,3.94h-1.58c.64-.99,1.48-1.99,1.42-3.43-.05-1.25-.75-2.03-1.48-2.74l3.27-.98Z" style="fill: #a58c3b;"/>
      <path d="M156.26,66.63c.9-.41,3.6-1.71,3.6-1.71.87-.38,2.64-.6,3.51.2.28.26.81.78,1.41,1.38.58,0,1.1.32,1.53.75h7.1c8.69,0,10.6,2.89,10.6,7.08l-.54,4.8c-.61,0-2.49,1.29-2.85,2.52-.16.56-.28,1.49-.45,1.95l-1.3,2.65h-1.63c.64-.99,1.42-2.17,1.42-3.43,0-.98-.23-1.9-.62-2.73h-10.02s-.18,0-.18,0l-.37,6.17h-.74l-.13-2.18c-.09-1.49-.23-2.98-2.12-5.97-1.45-2.3-3.26-4.73-4.11-7.61-.7-.25-2.92-1.05-3.62-1.3-.98-.36-1.5-.63-1.5-1.2h0c0-.65.17-.98,1.02-1.37Z" style="fill: #b7a362;"/>
      <polygon points="169.79 80.09 169.42 86.26 168.68 86.26 168.12 80.09 167.93 80.09 169.79 80.09" style="fill: #a58c3b;"/>
    </g>
    <g>
      <path d="M88.57,67.14l.07,2.41c0,.28.05.55.14.81l1.41,3.94h1.58c-.64-.99-1.48-1.99-1.42-3.43.05-1.25.75-2.03,1.48-2.74l-3.27-.98Z" style="fill: #a58c3b;"/>
      <path d="M115.77,54.67c-.9-.41-3.6-1.71-3.6-1.71-.87-.38-2.64-.6-3.51.2-.28.26-.81.78-1.41,1.38-.58,0-1.1.32-1.53.75h-7.1c-8.69,0-10.6,2.89-10.6,7.08l.54,4.8c.61,0,2.49,1.29,2.85,2.52.16.56.28,1.49.45,1.95l1.3,2.65h1.63c-.64-.99-1.42-2.17-1.42-3.43,0-.98.23-1.9.62-2.73h10.2l.37,6.17h.74l.13-2.18c.09-1.49.23-2.98,2.12-5.97,1.45-2.3,3.26-4.73,4.11-7.61.7-.25,2.92-1.05,3.62-1.3.98-.36,1.5-.63,1.5-1.2h0c0-.65-.17-.98-1.02-1.37Z" style="fill: #b7a362;"/>
      <polygon points="102.23 68.12 102.61 74.29 103.34 74.29 103.91 68.12 104.09 68.12 102.23 68.12" style="fill: #a58c3b;"/>
    </g>
    <g>
      <path d="M214.92,42.55s.87,3.85-1.71,5.61c-.02.02-1.94-1.73-1.94-1.73,0,0,2.8-.93,3.65-3.87Z" style="fill: #977059;"/>
      <g>
        <path d="M183.35,54.18l-2.11.56c-.61-1.85.47-5.49.5-5.85.71-7.61,7-8.02,8.92-8.02,1.51,0,5.82-.84,7.15-.94,2.44-.19,3.37-.96,6-1.81.47-.15,2.38-.29,2.38-.3l-.06-1.81s1.56.24,2.38,1.82c0,.01,1.34-.21,2.29.47,1.11.79,1.42,1.28,1.68,1.85s.53,1.63.78,2.1c0,0,1.4,2.6,4.51,3.87.02,0-1.58,3.18-1.58,3.18,0,0-1.94-.51-1.94-.49,0,0-.76.71-1.01.81-.82.34-1.79.5-3.54-.37-1.93,4.15-3.11,8.42-1.41,12.59,0,0-2.14,0-2.14,0,0,0-2.34-5.02-.85-7.8-1.83,3.42-1.52,7.8-1.52,7.8h-2.52s0-3.05-.08-4.06c-.08-.95-.54-3.76-.54-3.76-4.35,1.84-7.61.76-8.73-.22-.02-.02.19,2.99-2.73,3.89-.79,3.07.82,4.16.82,4.16h-2.73s-.75-4.76-.75-4.76c-3.21.93-1.25,4.76-1.25,4.76h-1.56c-3.56-5.32.57-7.2,1.08-8.72.18-.54-1.05-4.36-.88-4.86-.3.09-1.66,3.28-.59,5.91Z" style="fill: #977059;"/>
        <g>
          <rect x="189.13" y="42.56" width="1.61" height=".83" rx=".42" ry=".42" transform="translate(379.88 85.95) rotate(-180)" style="fill: #a58c3b;"/>
          <g>
            <rect x="194.26" y="42.56" width="1.61" height=".83" rx=".42" ry=".42" transform="translate(390.14 85.95) rotate(180)" style="fill: #a58c3b;"/>
            <rect x="199.84" y="42.56" width="1.61" height=".83" rx=".42" ry=".42" transform="translate(401.3 85.95) rotate(180)" style="fill: #a58c3b;"/>
            <rect x="203.13" y="40.19" width="1.61" height=".83" rx=".42" ry=".42" transform="translate(407.87 81.21) rotate(180)" style="fill: #a58c3b;"/>
            <rect x="191.94" y="45.25" width="1.61" height=".83" rx=".42" ry=".42" transform="translate(385.5 91.34) rotate(-180)" style="fill: #a58c3b;"/>
            <rect x="185.45" y="45.25" width="1.61" height=".83" rx=".42" ry=".42" transform="translate(372.52 91.34) rotate(-180)" style="fill: #a58c3b;"/>
            <rect x="197.84" y="45.25" width="1.61" height=".83" rx=".42" ry=".42" transform="translate(397.3 91.34) rotate(-180)" style="fill: #a58c3b;"/>
            <rect x="188.2" y="47.37" width="1.61" height=".83" rx=".42" ry=".42" transform="translate(378.01 95.57) rotate(-180)" style="fill: #a58c3b;"/>
            <rect x="194.64" y="47.37" width="1.61" height=".83" rx=".42" ry=".42" transform="translate(390.9 95.57) rotate(-180)" style="fill: #a58c3b;"/>
          </g>
        </g>
      </g>
    </g>
    <g>
      <g>
        <g>
          <path d="M130.73,98.56c.32.23.46.64.34,1.01-.27.84-1.03,2.33-3.15,3.04-2.27.76-3.8-.14-4.45-.65-.23-.18-.32-.48-.25-.75.22-.8.93-2.48,3.17-3.23,2.09-.7,3.61.06,4.34.58Z" style="fill: #f1ed7f;"/>
          <path d="M115.67,98.56c-.32.23-.46.64-.34,1.01.27.84,1.03,2.33,3.15,3.04,2.27.76,3.8-.14,4.45-.65.23-.18.32-.48.25-.75-.22-.8-.93-2.48-3.17-3.23-2.09-.7-3.61.06-4.34.58Z" style="fill: #f1ed7f;"/>
        </g>
        <g>
          <path d="M130.73,93.12c.32.23.46.64.34,1.01-.27.84-1.03,2.33-3.15,3.04-2.27.76-3.8-.14-4.45-.65-.23-.18-.32-.48-.25-.75.22-.8.93-2.48,3.17-3.23,2.09-.7,3.61.06,4.34.58Z" style="fill: #f1ed7f;"/>
          <path d="M115.67,93.12c-.32.23-.46.64-.34,1.01.27.84,1.03,2.33,3.15,3.04,2.27.76,3.8-.14,4.45-.65.23-.18.32-.48.25-.75-.22-.8-.93-2.48-3.17-3.23-2.09-.7-3.61.06-4.34.58Z" style="fill: #f1ed7f;"/>
        </g>
        <g>
          <path d="M130.73,87.68c.32.23.46.64.34,1.01-.27.84-1.03,2.33-3.15,3.04-2.27.76-3.8-.14-4.45-.65-.23-.18-.32-.48-.25-.75.22-.8.93-2.48,3.17-3.23,2.09-.7,3.61.06,4.34.58Z" style="fill: #f1ed7f;"/>
          <path d="M115.67,87.68c-.32.23-.46.64-.34,1.01.27.84,1.03,2.33,3.15,3.04,2.27.76,3.8-.14,4.45-.65.23-.18.32-.48.25-.75-.22-.8-.93-2.48-3.17-3.23-2.09-.7-3.61.06-4.34.58Z" style="fill: #f1ed7f;"/>
        </g>
        <g>
          <path d="M130.73,82.24c.32.23.46.64.34,1.01-.27.84-1.03,2.33-3.15,3.04-2.27.76-3.8-.14-4.45-.65-.23-.18-.32-.48-.25-.75.22-.8.93-2.48,3.17-3.23,2.09-.7,3.61.06,4.34.58Z" style="fill: #f1ed7f;"/>
          <path d="M115.67,82.24c-.32.23-.46.64-.34,1.01.27.84,1.03,2.33,3.15,3.04,2.27.76,3.8-.14,4.45-.65.23-.18.32-.48.25-.75-.22-.8-.93-2.48-3.17-3.23-2.09-.7-3.61.06-4.34.58Z" style="fill: #f1ed7f;"/>
        </g>
        <g>
          <path d="M130.73,76.79c.32.23.46.64.34,1.01-.27.84-1.03,2.33-3.15,3.04-2.27.76-3.8-.14-4.45-.65-.23-.18-.32-.48-.25-.75.22-.8.93-2.48,3.17-3.23,2.09-.7,3.61.06,4.34.58Z" style="fill: #f1ed7f;"/>
          <path d="M115.67,76.79c-.32.23-.46.64-.34,1.01.27.84,1.03,2.33,3.15,3.04,2.27.76,3.8-.14,4.45-.65.23-.18.32-.48.25-.75-.22-.8-.93-2.48-3.17-3.23-2.09-.7-3.61.06-4.34.58Z" style="fill: #f1ed7f;"/>
        </g>
        <line x1="123.2" y1="68.04" x2="123.2" y2="111.51" style="fill: none; stroke: #f1ed7f; stroke-miterlimit: 10;"/>
        <line x1="115.44" y1="68.27" x2="115.44" y2="77.77" style="fill: none; stroke: #f1ed7f; stroke-miterlimit: 10; stroke-width: .35px;"/>
        <line x1="130.92" y1="68.27" x2="130.92" y2="77.77" style="fill: none; stroke: #f1ed7f; stroke-miterlimit: 10; stroke-width: .35px;"/>
      </g>
      <g>
        <g>
          <path d="M150.56,98.56c.32.23.46.64.34,1.01-.27.84-1.03,2.33-3.15,3.04-2.27.76-3.8-.14-4.45-.65-.23-.18-.32-.48-.25-.75.22-.8.93-2.48,3.17-3.23,2.09-.7,3.61.06,4.34.58Z" style="fill: #f1ed7f;"/>
          <path d="M135.5,98.56c-.32.23-.46.64-.34,1.01.27.84,1.03,2.33,3.15,3.04,2.27.76,3.8-.14,4.45-.65.23-.18.32-.48.25-.75-.22-.8-.93-2.48-3.17-3.23-2.09-.7-3.61.06-4.34.58Z" style="fill: #f1ed7f;"/>
        </g>
        <g>
          <path d="M150.56,93.12c.32.23.46.64.34,1.01-.27.84-1.03,2.33-3.15,3.04-2.27.76-3.8-.14-4.45-.65-.23-.18-.32-.48-.25-.75.22-.8.93-2.48,3.17-3.23,2.09-.7,3.61.06,4.34.58Z" style="fill: #f1ed7f;"/>
          <path d="M135.5,93.12c-.32.23-.46.64-.34,1.01.27.84,1.03,2.33,3.15,3.04,2.27.76,3.8-.14,4.45-.65.23-.18.32-.48.25-.75-.22-.8-.93-2.48-3.17-3.23-2.09-.7-3.61.06-4.34.58Z" style="fill: #f1ed7f;"/>
        </g>
        <g>
          <path d="M150.56,87.68c.32.23.46.64.34,1.01-.27.84-1.03,2.33-3.15,3.04-2.27.76-3.8-.14-4.45-.65-.23-.18-.32-.48-.25-.75.22-.8.93-2.48,3.17-3.23,2.09-.7,3.61.06,4.34.58Z" style="fill: #f1ed7f;"/>
          <path d="M135.5,87.68c-.32.23-.46.64-.34,1.01.27.84,1.03,2.33,3.15,3.04,2.27.76,3.8-.14,4.45-.65.23-.18.32-.48.25-.75-.22-.8-.93-2.48-3.17-3.23-2.09-.7-3.61.06-4.34.58Z" style="fill: #f1ed7f;"/>
        </g>
        <g>
          <path d="M150.56,82.24c.32.23.46.64.34,1.01-.27.84-1.03,2.33-3.15,3.04-2.27.76-3.8-.14-4.45-.65-.23-.18-.32-.48-.25-.75.22-.8.93-2.48,3.17-3.23,2.09-.7,3.61.06,4.34.58Z" style="fill: #f1ed7f;"/>
          <path d="M135.5,82.24c-.32.23-.46.64-.34,1.01.27.84,1.03,2.33,3.15,3.04,2.27.76,3.8-.14,4.45-.65.23-.18.32-.48.25-.75-.22-.8-.93-2.48-3.17-3.23-2.09-.7-3.61.06-4.34.58Z" style="fill: #f1ed7f;"/>
        </g>
        <g>
          <path d="M150.56,76.79c.32.23.46.64.34,1.01-.27.84-1.03,2.33-3.15,3.04-2.27.76-3.8-.14-4.45-.65-.23-.18-.32-.48-.25-.75.22-.8.93-2.48,3.17-3.23,2.09-.7,3.61.06,4.34.58Z" style="fill: #f1ed7f;"/>
          <path d="M135.5,76.79c-.32.23-.46.64-.34,1.01.27.84,1.03,2.33,3.15,3.04,2.27.76,3.8-.14,4.45-.65.23-.18.32-.48.25-.75-.22-.8-.93-2.48-3.17-3.23-2.09-.7-3.61.06-4.34.58Z" style="fill: #f1ed7f;"/>
        </g>
        <line x1="143.03" y1="68.04" x2="143.03" y2="111.51" style="fill: none; stroke: #f1ed7f; stroke-miterlimit: 10;"/>
        <line x1="135.27" y1="68.27" x2="135.27" y2="77.77" style="fill: none; stroke: #f1ed7f; stroke-miterlimit: 10; stroke-width: .35px;"/>
        <line x1="150.76" y1="68.27" x2="150.76" y2="77.77" style="fill: none; stroke: #f1ed7f; stroke-miterlimit: 10; stroke-width: .35px;"/>
      </g>
    </g>
  </g>
</svg>