<?xml version="1.0" encoding="UTF-8" standalone="no"?>
<!DOCTYPE svg PUBLIC "-//W3C//DTD SVG 1.1//EN" "http://www.w3.org/Graphics/SVG/1.1/DTD/svg11.dtd">
<svg width="100%" height="100%" viewBox="0 0 2165 1054" version="1.1" xmlns="http://www.w3.org/2000/svg" xmlns:xlink="http://www.w3.org/1999/xlink" xml:space="preserve" xmlns:serif="http://www.serif.com/" style="fill-rule:evenodd;clip-rule:evenodd;stroke-linejoin:round;stroke-miterlimit:2;">
    <g transform="matrix(1,0,0,1,-164.025,-113.648)">
        <g transform="matrix(4.16667,0,0,4.16667,0,0)">
            <g transform="matrix(1,0,0,1,46.501,205.731)">
                <path d="M0,-18.375L-7.135,-18.375L-7.135,-24.002L13.168,-24.002L13.168,-18.375L5.946,-18.375L5.946,5.627L0,5.627L0,-18.375Z" style="fill:rgb(255,255,255);fill-rule:nonzero;"/>
            </g>
        </g>
        <g transform="matrix(4.16667,0,0,4.16667,0,0)">
            <g transform="matrix(1,0,0,1,62.599,211.359)">
                <path d="M0,-31.21L5.961,-31.21L5.961,-18.897L6.033,-18.897C6.657,-19.869 7.44,-20.623 8.383,-21.145C9.296,-21.667 10.384,-21.986 11.486,-21.986C15.286,-21.986 18.186,-19.042 18.186,-12.531L18.186,0L12.226,0L12.226,-11.82C12.226,-14.633 11.37,-16.577 9.137,-16.577C7.57,-16.577 6.584,-15.431 6.149,-14.198C5.99,-13.807 5.961,-13.227 5.961,-12.748L5.961,0L0,0L0,-31.21Z" style="fill:rgb(255,255,255);fill-rule:nonzero;"/>
            </g>
        </g>
        <g transform="matrix(4.16667,0,0,4.16667,0,0)">
            <g transform="matrix(1,0,0,1,0,67.898)">
                <path d="M85.049,121.967L91.01,121.967L91.01,143.46L85.049,143.46L85.049,121.967ZM91.198,115.978C91.198,117.834 89.98,119.328 87.993,119.328C86.108,119.328 84.89,117.834 84.89,115.978C84.89,114.092 86.151,112.642 88.066,112.642C89.98,112.642 91.169,114.092 91.198,115.978" style="fill:rgb(255,255,255);fill-rule:nonzero;"/>
            </g>
        </g>
        <g transform="matrix(4.16667,0,0,4.16667,0,0)">
            <g transform="matrix(1,0,0,1,95.7667,204.005)">
                <path d="M0,-7.28C0,-9.963 -0.087,-12.211 -0.16,-14.14L5.018,-14.14L5.293,-11.152L5.41,-11.152C6.193,-12.559 8.107,-14.633 11.327,-14.633C15.242,-14.633 18.186,-11.689 18.186,-5.351L18.186,7.353L12.226,7.353L12.226,-4.553C12.226,-7.324 11.37,-9.223 9.209,-9.223C7.57,-9.223 6.584,-7.947 6.149,-6.714C5.99,-6.279 5.961,-5.656 5.961,-5.047L5.961,7.353L0,7.353L0,-7.28Z" style="fill:rgb(255,255,255);fill-rule:nonzero;"/>
            </g>
        </g>
        <g transform="matrix(4.16667,0,0,4.16667,0,0)">
            <g transform="matrix(1,0,0,1,124.656,192.592)">
                <path d="M0,6.323L0.073,6.323C0.508,5.395 0.972,4.525 1.45,3.727L5.322,-2.727L12.501,-2.727L5.642,5.975L13.488,18.766L6.149,18.766L1.479,9.934L0,12.037L0,18.766L-5.961,18.766L-5.961,-12.443L0,-12.443L0,6.323Z" style="fill:rgb(255,255,255);fill-rule:nonzero;"/>
            </g>
        </g>
        <g transform="matrix(4.16667,0,0,4.16667,0,0)">
            <g transform="matrix(1,0,0,1,145.235,205.731)">
                <path d="M0,-18.375L-7.135,-18.375L-7.135,-24.002L13.168,-24.002L13.168,-18.375L5.946,-18.375L5.946,5.627L0,5.627L0,-18.375Z" style="fill:rgb(255,255,255);fill-rule:nonzero;"/>
            </g>
        </g>
        <g transform="matrix(4.16667,0,0,4.16667,0,0)">
            <g transform="matrix(1,0,0,1,167.874,199.959)">
                <path d="M0,1.248C-3.147,1.248 -5.569,2.075 -5.569,4.627C-5.569,6.338 -4.554,7.18 -3.22,7.18C-1.769,7.18 -0.508,6.077 -0.116,4.714C-0.044,4.366 0,3.975 0,3.568L0,1.248ZM5.758,6.208C5.758,8.238 5.83,10.211 6.077,11.4L0.696,11.4L0.348,9.239L0.232,9.239C-1.03,10.965 -2.988,11.878 -5.264,11.878C-9.137,11.878 -11.457,8.717 -11.457,5.294C-11.457,-0.289 -6.976,-2.929 -0.203,-2.929L-0.203,-3.19C-0.203,-4.379 -0.754,-6.003 -3.684,-6.003C-5.656,-6.003 -7.73,-5.264 -8.977,-4.379L-10.079,-8.686C-8.745,-9.528 -6.12,-10.63 -2.625,-10.63C3.756,-10.63 5.758,-6.409 5.758,-1.304L5.758,6.208Z" style="fill:rgb(255,255,255);fill-rule:nonzero;"/>
            </g>
        </g>
        <g transform="matrix(4.16667,0,0,4.16667,0,0)">
            <g transform="matrix(1,0,0,1,178.331,204.005)">
                <path d="M0,-7.28C0,-9.963 -0.087,-12.211 -0.16,-14.14L5.018,-14.14L5.293,-11.152L5.41,-11.152C6.193,-12.559 8.107,-14.633 11.327,-14.633C15.242,-14.633 18.186,-11.689 18.186,-5.351L18.186,7.353L12.226,7.353L12.226,-4.553C12.226,-7.324 11.37,-9.223 9.209,-9.223C7.57,-9.223 6.584,-7.947 6.149,-6.714C5.99,-6.279 5.961,-5.656 5.961,-5.047L5.961,7.353L0,7.353L0,-7.28Z" style="fill:rgb(255,255,255);fill-rule:nonzero;"/>
            </g>
        </g>
        <g transform="matrix(4.16667,0,0,4.16667,0,0)">
            <g transform="matrix(1,0,0,1,207.191,192.592)">
                <path d="M0,6.323L0.073,6.323C0.508,5.395 0.972,4.525 1.45,3.727L5.322,-2.727L12.501,-2.727L5.642,5.975L13.488,18.766L6.149,18.766L1.479,9.934L0,12.037L0,18.766L-5.961,18.766L-5.961,-12.443L0,-12.443L0,6.323Z" style="fill:rgb(255,255,255);fill-rule:nonzero;"/>
            </g>
        </g>
        <g transform="matrix(4.16667,0,0,4.16667,0,0)">
            <g transform="matrix(1,0,0,1,223.318,179.655)">
                <path d="M0,31.703L0,12.313L-2.698,12.313L-2.698,10.602L0,10.602L0,9.456C0,6.207 0.551,3.568 2.074,1.856C3.249,0.58 4.786,0 6.28,0C7.483,0 8.513,0.363 9.093,0.711L8.513,2.335C7.962,2.03 7.251,1.769 6.12,1.769C2.581,1.769 1.885,5.366 1.885,9.412L1.885,10.602L6.903,10.602L6.903,12.313L1.885,12.313L1.885,31.703L0,31.703Z" style="fill:rgb(255,255,255);fill-rule:nonzero;"/>
            </g>
        </g>
        <g transform="matrix(4.16667,0,0,4.16667,0,0)">
            <g transform="matrix(1,0,0,1,233.774,200.757)">
                <path d="M0,0.101C0,5.365 3.017,9.325 6.86,9.325C10.775,9.325 13.865,5.365 13.865,-0.044C13.865,-3.902 11.95,-9.224 6.976,-9.224C2.146,-9.224 0,-4.438 0,0.101M15.75,-0.175C15.75,7.7 10.935,11.08 6.744,11.08C1.871,11.08 -1.885,6.816 -1.885,0.232C-1.885,-6.976 2.349,-10.979 7.005,-10.979C12.226,-10.979 15.75,-6.585 15.75,-0.175" style="fill:rgb(255,255,255);fill-rule:nonzero;"/>
            </g>
        </g>
        <g transform="matrix(4.16667,0,0,4.16667,0,0)">
            <g transform="matrix(1,0,0,1,255.644,204.543)">
                <path d="M0,-7.948C0,-10.065 -0.029,-12.226 -0.16,-14.286L1.566,-14.286L1.653,-10.022L1.769,-10.022C2.596,-12.661 4.554,-14.764 7.106,-14.764C7.367,-14.764 7.643,-14.721 7.889,-14.677L7.889,-12.661C7.614,-12.748 7.338,-12.748 6.976,-12.748C4.394,-12.748 2.552,-10.239 2.045,-6.86C1.929,-6.237 1.885,-5.541 1.885,-4.83L1.885,6.816L0,6.816L0,-7.948Z" style="fill:rgb(255,255,255);fill-rule:nonzero;"/>
            </g>
        </g>
        <g transform="matrix(4.16667,0,0,4.16667,0,0)">
            <g transform="matrix(1,0,0,1,268.175,189.605)">
                <path d="M0,13.835C1.61,14.763 4.191,15.691 6.86,15.691C9.296,15.691 10.471,14.763 10.471,13.269C10.471,11.819 9.296,10.978 6.309,9.847C1.842,8.077 -1.131,5.307 -1.131,0.913C-1.131,-4.322 2.828,-8.354 9.485,-8.354C12.617,-8.354 14.894,-7.702 16.62,-6.817L15.126,-0.494C13.995,-1.059 12.037,-1.9 9.412,-1.9C7.251,-1.9 6.077,-1.016 6.077,0.304C6.077,1.798 7.483,2.407 10.819,3.77C15.561,5.757 17.679,8.614 17.679,12.747C17.679,17.838 14.155,22.189 6.425,22.189C3.249,22.189 0.16,21.275 -1.334,20.39L0,13.835Z" style="fill:rgb(255,255,255);fill-rule:nonzero;"/>
            </g>
        </g>
        <g transform="matrix(4.16667,0,0,4.16667,0,0)">
            <g transform="matrix(1,0,0,1,308.42,197.594)">
                <path d="M0,6.382C0,9.457 0.087,11.922 0.16,13.764L-5.946,13.764L-6.265,10.907L-6.381,10.907C-7.092,12.096 -8.774,14.242 -12.226,14.242C-16.533,14.242 -19.086,11.124 -19.086,4.888L-19.086,-7.86L-11.994,-7.86L-11.994,3.612C-11.994,6.382 -11.211,7.876 -9.514,7.876C-8.223,7.876 -7.527,6.861 -7.251,6.019C-7.135,5.715 -7.092,5.323 -7.092,4.888L-7.092,-7.86L0,-7.86L0,6.382Z" style="fill:rgb(255,255,255);fill-rule:nonzero;"/>
            </g>
        </g>
        <g transform="matrix(4.16667,0,0,4.16667,0,0)">
            <g transform="matrix(1,0,0,1,312.974,196.363)">
                <path d="M0,8.353C1.102,9.107 3.611,9.977 5.337,9.977C6.86,9.977 7.454,9.629 7.454,8.803C7.454,8.005 7.019,7.657 4.945,6.946C0.667,5.409 -0.783,2.813 -0.74,0.319C-0.74,-4.003 2.552,-7.121 7.643,-7.121C9.992,-7.121 12.11,-6.498 13.371,-5.889L12.24,-0.523C11.327,-1.001 9.528,-1.712 7.962,-1.712C6.744,-1.712 6.033,-1.364 6.033,-0.479C6.033,0.231 6.671,0.667 8.948,1.493C12.748,2.9 14.198,5.104 14.227,8.222C14.227,12.356 11.37,15.474 5.41,15.474C2.712,15.474 0.319,14.821 -1.218,13.937L0,8.353Z" style="fill:rgb(255,255,255);fill-rule:nonzero;"/>
            </g>
        </g>
        <g transform="matrix(4.16667,0,0,4.16667,0,0)">
            <g transform="matrix(1,0,0,1,338.179,211.837)">
                <path d="M0,-28.266L0,-22.102L4.003,-22.102L4.003,-16.301L0,-16.301L0,-10.109C0,-7.513 0.508,-6.454 2.233,-6.454C3.06,-6.454 3.336,-6.454 3.916,-6.628L3.916,-0.609C3.089,-0.261 1.523,0 -0.276,0C-2.349,0 -4.075,-0.827 -5.105,-1.973C-6.28,-3.292 -6.903,-5.41 -6.903,-8.702L-6.903,-16.301L-9.296,-16.301L-9.296,-22.102L-6.903,-22.102L-6.903,-26.149L0,-28.266Z" style="fill:rgb(255,255,255);fill-rule:nonzero;"/>
            </g>
        </g>
        <g transform="matrix(4.16667,0,0,4.16667,0,0)">
            <g transform="matrix(1,0,0,1,355.713,199.611)">
                <path d="M0,1.857C-2.901,1.857 -4.51,2.742 -4.51,4.671C-4.51,6.034 -3.727,6.73 -2.509,6.73C-1.494,6.73 -0.435,5.947 -0.087,4.714C0,4.409 0,4.003 0,3.612L0,1.857ZM6.816,6.469C6.816,8.63 6.932,10.646 7.135,11.748L0.783,11.748L0.421,9.862L0.276,9.862C-1.059,11.574 -2.988,12.226 -5.061,12.226C-9.021,12.226 -11.457,9.021 -11.457,5.425C-11.457,-0.391 -6.787,-2.972 -0.247,-2.972L-0.247,-3.161C-0.247,-4.031 -0.827,-5.003 -3.423,-5.003C-5.453,-5.003 -7.57,-4.205 -8.861,-3.422L-10.079,-8.382C-8.861,-9.136 -6.077,-10.369 -2.088,-10.369C4.539,-10.369 6.816,-6.236 6.816,-0.826L6.816,6.469Z" style="fill:rgb(255,255,255);fill-rule:nonzero;"/>
            </g>
        </g>
        <g transform="matrix(4.16667,0,0,4.16667,0,0)">
            <g transform="matrix(1,0,0,1,0,67.377)">
                <path d="M366.851,122.358L373.943,122.358L373.943,143.982L366.851,143.982L366.851,122.358ZM374.016,116.412C374.016,118.486 372.609,120.153 370.375,120.153C368.185,120.153 366.808,118.486 366.808,116.412C366.808,114.222 368.214,112.641 370.419,112.641C372.609,112.641 373.987,114.222 374.016,116.412" style="fill:rgb(255,255,255);fill-rule:nonzero;"/>
            </g>
        </g>
        <g transform="matrix(4.16667,0,0,4.16667,0,0)">
            <g transform="matrix(1,0,0,1,378.265,203.484)">
                <path d="M0,-6.367C0,-9.268 -0.087,-11.733 -0.16,-13.749L5.961,-13.749L6.265,-10.979L6.381,-10.979C7.092,-12.125 8.977,-14.242 12.182,-14.242C16.693,-14.242 19.158,-10.805 19.158,-4.873L19.158,7.875L12.066,7.875L12.066,-3.902C12.066,-6.411 11.327,-7.861 9.601,-7.861C8.223,-7.861 7.599,-6.802 7.28,-5.975C7.135,-5.584 7.092,-4.96 7.092,-4.395L7.092,7.875L0,7.875L0,-6.367Z" style="fill:rgb(255,255,255);fill-rule:nonzero;"/>
            </g>
        </g>
        <g transform="matrix(4.16667,0,0,4.16667,0,0)">
            <g transform="matrix(1,0,0,1,412.013,199.611)">
                <path d="M0,1.857C-2.901,1.857 -4.51,2.742 -4.51,4.671C-4.51,6.034 -3.727,6.73 -2.509,6.73C-1.494,6.73 -0.435,5.947 -0.087,4.714C0,4.409 0,4.003 0,3.612L0,1.857ZM6.816,6.469C6.816,8.63 6.932,10.646 7.135,11.748L0.783,11.748L0.421,9.862L0.276,9.862C-1.059,11.574 -2.988,12.226 -5.061,12.226C-9.021,12.226 -11.457,9.021 -11.457,5.425C-11.457,-0.391 -6.787,-2.972 -0.247,-2.972L-0.247,-3.161C-0.247,-4.031 -0.827,-5.003 -3.423,-5.003C-5.453,-5.003 -7.57,-4.205 -8.861,-3.422L-10.079,-8.382C-8.861,-9.136 -6.077,-10.369 -2.088,-10.369C4.539,-10.369 6.816,-6.236 6.816,-0.826L6.816,6.469Z" style="fill:rgb(255,255,255);fill-rule:nonzero;"/>
            </g>
        </g>
        <g transform="matrix(4.16667,0,0,4.16667,0,0)">
            <g transform="matrix(1,0,0,1,430.243,190.039)">
                <path d="M0,11.907C0,12.313 0.044,12.705 0.073,13.009C0.348,14.416 1.45,15.605 2.857,15.605C4.945,15.605 6.265,13.85 6.265,10.413C6.265,7.469 5.206,5.279 2.857,5.279C1.494,5.279 0.319,6.41 0.073,7.948C0.044,8.31 0,8.658 0,9.006L0,11.907ZM-7.063,-9.891L0,-9.891L0,1.886L0.073,1.886C1.175,0.261 3.089,-0.797 5.569,-0.797C10.108,-0.797 13.488,3.423 13.444,10.065C13.444,17.897 9.05,21.798 4.583,21.798C2.552,21.798 0.392,20.971 -0.899,18.549L-0.986,18.549L-1.262,21.319L-7.208,21.319C-7.135,19.912 -7.063,17.142 -7.063,14.459L-7.063,-9.891Z" style="fill:rgb(255,255,255);fill-rule:nonzero;"/>
            </g>
        </g>
        <g transform="matrix(4.16667,0,0,4.16667,0,0)">
            <g transform="matrix(1,0,0,1,0,67.377)">
                <path d="M447.008,122.358L454.1,122.358L454.1,143.982L447.008,143.982L447.008,122.358ZM454.172,116.412C454.172,118.486 452.765,120.153 450.532,120.153C448.342,120.153 446.964,118.486 446.964,116.412C446.964,114.222 448.371,112.641 450.575,112.641C452.765,112.641 454.143,114.222 454.172,116.412" style="fill:rgb(255,255,255);fill-rule:nonzero;"/>
            </g>
        </g>
        <g transform="matrix(4.16667,0,0,4.16667,0,0)">
            <g transform="matrix(1,0,0,1,0,67.508)">
                <rect x="458.436" y="112.641" width="7.092" height="31.21" style="fill:rgb(255,255,255);"/>
            </g>
        </g>
        <g transform="matrix(4.16667,0,0,4.16667,0,0)">
            <g transform="matrix(1,0,0,1,0,67.377)">
                <path d="M469.864,122.358L476.956,122.358L476.956,143.982L469.864,143.982L469.864,122.358ZM477.028,116.412C477.028,118.486 475.621,120.153 473.388,120.153C471.198,120.153 469.82,118.486 469.82,116.412C469.82,114.222 471.227,112.641 473.432,112.641C475.621,112.641 476.999,114.222 477.028,116.412" style="fill:rgb(255,255,255);fill-rule:nonzero;"/>
            </g>
        </g>
        <g transform="matrix(4.16667,0,0,4.16667,0,0)">
            <g transform="matrix(1,0,0,1,489.036,211.837)">
                <path d="M0,-28.266L0,-22.102L4.003,-22.102L4.003,-16.301L0,-16.301L0,-10.109C0,-7.513 0.508,-6.454 2.233,-6.454C3.06,-6.454 3.336,-6.454 3.916,-6.628L3.916,-0.609C3.089,-0.261 1.523,0 -0.276,0C-2.349,0 -4.075,-0.827 -5.105,-1.973C-6.28,-3.292 -6.903,-5.41 -6.903,-8.702L-6.903,-16.301L-9.296,-16.301L-9.296,-22.102L-6.903,-22.102L-6.903,-26.149L0,-28.266Z" style="fill:rgb(255,255,255);fill-rule:nonzero;"/>
            </g>
        </g>
        <g transform="matrix(4.16667,0,0,4.16667,0,0)">
            <g transform="matrix(1,0,0,1,502.132,221.075)">
                <path d="M0,-31.34L2.32,-21.623C2.596,-20.448 2.944,-18.853 3.176,-17.765L3.292,-17.765C3.524,-18.911 3.8,-20.492 4.003,-21.58L5.772,-31.34L13.284,-31.34L9.18,-17.591C6.28,-8.527 4.394,-5.235 2.32,-3.161C0.087,-0.971 -2.306,-0.217 -4.119,0L-5.569,-6.685C-4.858,-6.816 -4.003,-7.077 -3.133,-7.512C-2.233,-7.918 -1.334,-8.788 -0.856,-9.499C-0.667,-9.804 -0.508,-10.152 -0.508,-10.471C-0.508,-10.732 -0.551,-11.08 -0.783,-11.602L-7.831,-31.34L0,-31.34Z" style="fill:rgb(255,255,255);fill-rule:nonzero;"/>
            </g>
        </g>
        <g transform="matrix(4.16667,0,0,4.16667,0,0)">
            <g transform="matrix(1,0,0,1,298.712,127.778)">
                <path d="M0,-58.223L-21.604,-58.223L-21.604,-76.052L39.885,-76.052L39.885,-58.223L18.042,-58.223L18.042,17.829L0,17.829L0,-58.223Z" style="fill:rgb(255,255,255);fill-rule:nonzero;"/>
            </g>
        </g>
        <g transform="matrix(4.16667,0,0,4.16667,0,0)">
            <g transform="matrix(1,0,0,1,379.926,62.1945)">
                <path d="M0,72.945L-6.441,45.664C-9.05,34.524 -11.66,21.15 -13.679,8.893L-13.915,8.893C-14.274,21.57 -14.746,36.057 -15.222,47.755L-16.765,83.413L-33.502,83.413L-28.402,-10.468L-4.298,-10.468L3.535,20.873C6.143,31.736 8.517,43.439 10.301,54.44L10.773,54.44C12.91,43.577 15.642,31.182 18.369,20.735L26.797,-10.468L50.541,-10.468L54.812,83.413L37.244,83.413L35.942,47.478C35.583,36.196 35.224,22.545 35.224,8.893L34.989,8.893C32.374,20.873 29.053,34.242 25.967,45.248L18.61,72.945" style="fill:rgb(255,255,255);fill-rule:nonzero;"/>
            </g>
        </g>
        <g transform="matrix(4.16667,0,0,4.16667,0,0)">
            <g transform="matrix(1,0,0,1,514.953,55.9758)">
                <path d="M0,85.291C-5.584,87.524 -16.156,90.584 -26.714,90.584C-41.318,90.584 -51.891,86.263 -59.258,78.04C-66.495,69.817 -70.527,57.562 -70.527,43.77C-70.411,12.545 -51.064,-5.293 -24.814,-5.293C-14.488,-5.293 -6.526,-2.929 -2.61,-0.826L-6.41,16.302C-10.805,13.938 -16.156,12.27 -24.93,12.27C-40.013,12.27 -51.528,22.161 -51.528,42.653C-51.528,62.159 -41.086,73.442 -26.25,73.442C-22.204,73.442 -18.883,72.891 -17.461,72.195L-17.461,52.399L-29.803,52.399L-29.803,35.822L0,35.822L0,85.291Z" style="fill:rgb(255,255,255);fill-rule:nonzero;"/>
            </g>
        </g>
        <g transform="matrix(4.16667,0,0,4.16667,0,0)">
            <g transform="matrix(1,0,0,1,270.321,155.813)">
                <path d="M0,-128.537C-11.776,-112.932 -20.173,-92.585 -20.173,-63.869C-20.173,-35.807 -11.298,-15.778 0,0L-10.979,0C-21.145,-13.095 -32.109,-33.283 -32.109,-64.029C-31.949,-94.949 -21.145,-115.296 -10.979,-128.537L0,-128.537Z" style="fill:rgb(255,255,255);fill-rule:nonzero;"/>
            </g>
        </g>
        <g transform="matrix(4.16667,0,0,4.16667,0,0)">
            <g transform="matrix(1,0,0,1,526.7,61.6613)">
                <path d="M0,138.704C11.776,121.852 20.173,99.895 20.173,68.932C20.173,38.635 11.298,17.026 0,0L10.979,0C21.145,14.126 32.109,35.909 32.109,69.091C31.949,102.447 21.145,124.404 10.979,138.704L0,138.704Z" style="fill:rgb(255,255,255);fill-rule:nonzero;"/>
            </g>
        </g>
        <g transform="matrix(4.16667,0,0,4.16667,0,0)">
            <g transform="matrix(1,0,0,1,527.617,220.844)">
                <path d="M0,59.156L-380.637,59.156C-384.53,59.156 -387.718,55.973 -387.718,52.077L-387.718,7.084C-387.718,3.188 -384.53,0 -380.637,0L0,0C3.896,0 7.084,3.188 7.084,7.084L7.084,52.077C7.084,55.973 3.896,59.156 0,59.156" style="fill:rgb(255,255,255);fill-rule:nonzero;"/>
            </g>
        </g>
        <g transform="matrix(4.16667,0,0,4.16667,0,0)">
            <g transform="matrix(1,0,0,1,167.146,259.485)">
                <path d="M0,-19.566L-7.52,-19.566L-7.52,-23.872L12.415,-23.872L12.415,-19.566L4.818,-19.566L4.818,4.306L0,4.306L0,-19.566Z" style="fill:black;fill-rule:nonzero;"/>
            </g>
        </g>
        <g transform="matrix(4.16667,0,0,4.16667,0,0)">
            <g transform="matrix(1,0,0,1,197.191,245.941)">
                <path d="M0,7.48C0,14.964 -4.936,18.311 -9.793,18.311C-15.158,18.311 -19.348,14.38 -19.348,7.818C-19.348,1.123 -15.237,-2.972 -9.478,-2.972C-3.798,-2.972 0,1.293 0,7.48M-15.981,-8.237C-15.981,-9.703 -14.922,-10.831 -13.512,-10.831C-12.221,-10.831 -11.203,-9.744 -11.203,-8.237C-11.203,-6.858 -12.182,-5.689 -13.592,-5.689C-14.963,-5.689 -15.981,-6.858 -15.981,-8.237M-14.374,7.69C-14.374,11.622 -12.534,14.59 -9.634,14.59C-6.895,14.59 -4.975,11.745 -4.975,7.608C-4.975,4.43 -6.305,0.749 -9.596,0.749C-13.005,0.749 -14.374,4.302 -14.374,7.69M-5.836,-5.689C-7.169,-5.689 -8.187,-6.858 -8.187,-8.237C-8.187,-9.703 -7.128,-10.831 -5.759,-10.831C-4.426,-10.831 -3.409,-9.744 -3.409,-8.237C-3.409,-6.858 -4.388,-5.689 -5.759,-5.689L-5.836,-5.689Z" style="fill:black;fill-rule:nonzero;"/>
            </g>
        </g>
        <g transform="matrix(4.16667,0,0,4.16667,0,0)">
            <g transform="matrix(1,0,0,1,200.756,264.837)">
                <path d="M0,-14.635C0,-17.311 -0.079,-19.484 -0.159,-21.407L4.073,-21.407L4.308,-18.269L4.386,-18.269C5.795,-20.571 8.028,-21.868 10.927,-21.868C15.314,-21.868 18.956,-17.854 18.956,-11.498C18.956,-4.142 14.607,-0.584 10.26,-0.584C7.871,-0.584 5.875,-1.671 4.895,-3.301L4.816,-3.301L4.816,7.233L0,7.233L0,-14.635ZM4.816,-9.576C4.816,-9.073 4.854,-8.612 4.934,-8.155C5.444,-6.064 7.128,-4.557 9.204,-4.557C12.259,-4.557 14.061,-7.274 14.061,-11.287C14.061,-14.886 12.415,-17.813 9.322,-17.813C7.323,-17.813 5.482,-16.265 4.972,-14.004C4.895,-13.589 4.816,-13.128 4.816,-12.713L4.816,-9.576Z" style="fill:black;fill-rule:nonzero;"/>
            </g>
        </g>
        <g transform="matrix(4.16667,0,0,4.16667,0,0)">
            <g transform="matrix(1,0,0,1,223.867,233.644)">
                <path d="M0,30.147L0,13.631L-2.586,13.631L-2.586,9.786L0,9.786L0,8.909C0,6.275 0.664,3.64 2.31,1.969C3.719,0.544 5.601,0 7.284,0C8.576,0 9.594,0.251 10.34,0.503L10.027,4.475C9.478,4.265 8.851,4.101 7.951,4.101C5.559,4.101 4.778,6.234 4.778,8.74L4.778,9.786L8.93,9.786L8.93,13.631L4.816,13.631L4.816,30.147L0,30.147Z" style="fill:black;fill-rule:nonzero;"/>
            </g>
        </g>
        <g transform="matrix(4.16667,0,0,4.16667,0,0)">
            <g transform="matrix(1,0,0,1,238.436,252.129)">
                <path d="M0,2.922C0.118,6.603 2.781,8.192 5.875,8.192C8.107,8.192 9.673,7.817 11.162,7.274L11.867,10.786C10.222,11.539 7.951,12.082 5.208,12.082C-0.979,12.082 -4.621,8.023 -4.621,1.794C-4.621,-3.85 -1.409,-9.16 4.701,-9.16C10.888,-9.16 12.926,-3.721 12.926,0.748C12.926,1.712 12.846,2.466 12.77,2.922L0,2.922ZM8.381,-0.672C8.422,-2.553 7.638,-5.649 4.427,-5.649C1.448,-5.649 0.195,-2.763 0,-0.672L8.381,-0.672Z" style="fill:black;fill-rule:nonzero;"/>
            </g>
        </g>
        <g transform="matrix(4.16667,0,0,4.16667,0,0)">
            <g transform="matrix(1,0,0,1,254.889,256.769)">
                <path d="M0,-6.778C0,-9.535 -0.041,-11.54 -0.159,-13.34L3.993,-13.34L4.191,-9.494L4.308,-9.494C5.246,-12.335 7.479,-13.8 9.555,-13.8C10.027,-13.8 10.301,-13.76 10.69,-13.672L10.69,-8.864C10.26,-8.951 9.83,-8.992 9.243,-8.992C6.971,-8.992 5.365,-7.444 4.934,-5.101C4.854,-4.645 4.816,-4.102 4.816,-3.559L4.816,7.022L0,7.022L0,-6.778Z" style="fill:black;fill-rule:nonzero;"/>
            </g>
        </g>
        <g transform="matrix(4.16667,0,0,4.16667,0,0)">
            <g transform="matrix(1,0,0,1,298.717,247.111)">
                <path d="M0,5.182C-0.156,1.543 -0.354,-2.846 -0.312,-6.649L-0.43,-6.649C-1.292,-3.22 -2.389,0.584 -3.565,4.136L-7.441,16.347L-11.124,16.347L-14.648,4.305C-15.668,0.707 -16.606,-3.137 -17.311,-6.649L-17.391,-6.649C-17.508,-2.968 -17.665,1.501 -17.859,5.351L-18.446,16.68L-22.952,16.68L-21.189,-11.498L-14.845,-11.498L-11.398,-0.17C-10.457,3.132 -9.634,6.479 -8.968,9.616L-8.853,9.616C-8.148,6.561 -7.245,3.091 -6.228,-0.211L-2.586,-11.498L3.681,-11.498L5.208,16.68L0.51,16.68L0,5.182Z" style="fill:black;fill-rule:nonzero;"/>
            </g>
        </g>
        <g transform="matrix(4.16667,0,0,4.16667,0,0)">
            <g transform="matrix(1,0,0,1,325.314,241.676)">
                <path d="M0,16.01C0,18.435 0.08,20.444 0.157,22.115L-4.034,22.115L-4.268,19.065L-4.385,19.065C-5.208,20.485 -7.089,22.576 -10.534,22.576C-13.982,22.576 -17.155,20.357 -17.155,13.713L-17.155,1.754L-12.336,1.754L-12.336,12.832C-12.336,16.22 -11.318,18.394 -8.773,18.394C-6.815,18.394 -5.562,16.974 -5.09,15.636C-4.895,15.215 -4.816,14.631 -4.816,14.046L-4.816,1.754L0,1.754L0,16.01ZM-14.727,-3.972C-14.727,-5.438 -13.669,-6.566 -12.259,-6.566C-10.967,-6.566 -9.947,-5.479 -9.947,-3.972C-9.947,-2.593 -10.926,-1.424 -12.336,-1.424C-13.707,-1.424 -14.727,-2.593 -14.727,-3.972M-4.542,-1.424C-5.874,-1.424 -6.892,-2.593 -6.892,-3.972C-6.892,-5.438 -5.836,-6.566 -4.465,-6.566C-3.132,-6.566 -2.114,-5.479 -2.114,-3.972C-2.114,-2.593 -3.093,-1.424 -4.465,-1.424L-4.542,-1.424Z" style="fill:black;fill-rule:nonzero;"/>
            </g>
        </g>
        <g transform="matrix(4.16667,0,0,4.16667,0,0)">
            <g transform="matrix(1,0,0,1,353.011,252.129)">
                <path d="M0,2.922C0.118,6.603 2.784,8.192 5.874,8.192C8.11,8.192 9.673,7.817 11.165,7.274L11.867,10.786C10.221,11.539 7.95,12.082 5.208,12.082C-0.979,12.082 -4.624,8.023 -4.624,1.794C-4.624,-3.85 -1.41,-9.16 4.701,-9.16C10.888,-9.16 12.923,-3.721 12.923,0.748C12.923,1.712 12.846,2.466 12.769,2.922L0,2.922ZM8.381,-0.672C8.422,-2.553 7.638,-5.649 4.424,-5.649C1.451,-5.649 0.195,-2.763 0,-0.672L8.381,-0.672Z" style="fill:black;fill-rule:nonzero;"/>
            </g>
        </g>
        <g transform="matrix(4.16667,0,0,4.16667,0,0)">
            <g transform="matrix(1,0,0,1,369.461,256.769)">
                <path d="M0,-6.778C0,-9.535 -0.036,-11.54 -0.154,-13.34L3.998,-13.34L4.193,-9.494L4.311,-9.494C5.249,-12.335 7.484,-13.8 9.56,-13.8C10.026,-13.8 10.304,-13.76 10.693,-13.672L10.693,-8.864C10.263,-8.951 9.832,-8.992 9.242,-8.992C6.971,-8.992 5.367,-7.444 4.936,-5.101C4.86,-4.645 4.818,-4.102 4.818,-3.559L4.818,7.022L0,7.022L0,-6.778Z" style="fill:black;fill-rule:nonzero;"/>
            </g>
        </g>
        <g transform="matrix(4.16667,0,0,4.16667,0,0)">
            <g transform="matrix(1,0,0,1,412.152,236.909)">
                <path d="M0,25.585C-1.681,26.257 -4.972,27.174 -8.458,27.174C-12.923,27.174 -16.332,25.964 -18.839,23.411C-21.186,21.028 -22.52,17.306 -22.52,13.041C-22.478,4.096 -16.568,-1.589 -7.833,-1.589C-4.583,-1.589 -2.035,-0.881 -0.82,-0.251L-1.876,3.886C-3.327,3.173 -5.09,2.676 -7.869,2.676C-13.513,2.676 -17.465,6.229 -17.465,12.79C-17.465,19.187 -13.784,22.991 -8.3,22.991C-6.541,22.991 -5.285,22.745 -4.66,22.448L-4.66,15.384L-9.319,15.384L-9.319,11.329L0,11.329L0,25.585Z" style="fill:black;fill-rule:nonzero;"/>
            </g>
        </g>
        <g transform="matrix(4.16667,0,0,4.16667,0,0)">
            <g transform="matrix(1,0,0,1,431.657,248.321)">
                <path d="M0,10.58C0,12.42 0.082,14.215 0.318,15.47L-4.034,15.47L-4.383,13.215L-4.501,13.215C-5.639,14.799 -7.633,15.932 -10.139,15.932C-13.979,15.932 -16.132,12.964 -16.132,9.868C-16.132,4.767 -11.867,2.132 -4.814,2.173L-4.814,1.84C-4.814,0.502 -5.326,-1.713 -8.694,-1.713C-10.575,-1.713 -12.534,-1.087 -13.825,-0.211L-14.763,-3.553C-13.353,-4.476 -10.888,-5.352 -7.869,-5.352C-1.759,-5.352 0,-1.21 0,3.26L0,10.58ZM-4.695,5.52C-8.104,5.479 -11.355,6.228 -11.355,9.324C-11.355,11.334 -10.139,12.251 -8.617,12.251C-6.654,12.251 -5.285,10.913 -4.814,9.447C-4.695,9.073 -4.695,8.699 -4.695,8.319L-4.695,5.52Z" style="fill:black;fill-rule:nonzero;"/>
            </g>
        </g>
        <g transform="matrix(4.16667,0,0,4.16667,0,0)">
            <g transform="matrix(1,0,0,1,436.398,234.105)">
                <path d="M0,29.686L0,11.288C0,6.521 1.097,3.763 2.902,1.964C4.506,0.375 6.659,-0.461 9.401,-0.461C13.672,-0.461 17.158,2.302 17.158,6.983C17.158,8.32 16.763,9.658 16.255,10.412C14.609,11.206 13.749,12.293 13.749,13.508C13.749,14.677 14.338,15.513 15.353,16.681C16.804,18.27 18.49,20.069 18.49,23.166C18.49,27.302 15.707,30.147 11.006,30.147C9.56,30.147 7.951,29.896 6.818,29.394L7.52,25.55C8.346,25.965 9.401,26.216 10.498,26.216C12.533,26.216 13.672,25.006 13.672,23.458C13.672,22.12 13.082,21.198 11.949,19.947C10.539,18.439 8.93,16.727 8.93,14.175C8.93,12.083 10.068,10.202 12.221,9.033C12.416,8.572 12.533,8.028 12.533,7.403C12.533,5.06 11.165,3.512 9.012,3.512C6.464,3.512 4.819,5.434 4.819,10.914L4.819,29.686L0,29.686Z" style="fill:black;fill-rule:nonzero;"/>
            </g>
        </g>
        <g transform="matrix(4.16667,0,0,4.16667,0,0)">
            <g transform="matrix(1,0,0,1,458.611,257.266)">
                <path d="M0,-7.772C0,-10.115 -0.077,-12.083 -0.154,-13.837L4.034,-13.837L4.27,-10.786L4.388,-10.786C5.249,-12.375 7.325,-14.297 10.498,-14.297C13.825,-14.297 17.275,-11.996 17.275,-5.557L17.275,6.525L12.456,6.525L12.456,-4.973C12.456,-7.9 11.436,-10.115 8.812,-10.115C6.894,-10.115 5.562,-8.654 5.055,-7.106C4.895,-6.686 4.818,-6.06 4.818,-5.476L4.818,6.525L0,6.525L0,-7.772Z" style="fill:black;fill-rule:nonzero;"/>
            </g>
        </g>
        <g transform="matrix(4.16667,0,0,4.16667,0,0)">
            <g transform="matrix(1,0,0,1,484.072,252.129)">
                <path d="M0,2.922C0.117,6.603 2.778,8.192 5.874,8.192C8.109,8.192 9.673,7.817 11.164,7.274L11.867,10.786C10.221,11.539 7.95,12.082 5.208,12.082C-0.98,12.082 -4.624,8.023 -4.624,1.794C-4.624,-3.85 -1.41,-9.16 4.701,-9.16C10.888,-9.16 12.923,-3.721 12.923,0.748C12.923,1.712 12.846,2.466 12.769,2.922L0,2.922ZM8.381,-0.672C8.422,-2.553 7.638,-5.649 4.423,-5.649C1.45,-5.649 0.195,-2.763 0,-0.672L8.381,-0.672Z" style="fill:black;fill-rule:nonzero;"/>
            </g>
        </g>
        <g transform="matrix(4.16667,0,0,4.16667,0,0)">
            <g transform="matrix(1,0,0,1,500.522,256.769)">
                <path d="M0,-6.778C0,-9.535 -0.036,-11.54 -0.154,-13.34L3.999,-13.34L4.194,-9.494L4.311,-9.494C5.249,-12.335 7.484,-13.8 9.56,-13.8C10.027,-13.8 10.304,-13.76 10.694,-13.672L10.694,-8.864C10.263,-8.951 9.832,-8.992 9.243,-8.992C6.972,-8.992 5.367,-7.444 4.937,-5.101C4.86,-4.645 4.819,-4.102 4.819,-3.559L4.819,7.022L0,7.022L0,-6.778Z" style="fill:black;fill-rule:nonzero;"/>
            </g>
        </g>
        <g transform="matrix(4.16667,0,0,4.16667,0,0)">
            <g transform="matrix(1,0,0,1,336.657,237.978)">
                <path d="M0,22.441C0,22.441 -1.636,23.374 -1.637,22.49L-1.637,21.166L-1.645,21.166L-1.664,-3.873L-6.483,-3.873C-6.477,4.67 -6.47,13.212 -6.463,21.754L-6.46,21.754L-6.46,23.374C-6.46,24.705 -5.374,26.233 -4.047,26.233C-4.047,26.233 -2.234,26.314 -1.637,26.233C0.233,25.981 1.202,24.852 1.202,24.852L0,22.441Z" style="fill:black;fill-rule:nonzero;"/>
            </g>
        </g>
        <g transform="matrix(4.16667,0,0,4.16667,0,0)">
            <g transform="matrix(1,0,0,1,346.371,237.771)">
                <path d="M0,22.441C0,22.441 -1.636,23.374 -1.637,22.49L-1.637,21.166L-1.645,21.166L-1.664,-3.873L-6.483,-3.873C-6.477,4.67 -6.47,13.212 -6.463,21.754L-6.46,21.754L-6.46,23.374C-6.46,24.705 -5.374,26.233 -4.047,26.233C-4.047,26.233 -2.234,26.314 -1.637,26.233C0.233,25.981 1.202,24.852 1.202,24.852L0,22.441Z" style="fill:black;fill-rule:nonzero;"/>
            </g>
        </g>
    </g>
</svg>
