<?xml version="1.0" encoding="UTF-8"?>
<svg id="Layer_2" data-name="Layer 2" xmlns="http://www.w3.org/2000/svg" viewBox="0 0 2055.07 1100.04">
  <g id="HG">
    <rect x="1620.63" y="359.64" width="44.14" height="218.86" style="fill: #85c695;"/>
    <rect x="1282.5" y="602.58" width="36.76" height="89.28" style="fill: #85c695;"/>
    <rect x="1134.23" y="579.26" width="21.11" height="153.53" style="fill: #85c695;"/>
    <g>
      <path d="M1867.36,169.47c0-53.77-43.59-97.37-97.37-97.37-1.31,0-2.61.05-3.91.1C1754.86,30.82,1717.06.38,1672.13.38c-30.73,0-58.12,14.25-75.97,36.49-9.36-2.99-19.33-4.62-29.68-4.62-48.83,0-89.26,35.95-96.28,82.82-29.62,16.7-49.63,48.43-49.63,84.86,0,31.11,14.6,58.78,37.31,76.61-12.99,16.55-20.76,37.39-20.76,60.05,0,53.77,43.59,97.37,97.37,97.37,12.86,0,25.13-2.5,36.37-7.02,13.32,37.91,49.41,65.1,91.87,65.1,46.07,0,84.64-32,94.75-74.98,9.41,3.03,19.44,4.68,29.86,4.68,53.77,0,97.37-43.59,97.37-97.37,0-35.77-19.3-67.02-48.05-83.95,18.89-17.76,30.71-42.96,30.71-70.93" style="fill: #85c695;"/>
      <path d="M1867.36,169.47c0-53.77-43.59-97.37-97.37-97.37-1.31,0-2.61.05-3.91.1C1754.86,30.82,1717.06.38,1672.13.38c-30.73,0-58.12,14.25-75.97,36.49-9.36-2.99-19.33-4.62-29.68-4.62-48.83,0-89.26,35.95-96.28,82.82-29.62,16.7-49.63,48.43-49.63,84.86,0,31.11,14.6,58.78,37.31,76.61-12.99,16.55-20.76,37.39-20.76,60.05,0,53.77,43.59,97.37,97.37,97.37,12.86,0,25.13-2.5,36.37-7.02,13.32,37.91,49.41,65.1,91.87,65.1,46.07,0,84.64-32,94.75-74.98,9.41,3.03,19.44,4.68,29.86,4.68,53.77,0,97.37-43.59,97.37-97.37,0-35.77-19.3-67.02-48.05-83.95,18.89-17.76,30.71-42.96,30.71-70.93Z" style="fill: none; stroke: #fff; stroke-linecap: round; stroke-linejoin: round; stroke-width: .75px;"/>
    </g>
    <path d="M1541.61,499.34c0-32.87-17.44-61.6-43.52-77.66,16.22-13.63,26.56-34.04,26.56-56.88,0-28.97-16.63-54.01-40.83-66.25,6.27-7.54,10.05-17.23,10.05-27.81,0-24.03-19.48-43.51-43.51-43.51-24.03,0-43.51,19.48-43.51,43.51,0,10.58,3.78,20.27,10.06,27.81-24.2,12.24-40.83,37.28-40.83,66.25,0,22.84,10.33,43.26,26.56,56.88-26.08,16.06-43.52,44.79-43.52,77.66,0,45.8,33.75,83.72,77.74,90.25v55.38s4.2,0,4.2,0v34.34s18.61,0,18.61,0v-34.34s13.97,0,13.97,0v-57.4c39.11-10.29,67.96-45.88,67.96-88.22Z" style="fill: #00837b; stroke: #003c5e; stroke-miterlimit: 10;"/>
    <g>
      <path d="M1214.9,536c0-26.22-21.26-47.48-47.48-47.48-.64,0-1.27.02-1.91.05-5.47-20.18-23.91-35.02-45.82-35.02-14.99,0-28.34,6.95-37.04,17.8-4.56-1.46-9.42-2.25-14.47-2.25-23.81,0-43.53,17.53-46.95,40.39-14.44,8.14-24.2,23.62-24.2,41.38,0,15.17,7.12,28.66,18.19,37.36-6.33,8.07-10.12,18.23-10.12,29.29,0,26.22,21.26,47.48,47.48,47.48,6.27,0,12.26-1.22,17.73-3.43,6.49,18.49,24.09,31.74,44.8,31.74,22.46,0,41.27-15.61,46.21-36.57,4.59,1.48,9.48,2.28,14.56,2.28,26.22,0,47.48-21.26,47.48-47.48,0-17.45-9.41-32.68-23.43-40.94,9.21-8.66,14.97-20.95,14.97-34.59" style="fill: #85c695;"/>
      <path d="M1214.9,536c0-26.22-21.26-47.48-47.48-47.48-.64,0-1.27.02-1.91.05-5.47-20.18-23.91-35.02-45.82-35.02-14.99,0-28.34,6.95-37.04,17.8-4.56-1.46-9.42-2.25-14.47-2.25-23.81,0-43.53,17.53-46.95,40.39-14.44,8.14-24.2,23.62-24.2,41.38,0,15.17,7.12,28.66,18.19,37.36-6.33,8.07-10.12,18.23-10.12,29.29,0,26.22,21.26,47.48,47.48,47.48,6.27,0,12.26-1.22,17.73-3.43,6.49,18.49,24.09,31.74,44.8,31.74,22.46,0,41.27-15.61,46.21-36.57,4.59,1.48,9.48,2.28,14.56,2.28,26.22,0,47.48-21.26,47.48-47.48,0-17.45-9.41-32.68-23.43-40.94,9.21-8.66,14.97-20.95,14.97-34.59Z" style="fill: none; stroke: #fff; stroke-linecap: round; stroke-linejoin: round; stroke-width: .75px;"/>
    </g>
    <g>
      <path d="M1439.69,397.3c0-37.19-30.15-67.34-67.34-67.34-.91,0-1.81.03-2.7.07-7.76-28.62-33.91-49.67-64.98-49.67-21.25,0-40.2,9.86-52.54,25.24-6.47-2.07-13.37-3.2-20.52-3.2-33.77,0-61.73,24.86-66.59,57.28-20.48,11.55-34.33,33.49-34.33,58.69,0,21.51,10.1,40.65,25.8,52.98-8.98,11.44-14.36,25.86-14.36,41.53,0,37.19,30.15,67.34,67.34,67.34,8.89,0,17.38-1.73,25.15-4.86,9.21,26.22,34.17,45.02,63.54,45.02,31.86,0,58.53-22.13,65.53-51.86,6.51,2.1,13.45,3.24,20.65,3.24,37.19,0,67.34-30.15,67.34-67.34,0-24.74-13.35-46.35-33.23-58.06,13.07-12.28,21.24-29.71,21.24-49.06" style="fill: #85c695;"/>
      <path d="M1439.69,397.3c0-37.19-30.15-67.34-67.34-67.34-.91,0-1.81.03-2.7.07-7.76-28.62-33.91-49.67-64.98-49.67-21.25,0-40.2,9.86-52.54,25.24-6.47-2.07-13.37-3.2-20.52-3.2-33.77,0-61.73,24.86-66.59,57.28-20.48,11.55-34.33,33.49-34.33,58.69,0,21.51,10.1,40.65,25.8,52.98-8.98,11.44-14.36,25.86-14.36,41.53,0,37.19,30.15,67.34,67.34,67.34,8.89,0,17.38-1.73,25.15-4.86,9.21,26.22,34.17,45.02,63.54,45.02,31.86,0,58.53-22.13,65.53-51.86,6.51,2.1,13.45,3.24,20.65,3.24,37.19,0,67.34-30.15,67.34-67.34,0-24.74-13.35-46.35-33.23-58.06,13.07-12.28,21.24-29.71,21.24-49.06Z" style="fill: none; stroke: #fff; stroke-linecap: round; stroke-linejoin: round; stroke-width: .75px;"/>
    </g>
    <path d="M1302.67,590.68c0-24.34-12.91-45.6-32.22-57.49,12.01-10.09,19.66-25.2,19.66-42.11,0-21.45-12.31-39.99-30.23-49.05,4.65-5.58,7.44-12.76,7.44-20.59,0-17.79-14.42-32.21-32.21-32.21-17.79,0-32.21,14.42-32.21,32.21,0,7.83,2.8,15,7.45,20.59-17.92,9.07-30.23,27.6-30.23,49.05,0,16.91,7.65,32.03,19.66,42.12-19.31,11.89-32.22,33.16-32.22,57.49,0,33.91,27.6,61.98,60.17,66.81v48.36s20.79,0,20.79,0v-49.86c28.96-7.62,54.14-33.97,54.14-65.32Z" style="fill: #00837b; stroke: #003c5e; stroke-miterlimit: 10;"/>
    <path d="M1143.27,656.93c0-16.96-9-31.78-22.45-40.06,8.37-7.03,13.7-17.56,13.7-29.35,0-14.95-8.58-27.86-21.06-34.18,3.24-3.89,5.19-8.89,5.19-14.35,0-12.4-10.05-22.44-22.44-22.44-12.4,0-22.44,10.05-22.44,22.44,0,5.46,1.95,10.46,5.19,14.35-12.48,6.32-21.06,19.23-21.06,34.18,0,11.78,5.33,22.32,13.7,29.35-13.45,8.29-22.45,23.1-22.45,40.06,0,23.63,19.23,43.19,41.93,46.56v49.8s14.49,0,14.49,0v-50.85c20.18-5.31,37.72-23.67,37.72-45.51Z" style="fill: #00837b; stroke: #003c5e; stroke-miterlimit: 10;"/>
    <polygon points="0 1100.04 2055.07 1100.04 2055.07 429.69 0 1100.04" style="fill: #0f8a81;"/>
    <path d="M1637.52,522.42c-34.53,5.28-60.35-9.05-66.38-42.85" style="fill: none; stroke: #85c695; stroke-miterlimit: 10; stroke-width: 20px;"/>
  </g>
  <g id="Logo">
    <path d="M1198.69,865.14c.34-.66,3.55,1,3.89.34s-2.86-2.33-2.51-2.99,3.55,1,3.89.34-2.86-2.33-2.51-2.99,3.55,1,3.89.34-2.86-2.33-2.51-3c.46-.89,3.96.36,4.61-.34s-.87-4.1-.05-4.62,3.23,2.31,4.16,2.01,1.27-3.99,2.25-4.04,1.64,3.6,2.61,3.81,3.08-2.83,3.97-2.37c2.8,1.46,1.14,4.66,3.94,6.12s4.47-1.75,7.27-.29c2.8,1.46,1.14,4.66,3.94,6.11,2.8,1.46,4.47-1.75,7.27-.29,2.8,1.46,1.14,4.66,3.94,6.12s4.47-1.75,7.27-.29c.89.46-.36,3.96.34,4.61s4.1-.87,4.62-.05-2.31,3.23-2.01,4.16,3.99,1.27,4.04,2.25-3.6,1.64-3.81,2.61,2.83,3.08,2.37,3.97c-.34.66-3.55-1-3.89-.34s2.86,2.33,2.51,2.99-3.55-1-3.89-.34,2.86,2.33,2.51,2.99-3.55-1-3.89-.34,2.86,2.33,2.51,3c-.46.89-3.96-.36-4.61.34s.87,4.1.05,4.62-3.23-2.31-4.16-2.01-1.27,3.99-2.25,4.04-1.64-3.6-2.61-3.81-3.08,2.83-3.97,2.37c-2.8-1.46-1.14-4.66-3.94-6.12s-4.47,1.75-7.27.29-1.14-4.66-3.94-6.11-4.47,1.75-7.27.29c-2.8-1.46-1.14-4.66-3.94-6.12s-4.47,1.75-7.27.29c-.89-.46.36-3.96-.34-4.61s-4.1.87-4.62.05,2.31-3.23,2.01-4.16-3.99-1.27-4.04-2.25,3.6-1.64,3.81-2.61-2.83-3.08-2.37-3.97Z" style="fill: #003c5e;"/>
    <g>
      <path d="M1271.48,911.7h0c-1.15-.19-2.33-.04-3.39.44h0c-1.65.74-3.54.68-5.15-.15h0c-1.03-.53-2.2-.75-3.36-.63h0c-1.8.19-3.58-.44-4.85-1.73h0c-.82-.83-1.86-1.4-3-1.64h0c-1.77-.37-3.27-1.53-4.08-3.14h0c-.52-1.04-1.34-1.9-2.35-2.48h0c-1.57-.9-2.64-2.46-2.91-4.25h0c-.17-1.15-.68-2.22-1.46-3.09h0c-1.21-1.34-1.75-3.16-1.45-4.94h0c.19-1.15.04-2.33-.44-3.39h0c-.74-1.65-.68-3.54.15-5.15h0c.53-1.03.75-2.2.63-3.36h0c-.19-1.8.44-3.58,1.73-4.85h0c.83-.82,1.4-1.86,1.64-3h0c.37-1.77,1.53-3.27,3.14-4.08h0c1.04-.52,1.9-1.34,2.48-2.35h0c.9-1.57,2.46-2.64,4.25-2.91h0c1.15-.17,2.22-.68,3.09-1.46h0c1.34-1.21,3.16-1.75,4.94-1.45h0c1.15.19,2.33.04,3.39-.44h0c1.65-.74,3.54-.68,5.15.15h0c1.03.53,2.2.75,3.36.63h0c1.8-.19,3.58.44,4.85,1.73h0c.82.83,1.86,1.4,3,1.64h0c1.77.37,3.27,1.53,4.08,3.14h0c.52,1.04,1.34,1.9,2.35,2.48h0c1.57.9,2.64,2.46,2.91,4.25h0c.17,1.15.68,2.22,1.46,3.09h0c1.21,1.34,1.75,3.16,1.45,4.94h0c-.19,1.15-.04,2.33.44,3.39h0c.74,1.65.68,3.54-.15,5.15h0c-.53,1.03-.75,2.2-.63,3.36h0c.19,1.8-.44,3.58-1.73,4.85h0c-.83.82-1.4,1.86-1.64,3h0c-.37,1.77-1.53,3.27-3.14,4.08h0c-1.04.52-1.9,1.34-2.48,2.35h0c-.9,1.57-2.46,2.64-4.25,2.91h0c-1.15.17-2.22.68-3.09,1.46h0c-1.34,1.21-3.16,1.75-4.94,1.45Z" style="fill: #003c5e;"/>
      <path d="M1243.1,857.02s11.7-8.43,17.23-12.06c4.21-2.77,9.54-3.05,13.22.4,2.8,2.63,5.96,5.8,6.1,6,.7.99,6.24.7,8.04,3.5,1.81,2.81-5.02,4.54-2.25,8.87,2.68,4.19,9.16,13.39,3.91,22.73-3.74,6.65-10.41,9.23-12.47,10.03-15.82,6.11-25.94-2.6-29.74-14.64-4.71-14.93-4.04-24.83-4.04-24.83Z" style="fill: #003c5e;"/>
    </g>
    <path d="M1130.55,898.51h0c-.93-.45-1.98-.62-3.01-.48h0c-1.6.22-3.2-.31-4.37-1.42h0c-.75-.72-1.69-1.2-2.71-1.38h0c-1.59-.29-2.95-1.28-3.72-2.7h0c-.49-.91-1.24-1.66-2.15-2.15h0c-1.42-.76-2.41-2.13-2.7-3.72h0c-.18-1.02-.67-1.96-1.38-2.71h0c-1.11-1.16-1.64-2.77-1.42-4.37h0c.14-1.03-.03-2.07-.48-3.01h0c-.7-1.45-.7-3.14,0-4.59h0c.45-.93.62-1.98.48-3.01h0c-.22-1.6.31-3.2,1.42-4.37h0c.72-.75,1.2-1.69,1.38-2.71h0c.29-1.59,1.28-2.95,2.7-3.72h0c.91-.49,1.66-1.24,2.15-2.15h0c.76-1.42,2.13-2.41,3.72-2.7h0c1.02-.18,1.96-.67,2.71-1.38h0c1.16-1.11,2.77-1.64,4.37-1.42h0c1.03.14,2.07-.03,3.01-.48h0c1.45-.7,3.14-.7,4.59,0h0c.93.45,1.98.62,3.01.48h0c1.6-.22,3.2.31,4.37,1.42h0c.75.72,1.69,1.2,2.71,1.38h0c1.59.29,2.95,1.28,3.72,2.7h0c.49.91,1.24,1.66,2.15,2.15h0c1.42.76,2.41,2.13,2.7,3.72h0c.18,1.02.67,1.96,1.38,2.71h0c1.11,1.16,1.64,2.77,1.42,4.37h0c-.14,1.03.03,2.07.48,3.01h0c.7,1.45.7,3.14,0,4.59h0c-.45.93-.62,1.98-.48,3.01h0c.22,1.6-.31,3.2-1.42,4.37h0c-.72.75-1.2,1.69-1.38,2.71h0c-.29,1.59-1.28,2.95-2.7,3.72h0c-.91.49-1.66,1.24-2.15,2.15h0c-.76,1.42-2.13,2.41-3.72,2.7h0c-1.02.18-1.96.67-2.71,1.38h0c-1.16,1.11-2.77,1.64-4.37,1.42h0c-1.03-.14-2.07.03-3.01.48h0c-1.45.7-3.14.7-4.59,0Z" style="fill: #003c5e;"/>
    <path d="M1120,844.59s12.13-4.27,17.77-5.99c4.3-1.31,8.93-.21,11.21,3.66,1.74,2.95,2.32,7.75,2.4,7.97.35,1.02,6.89,1.01,7.32,3.72.88,5.5-4.87,3.93-3.59,8.33,1.24,4.26,3.91,12.46-2.93,19.13-4.87,4.75-11.23,5.28-13.19,5.45-15.08,1.25-21.55-8.75-21.77-20-.27-13.96,2.78-22.26,2.78-22.26Z" style="fill: #003c5e;"/>
    <path d="M1640.16,585.74c1.54-5.83,27.23-20.19,24.64-29.09l-44.42,14.5s-7.93,14.24,4.16,19.82c8.68-9.4,14.56-1.22,15.62-5.22Z" style="fill: #003c5e;"/>
    <polygon points="1098.89 750.87 1105.49 739.4 1090.33 744.05 1090.33 748.74 1098.89 750.87" style="fill: #003c5e;"/>
    <path d="M1761.3,630.36c8.92,23.18-32.36,77.06-74.16,99.89l-66.9-35.75c21.42-14,76.71-50.02,76.71-50.02l-68.43-27.28,26.05-36.59s98.57,28.58,106.72,49.76Z" style="fill: #003c5e;"/>
    <path d="M1522.85,666.89l22.52,42.29,12.53-24.01c1.39-1.39,3.62-1.42,5.05-.07l32.69,53.11c1.73,1.63,4.53,1.19,5.67-.9l55.97-32.32c1.54-2.82-10.77-13.12-13.38-15l-62.13-45.58c-.28-.2-22.17-18.54-43.83,3.12l-15.08,19.36Z" style="fill: #003c5e;"/>
    <path d="M1530.29,825.7s34.8,18.36,60.05,22.04c27.3,3.98,47.78,1.71,66.87-1.97,25.65-4.94,49.77-27.76,54.16-53.52,4.68-27.49-15.57-114.18-15.57-114.18l-113.61,52.48,41.42,73.97s-15.54,4.64-26.73,3.41c-16.49-1.81-54.6-21.9-54.6-21.9l-11.99,39.67Z" style="fill: #003c5e;"/>
    <path d="M1411.86,834.22c-26.5-10.09-61.52-22.42-70.31-29.89l-17.41,22.59c27.86,22.78,74.96,36.03,102.06,42.88,79.31,20.05,80.65-36.71,81.16-32.03-15.42-60.81,10.55-104.05,6.95-124.84-2.32-13.42-43.29-55.97-43.29-55.97l-184.23,65.8s49,58.99,98.18,68.34c0,0,27.93,39.67,26.9,43.12Z" style="fill: #003c5e;"/>
    <path d="M1098.16,826.79c-13.1-.74-25.17-4.27-27.39-8.62l-7.02,9.11c11.23,9.18,23.19,11.76,34.12,14.52,31.98,8.08,39.56-12.03,39.77-10.15-6.22-24.52,4.25-41.96,2.8-50.35-.94-5.41-17.46-22.57-17.46-22.57l-58.13,39.33s8.29,18.92,28.12,22.69c0,0,5.61,4.64,5.19,6.03Z" style="fill: #003c5e;"/>
    <g>
      <path d="M1680.99,840.79s23.86-8.4,34.97-11.78c8.46-2.57,17.57-.41,22.06,7.21,3.42,5.81,6.69,11.4,6.83,11.82.69,2.02,8.88-5.09,11.79,3.55,1.87,5.56-11.37,9.61-7.69,21.44,2.6,8.34,8.79,27.08-4.66,40.2-9.58,9.34-22.09,10.39-25.96,10.71-29.66,2.46-42.39-17.22-42.82-39.35-.54-27.47,5.47-43.79,5.47-43.79Z" style="fill: #003c5e;"/>
      <circle cx="1739.13" cy="921.05" r="6.69" style="fill: #003c5e;"/>
      <circle cx="1744.71" cy="914.36" r="6.69" style="fill: #003c5e;"/>
      <circle cx="1690.94" cy="921.48" r="9.95" style="fill: #003c5e;"/>
      <circle cx="1676.04" cy="902.2" r="9.95" style="fill: #003c5e;"/>
      <circle cx="1682.18" cy="913.47" r="6.69" style="fill: #003c5e;"/>
      <circle cx="1674.3" cy="889.82" r="6.69" style="fill: #003c5e;"/>
      <circle cx="1674.3" cy="879.13" r="6.69" style="fill: #003c5e;"/>
      <circle cx="1678.19" cy="868.14" r="6.69" style="fill: #003c5e;"/>
    </g>
    <g>
      <path d="M1490.49,872.13s18.9-12.47,28.72-15.45c7.47-2.27,14.89-1.22,19.09,5.36,2.35,3.67,4.69,7.55,6.43,11.45.77,1.72,10.5.42,8.25,4.33-4.27,7.39-7.88,7.29-4.62,17.75,2.29,7.36,7.77,23.92-4.12,35.51-8.46,8.25-19.51,9.18-22.93,9.46-26.2,2.17-37.45-15.21-37.83-34.76-.48-24.26,7.01-33.64,7.01-33.64Z" style="fill: #003c5e;"/>
      <path d="M1503.33,972l-1.66-.8c-1.4-.67-2.96-.92-4.49-.71l-1.82.25c-2.38.32-4.79-.46-6.52-2.12l-1.33-1.27c-1.12-1.07-2.53-1.79-4.05-2.06l-1.81-.33c-2.37-.43-4.41-1.91-5.55-4.03l-.87-1.62c-.73-1.36-1.85-2.48-3.22-3.22l-1.62-.87c-2.12-1.14-3.6-3.18-4.03-5.55l-.33-1.81c-.28-1.52-.99-2.93-2.06-4.05l-1.27-1.33c-1.66-1.74-2.44-4.14-2.12-6.52l.25-1.82c.21-1.53-.04-3.1-.71-4.49l-.8-1.66c-1.04-2.17-1.04-4.69,0-6.86l.8-1.66c.67-1.4.92-2.96.71-4.49l-.25-1.82c-.32-2.38.46-4.79,2.12-6.52l1.27-1.33c1.07-1.12,1.79-2.53,2.06-4.05l.33-1.81c.43-2.37,1.91-4.41,4.03-5.55l1.62-.87c1.36-.73,2.48-1.85,3.22-3.22l.87-1.62c1.14-2.12,3.18-3.6,5.55-4.03l1.81-.33c1.52-.28,2.93-.99,4.05-2.06l1.33-1.27c1.74-1.66,4.14-2.44,6.52-2.12l1.82.25c1.53.21,3.1-.04,4.49-.71l1.66-.8c2.17-1.04,4.69-1.04,6.86,0l1.66.8c1.4.67,2.96.92,4.49.71l1.82-.25c2.38-.32,4.79.46,6.52,2.12l1.33,1.27c1.12,1.07,2.53,1.79,4.05,2.06l1.81.33c2.37.43,4.41,1.91,5.55,4.03l.87,1.62c.73,1.36,1.85,2.48,3.22,3.22l1.62.87c2.12,1.14,3.6,3.18,4.03,5.55l.33,1.81c.28,1.52.99,2.93,2.06,4.05l1.27,1.33c1.66,1.74,2.44,4.14,2.12,6.52l-.25,1.82c-.21,1.53.04,3.1.71,4.49l.8,1.66c1.04,2.17,1.04,4.69,0,6.86l-.8,1.66c-.67,1.4-.92,2.96-.71,4.49l.25,1.82c.32,2.38-.46,4.79-2.12,6.52l-1.27,1.33c-1.07,1.12-1.79,2.53-2.06,4.05l-.33,1.81c-.43,2.37-1.91,4.41-4.03,5.55l-1.62.87c-1.36.73-2.48,1.85-3.22,3.22l-.87,1.62c-1.14,2.12-3.18,3.6-5.55,4.03l-1.81.33c-1.52.28-2.93.99-4.05,2.06l-1.33,1.27c-1.74,1.66-4.14,2.44-6.52,2.12l-1.82-.25c-1.53-.21-3.1.04-4.49.71l-1.66.8c-2.17,1.04-4.69,1.04-6.86,0Z" style="fill: #003c5e;"/>
    </g>
    <path d="M1184.08,795.8l15,14.07s13.08,24.87,14.07,26.4c6.51,10,16.86,15.35,25.4,10.92,3.63-1.88,14.72-7.31,17.98-9.52,3.26-2.21,6.4-3.26,8.72-11.98,2.33-8.72,11.92-34.93,11.92-34.93l5.3,3.48,8.81-13.48s-8.29-12.26-23.28-10.67c-6.53.69-21.04,8.02-16.39,25.52l-8.69-32.44-58.85,32.64Z" style="fill: #003c5e;"/>
    <polyline points="1088.25 799.02 1101.66 765.14 1090.85 749.57" style="fill: none; stroke: #003c5e; stroke-miterlimit: 10; stroke-width: 10px;"/>
    <path d="M1465.54,856.76l22.41,39.66,23.1-13.05-13.7-21.48c6.93-8.7,18.78-18.68,21.42-28.83,2.9-11.11,1.2-23.46,1.2-23.46,3.13-16.19,8.98-28.7,25.2-31.69l30.67-4.81-8.22-28.33s-37.46-11.26-64.83,18.25c-17.11,18.45-17.61,59.18-16.36,81.94l-20.89,11.8Z" style="fill: #003c5e;"/>
    <polygon points="1225.12 826.82 1245.77 818.07 1263.53 860.03 1249.99 871.51 1225.12 826.82" style="fill: #003c5e;"/>
    <polygon points="1095.24 816.09 1115.89 807.35 1133.65 849.3 1120.12 860.78 1095.24 816.09" style="fill: #003c5e;"/>
    <rect x="1674.39" y="819.18" width="35.61" height="45.56" transform="translate(3579.67 742.54) rotate(150.53)" style="fill: #003c5e;"/>
    <rect x="1511.99" y="783.71" width="26.05" height="42.14" rx="10.04" ry="10.04" transform="translate(2795.84 -360.71) rotate(109.65)" style="fill: #003c5e;"/>
    <rect x="1284.95" y="781.08" width="12.28" height="19.86" rx="4.73" ry="4.73" transform="translate(2774.23 486.21) rotate(136.89)" style="fill: #003c5e;"/>
    <rect x="1160.15" y="800.54" width="16.63" height="17.1" rx="6.41" ry="6.41" transform="translate(2514.6 353.17) rotate(126.59)" style="fill: #003c5e;"/>
    <rect x="1545.42" y="751.45" width="38.64" height="18.74" transform="translate(3201.23 1351.71) rotate(173.92)" style="fill: #003c5e;"/>
    <polygon points="1318.49 800.14 1356.12 817.53 1337.31 830.67 1312.77 813.13 1318.49 800.14" style="fill: #003c5e;"/>
    <g>
      <rect x="1580.79" y="735.02" width="24.71" height="39.97" rx="9.52" ry="9.52" transform="translate(1340.2 2499.75) rotate(-107.11)" style="fill: #003c5e;"/>
      <path d="M1602.49,771.83c.14.33-9.96,2.07-13.31,2.37s-6.7-.79-11.14-7.69c-.1-.3,22.38-8.28,22.38-8.28l-7.99,8.58s7.39-1.18,10.06,5.03Z" style="fill: #003c5e;"/>
    </g>
    <polygon points="1622.09 587.5 1635.79 578.79 1656.08 602.21 1641.99 617.62 1622.09 587.5" style="fill: #003c5e;"/>
    <path d="M1449.52,644.12c23.7-15.45,24.63-25.01,24.63-25.01l-37.8,12.31s-10.04,8.05-3.46,15.5c7.45-8.07,11.87,1.99,16.63-2.8Z" style="fill: #003c5e;"/>
    <polygon points="1432.42 646.3 1442 637.05 1470.88 664.24 1457.28 677.4 1432.42 646.3" style="fill: #003c5e;"/>
    <path d="M1233.32,707.38c13.57-8.84,15.85-14.9,15.85-14.9l-21.88,7.18s-2.1,1.96-.07,6.37c1.09-.65,4.96-1.01,6.1,1.35Z" style="fill: #003c5e;"/>
    <polygon points="1227.29 705.14 1234.54 703.99 1238.55 719.28 1228.88 726.08 1227.29 705.14" style="fill: #003c5e;"/>
    <path d="M1144.48,735.31c13.57-8.84,10.88-12.31,10.88-12.31l-21.24,6.9s-2.71,5.26,3.32,8.2c-.62-4.56,5.91-5.16,7.05-2.79Z" style="fill: #003c5e;"/>
    <path d="M1137.43,738.1c-4.82-2.88,3.02-11.15,6.63-4.25,3.86,7.38,10.68,13.05,10.68,13.05,0,0,7.76,2.29-4.7,7.56-7.36,3.11-5.3-11.99-12.61-16.36Z" style="fill: #003c5e;"/>
    <path d="M1297.58,690.8c23.7-15.45,21.65-21.1,21.65-21.1l-36.94,11.55s-7.97,13.88,5.02,17.87c-3.39-3.79,8.28-12.45,10.27-8.32Z" style="fill: #003c5e;"/>
    <polygon points="1283.78 696.77 1291.57 687.48 1375.76 719.04 1346.79 743.45 1283.78 696.77" style="fill: #003c5e;"/>
    <g>
      <path d="M1288.64,798.38h0c1.95-5.9,8.33-9.11,14.17-7.14l13.11,4.43c5.84,1.97,9.02,8.41,7.06,14.31h0c-1.95,5.9-8.33,9.11-14.17,7.14l-13.11-4.43c-5.84-1.97-9.02-8.41-7.06-14.31Z" style="fill: #003c5e;"/>
      <path d="M1307.8,786.68c.07-.32,8.43,3.76,11.05,5.33,2.63,1.57,4.52,4.16,4.15,11.66-.08.27-20.86-5.76-20.86-5.76l10.41-2.13s-6.07-3.06-4.76-9.1Z" style="fill: #003c5e;"/>
    </g>
    <path d="M1529.56,690.78c-12.52-24.21-23.87-17.51-23.87-17.51l13.88,37.02s11.57,5.24,17.32-5.89c-10.65-7.1-5.43-9.94-7.33-13.62Z" style="fill: #003c5e;"/>
    <polygon points="1534.69 706.26 1523.48 696.07 1539.65 666.45 1559.33 680.49 1534.69 706.26" style="fill: #003c5e;"/>
    <path d="M1246.65,783.16s15.88-28.54,13.53-43.32c-1.51-9.52-20.74-22.32-20.74-22.32l-19.3,8.45,14.73,16.87-17.85,30.22-7.4,3.95-23.75-19-22.2-21.2-23.6,17.82,24.33,16.86,28.21,27.27,54.06-15.61Z" style="fill: #003c5e;"/>
    <path d="M1228.78,844.64c-19.08-2.51-34.64-9.04-61.25-30.12.5-.5,5.52-8.53,5.52-8.53,0,0,37.15,22.09,47.69,23.59,10.54,1.51,8.03,15.06,8.03,15.06Z" style="fill: #003c5e;"/>
    <path d="M1135.94,833.32c11.15-10.73,17.56-25.7,18.57-28.71l7.57,7.57,7.08-8.79s-15.17-12.54-20.02-11.23c-9.3,2.5-11.29,19.31-19.77,20.96-8.47,1.66,6.57,20.2,6.57,20.2Z" style="fill: #003c5e;"/>
    <path d="M1059.36,773.9c9.57-5.44,16.92,19.85,24.42,17.73,7.5-2.12-11.1,11.86-11.1,11.86l-11.68-13.55c-1.44,7.35-4.22,10.83-5.23,13.57-2.14,5.82-5.58-1.75-5.58-1.75,0,0-.41-22.42,9.17-27.86Z" style="fill: #003c5e;"/>
    <path d="M1050.59,800.09c-1.2-2.65-10.48,6.03-10.48,6.03l15.81,1.21s3.95-1.77,1.19-4.95c-1.52-1.75-5.11.82-6.52-2.29Z" style="fill: #003c5e;"/>
    <polygon points="1067.25 817.36 1075.2 825.57 1067.12 828.91 1061.84 821.58 1067.25 817.36" style="fill: #003c5e;"/>
    <g>
      <rect x="1056.25" y="808.41" width="9.46" height="15.3" rx="3.64" ry="3.64" transform="translate(2399.45 804.47) rotate(141.94)" style="fill: #003c5e;"/>
      <path d="M1065.72,810.41c.1-.09,2.1,3.28,2.67,4.43s.64,2.5-1.22,5.04c-.09.08-6.02-6.87-6.02-6.87l4.16,1.68s-1.44-2.48.42-4.28Z" style="fill: #003c5e;"/>
    </g>
  </g>
</svg>