<?xml version="1.0" encoding="UTF-8"?>
<svg id="Layer_2" data-name="Layer 2" xmlns="http://www.w3.org/2000/svg" viewBox="0 0 153.44 93.55">
  <g id="Ebene_4" data-name="Ebene 4">
    <path d="M45.34,66.49l-1.93-32.98c-.19-3.22-2.85-5.73-6.08-5.73h0c-3.23,0-5.89,2.51-6.08,5.73l-1.93,32.98c-.2,3.5,2.58,6.45,6.08,6.45h1.07v9.95h1.73v-9.95h1.07c3.5,0,6.28-2.95,6.08-6.45Z" style="fill: #82c9bb;"/>
    <path d="M107.05,38.72l-1.93-32.98c-.19-3.22-2.85-5.73-6.08-5.73h0c-3.23,0-5.89,2.51-6.08,5.73l-1.93,32.98c-.2,3.5,2.58,6.45,6.08,6.45h1.07v22.15h1.73v-22.15h1.07c3.5,0,6.28-2.95,6.08-6.45Z" style="fill: #00837b;"/>
    <path d="M97.09,42.85c0-4.72-2.51-8.85-6.25-11.16,2.33-1.96,3.82-4.89,3.82-8.18,0-5.9-4.78-10.68-10.68-10.68s-10.68,4.78-10.68,10.68c0,3.28,1.48,6.22,3.82,8.18-3.75,2.31-6.25,6.44-6.25,11.16,0,6.79,5.16,12.38,11.78,13.05v12.82h2.67v-12.82c6.61-.67,11.78-6.26,11.78-13.05Z" style="fill: #82c9bb;"/>
    <path d="M149.26,42.85c0-4.72-2.51-8.85-6.25-11.16,2.33-1.96,3.82-4.89,3.82-8.18,0-5.9-4.78-10.68-10.68-10.68s-10.68,4.78-10.68,10.68c0,3.28,1.48,6.22,3.82,8.18-3.75,2.31-6.25,6.44-6.25,11.16,0,6.79,5.16,12.38,11.78,13.05v12.82h2.67v-12.82c6.61-.67,11.78-6.26,11.78-13.05Z" style="fill: #82c9bb;"/>
    <path d="M56.27,57.37h-3.86c-3.5,0-6.28-2.95-6.08-6.45l1.93-32.98c.19-3.22,2.85-5.73,6.08-5.73h0c3.23,0,5.89,2.51,6.08,5.73l1.93,32.98c.2,3.5-2.58,6.45-6.08,6.45Z" style="fill: #85c695;"/>
    <path d="M26.23,57.02c0-4.72-2.51-8.85-6.25-11.16,2.33-1.96,3.82-4.89,3.82-8.18,0-4.16-2.39-7.76-5.87-9.52.9-1.08,1.45-2.48,1.45-4,0-3.45-2.8-6.25-6.25-6.25s-6.25,2.8-6.25,6.25c0,1.52.54,2.91,1.45,4-3.48,1.76-5.87,5.36-5.87,9.52,0,3.28,1.48,6.22,3.82,8.18-3.75,2.31-6.25,6.44-6.25,11.16,0,6.79,5.16,12.38,11.78,13.05v12.82h2.67v-12.82c6.61-.67,11.78-6.26,11.78-13.05Z" style="fill: #00837b;"/>
    <path d="M130.15,57.02c0-4.72-2.51-8.85-6.25-11.16,2.33-1.96,3.82-4.89,3.82-8.18,0-4.16-2.39-7.76-5.87-9.52.9-1.08,1.45-2.48,1.45-4,0-3.45-2.8-6.25-6.25-6.25s-6.25,2.8-6.25,6.25c0,1.52.54,2.91,1.45,4-3.48,1.76-5.87,5.36-5.87,9.52,0,3.28,1.48,6.22,3.82,8.18-3.75,2.31-6.25,6.44-6.25,11.16,0,6.79,5.16,12.38,11.78,13.05v12.82h2.67v-12.82c6.61-.67,11.78-6.26,11.78-13.05Z" style="fill: #00837b;"/>
    <path d="M81.33,76.94l-7.13-10.34c-.43-.62.02-1.47.77-1.47h1.52c.76,0,1.2-.85.77-1.47l-4.8-6.95c-.43-.62.02-1.47.77-1.47s1.2-.85.77-1.47l-11.23-16.27c-.37-.54-1.17-.54-1.54,0l-11.23,16.27c-.43.62.02,1.47.77,1.47s1.2.85.77,1.47l-4.8,6.95c-.43.62.02,1.47.77,1.47h1.52c.76,0,1.2.85.77,1.47l-7.13,10.34c-.43.62.02,1.47.77,1.47h16.18v4.48h4.74v-4.48h16.18c.76,0,1.2-.85.77-1.47Z" style="fill: #00837b;"/>
    <path d="M118.5,88.4l-6.18-8.96c-.37-.54.01-1.27.67-1.27h1.32c.65,0,1.04-.74.67-1.27l-4.16-6.03c-.37-.54.01-1.27.67-1.27s1.04-.74.67-1.27l-9.73-14.1c-.32-.47-1.01-.47-1.34,0l-9.73,14.1c-.37.54.01,1.27.67,1.27s1.04.74.67,1.27l-4.16,6.03c-.37.54.01,1.27.67,1.27h1.32c.66,0,1.04.74.67,1.27l-6.18,8.96c-.37.54.01,1.27.67,1.27h14.02v3.88h4.11v-3.88h14.02c.66,0,1.04-.74.67-1.27Z" style="fill: #85c695;"/>
    <path d="M144.94,81.97l-4.12-5.97c-.25-.36,0-.85.45-.85h.88c.44,0,.69-.49.45-.85l-2.77-4.01c-.25-.36,0-.85.45-.85s.69-.49.45-.85l-6.48-9.39c-.22-.31-.68-.31-.89,0l-6.48,9.39c-.25.36,0,.85.45.85s.69.49.45.85l-2.77,4.01c-.25.36,0,.85.45.85h.88c.44,0,.69.49.45.85l-4.12,5.97c-.25.36,0,.85.45.85h9.34v2.58h2.74v-2.58h9.34c.44,0,.69-.49.45-.85Z" style="fill: #00837b;"/>
    <g>
      <path d="M148.3,23.24l5.14-.69-5.35-.72c-.38-.87-1.25-1.49-2.27-1.49-1.14,0-2.13.77-2.4,1.87l-.84,3.34c-1.08,0-2.14.5-2.81,1.45l-6.76,9.64,4.17-1.75-.64.87-6.61,8.08c.53.24,5.69-4.3,5.88-4.41,2.06-1.23,3.89-1.55,5.61-2.1v.91h0l3.24,2.67h.79l-2.95-2.67h0l.39-1.47c.72-.34,1.42-.78,2.13-1.41l2.24,1.85h.79l-2.55-2.31c2.19-2.3,2.81-5.85,2.81-7.21,0-.62,0-1.1-.01-1.47h.01v-2.98Z" style="fill: #003c5e;"/>
      <circle cx="145.71" cy="22.25" r=".66" style="fill: #ee684e; stroke: #fff; stroke-miterlimit: 10; stroke-width: .5px;"/>
    </g>
  </g>
</svg>