<?xml version="1.0" encoding="UTF-8"?>
<svg id="Layer_2" data-name="Layer 2" xmlns="http://www.w3.org/2000/svg" viewBox="0 0 489.45 521.75">
  <g id="Ebene_4" data-name="Ebene 4">
    <g>
      <rect x="98.89" y="353.08" width="34.02" height="168.67" style="fill: #85c695;"/>
      <g>
        <path d="M9.32,229.2c0-27.74,22.49-50.22,50.22-50.22.68,0,1.35.02,2.02.05,5.79-21.34,25.29-37.05,48.46-37.05,15.85,0,29.98,7.35,39.18,18.82,4.83-1.54,9.97-2.38,15.31-2.38,25.19,0,46.04,18.54,49.66,42.72,15.28,8.61,25.6,24.98,25.6,43.77,0,16.04-7.53,30.32-19.24,39.51,6.7,8.53,10.71,19.28,10.71,30.98,0,27.74-22.49,50.22-50.22,50.22-6.63,0-12.96-1.29-18.76-3.62-6.87,19.55-25.48,33.58-47.39,33.58-23.76,0-43.66-16.51-48.87-38.68-4.85,1.56-10.03,2.41-15.4,2.41-27.74,0-50.22-22.49-50.22-50.22,0-18.45,9.96-34.57,24.79-43.3-9.74-9.16-15.84-22.16-15.84-36.59" style="fill: #85c695;"/>
        <path d="M9.32,229.2c0-27.74,22.49-50.22,50.22-50.22.68,0,1.35.02,2.02.05,5.79-21.34,25.29-37.05,48.46-37.05,15.85,0,29.98,7.35,39.18,18.82,4.83-1.54,9.97-2.38,15.31-2.38,25.19,0,46.04,18.54,49.66,42.72,15.28,8.61,25.6,24.98,25.6,43.77,0,16.04-7.53,30.32-19.24,39.51,6.7,8.53,10.71,19.28,10.71,30.98,0,27.74-22.49,50.22-50.22,50.22-6.63,0-12.96-1.29-18.76-3.62-6.87,19.55-25.48,33.58-47.39,33.58-23.76,0-43.66-16.51-48.87-38.68-4.85,1.56-10.03,2.41-15.4,2.41-27.74,0-50.22-22.49-50.22-50.22,0-18.45,9.96-34.57,24.79-43.3-9.74-9.16-15.84-22.16-15.84-36.59Z" style="fill: none; stroke: #fff; stroke-linecap: round; stroke-linejoin: round; stroke-width: .75px;"/>
      </g>
      <path d="M119.9,426.64c26.61,4.07,46.51-6.98,51.16-33.02" style="fill: none; stroke: #85c695; stroke-miterlimit: 10; stroke-width: 20px;"/>
    </g>
  </g>
  <g id="Ebene_1" data-name="Ebene 1">
    <path d="M80.1,44.82c-2.82-13.47,4-26.66,12.17-34.24C106.98-3.07,127.54.14,131.63.78c22.9,3.58,26.32,19.48,43.68,18.66,15.95-.75,17.96-14.4,34.77-17.25,21.44-3.64,50.23,13.11,51.37,31.55,1.21,19.61-28.95,39.58-53.23,38.53-18.25-.79-20.8-12.92-39.9-13.27-23.19-.42-28.33,17.3-49.53,15.94-15.83-1.01-34.97-12.29-38.7-30.12Z" style="fill: #dde4f3;"/>
    <path d="M186.56,107.82c-6.71-25.13,22.28-50.89,39.61-61.49,37.09-22.71,81.73-13.38,95.89-10.42,42.91,8.96,72.45,32.29,82.34,21.89,4.91-5.17-.94-12.45,4.17-19.8,11.19-16.12,62.76-14.94,77.13,12.51,10.85,20.72-4.71,46.46-9.38,54.2-6.25,10.34-14.88,24.63-29.18,27.1-23.8,4.1-34.37-29.54-60.45-28.14-24.53,1.32-33.43,32.05-52.11,28.14-14.77-3.09-13.52-23.22-28.14-27.1-20.85-5.53-34.05,32.62-66.7,35.44-21.96,1.89-47.89-12.6-53.15-32.31Z" style="fill: #d1daef;"/>
  </g>
</svg>