<?xml version="1.0" encoding="UTF-8"?>
<svg id="Layer_2" data-name="Layer 2" xmlns="http://www.w3.org/2000/svg" viewBox="0 0 2055.07 816.04">
  <defs>
    <style>
      .cls-1 {
        fill: #0f8a81;
      }

      .cls-2 {
        fill: #85c695;
      }

      .cls-3 {
        fill: #0f8a81;
      }

      .cls-3, .cls-4 {
        stroke: #003c5e;
      }

      .cls-3, .cls-4, .cls-5 {
        stroke-miterlimit: 10;
      }

      .cls-6 {
        fill: #003c5e;
      }

      .cls-7 {
        stroke: #fff;
        stroke-linecap: round;
        stroke-linejoin: round;
        stroke-width: .75px;
      }

      .cls-7, .cls-4, .cls-5 {
        fill: none;
      }

      .cls-4 {
        stroke-width: 10px;
      }

      .cls-5 {
        stroke: #85c695;
        stroke-width: 20px;
      }
    </style>
  </defs>
  <g id="HG">
    <rect class="cls-1" x="684.82" y="592.79" width="1367.39" height="223.25"/>
    <rect class="cls-2" x="1151.19" y="277.25" width="34.02" height="168.67"/>
    <rect class="cls-2" x="890.6" y="464.48" width="28.33" height="68.8"/>
    <rect class="cls-2" x="776.33" y="446.51" width="16.27" height="118.32"/>
    <g>
      <path class="cls-2" d="M1341.34,130.69c0-41.44-33.6-75.04-75.04-75.04-1.01,0-2.01.04-3.01.08-8.65-31.89-37.78-55.35-72.41-55.35-23.69,0-44.79,10.98-58.55,28.12-7.21-2.31-14.89-3.56-22.87-3.56-37.63,0-68.79,27.7-74.2,63.83-22.83,12.87-38.25,37.32-38.25,65.4,0,23.97,11.25,45.3,28.75,59.04-10.01,12.75-16,28.81-16,46.28,0,41.44,33.6,75.04,75.04,75.04,9.91,0,19.37-1.92,28.03-5.41,10.26,29.21,38.08,50.17,70.8,50.17,35.5,0,65.23-24.66,73.02-57.79,7.25,2.34,14.98,3.61,23.01,3.61,41.44,0,75.04-33.6,75.04-75.04,0-27.57-14.88-51.65-37.03-64.7,14.56-13.69,23.67-33.11,23.67-54.67"/>
      <path class="cls-7" d="M1341.34,130.69c0-41.44-33.6-75.04-75.04-75.04-1.01,0-2.01.04-3.01.08-8.65-31.89-37.78-55.35-72.41-55.35-23.69,0-44.79,10.98-58.55,28.12-7.21-2.31-14.89-3.56-22.87-3.56-37.63,0-68.79,27.7-74.2,63.83-22.83,12.87-38.25,37.32-38.25,65.4,0,23.97,11.25,45.3,28.75,59.04-10.01,12.75-16,28.81-16,46.28,0,41.44,33.6,75.04,75.04,75.04,9.91,0,19.37-1.92,28.03-5.41,10.26,29.21,38.08,50.17,70.8,50.17,35.5,0,65.23-24.66,73.02-57.79,7.25,2.34,14.98,3.61,23.01,3.61,41.44,0,75.04-33.6,75.04-75.04,0-27.57-14.88-51.65-37.03-64.7,14.56-13.69,23.67-33.11,23.67-54.67Z"/>
    </g>
    <path class="cls-3" d="M1090.29,384.92c0-25.33-13.44-47.47-33.54-59.85,12.5-10.5,20.47-26.23,20.47-43.84,0-22.33-12.82-41.62-31.46-51.06,4.84-5.81,7.75-13.28,7.75-21.43,0-18.52-15.01-33.53-33.53-33.53-18.52,0-33.53,15.01-33.53,33.53,0,8.15,2.91,15.62,7.75,21.43-18.65,9.44-31.46,28.73-31.46,51.06,0,17.61,7.96,33.34,20.47,43.84-20.1,12.38-33.54,34.52-33.54,59.85,0,35.3,26.01,64.52,59.91,69.55v42.68s3.23,0,3.23,0v26.46s14.34,0,14.34,0v-26.46s10.77,0,10.77,0v-44.24c30.14-7.93,52.38-35.36,52.38-67.99Z"/>
    <g>
      <path class="cls-2" d="M838.5,413.17c0-20.21-16.38-36.59-36.59-36.59-.49,0-.98.02-1.47.04-4.22-15.55-18.42-26.99-35.31-26.99-11.55,0-21.84,5.36-28.55,13.71-3.52-1.12-7.26-1.74-11.15-1.74-18.35,0-33.54,13.51-36.18,31.12-11.13,6.28-18.65,18.2-18.65,31.89,0,11.69,5.49,22.09,14.02,28.79-4.88,6.22-7.8,14.05-7.8,22.57,0,20.21,16.38,36.59,36.59,36.59,4.83,0,9.45-.94,13.67-2.64,5,14.25,18.57,24.46,34.53,24.46,17.31,0,31.81-12.03,35.61-28.18,3.54,1.14,7.31,1.76,11.22,1.76,20.21,0,36.59-16.38,36.59-36.59,0-13.44-7.25-25.19-18.06-31.55,7.1-6.67,11.54-16.15,11.54-26.66"/>
      <path class="cls-7" d="M838.5,413.17c0-20.21-16.38-36.59-36.59-36.59-.49,0-.98.02-1.47.04-4.22-15.55-18.42-26.99-35.31-26.99-11.55,0-21.84,5.36-28.55,13.71-3.52-1.12-7.26-1.74-11.15-1.74-18.35,0-33.54,13.51-36.18,31.12-11.13,6.28-18.65,18.2-18.65,31.89,0,11.69,5.49,22.09,14.02,28.79-4.88,6.22-7.8,14.05-7.8,22.57,0,20.21,16.38,36.59,36.59,36.59,4.83,0,9.45-.94,13.67-2.64,5,14.25,18.57,24.46,34.53,24.46,17.31,0,31.81-12.03,35.61-28.18,3.54,1.14,7.31,1.76,11.22,1.76,20.21,0,36.59-16.38,36.59-36.59,0-13.44-7.25-25.19-18.06-31.55,7.1-6.67,11.54-16.15,11.54-26.66Z"/>
    </g>
    <g>
      <path class="cls-2" d="M1011.74,306.28c0-28.66-23.23-51.9-51.9-51.9-.7,0-1.39.03-2.08.05-5.98-22.06-26.13-38.28-50.08-38.28-16.38,0-30.98,7.6-40.49,19.45-4.99-1.59-10.3-2.46-15.82-2.46-26.03,0-47.57,19.16-51.32,44.14-15.79,8.9-26.45,25.81-26.45,45.23,0,16.58,7.78,31.33,19.88,40.83-6.92,8.82-11.06,19.93-11.06,32.01,0,28.66,23.23,51.9,51.9,51.9,6.85,0,13.4-1.33,19.38-3.74,7.1,20.2,26.33,34.7,48.97,34.7,24.55,0,45.11-17.06,50.5-39.97,5.02,1.61,10.36,2.49,15.92,2.49,28.66,0,51.9-23.23,51.9-51.9,0-19.07-10.29-35.72-25.61-44.74,10.07-9.47,16.37-22.9,16.37-37.81"/>
      <path class="cls-7" d="M1011.74,306.28c0-28.66-23.23-51.9-51.9-51.9-.7,0-1.39.03-2.08.05-5.98-22.06-26.13-38.28-50.08-38.28-16.38,0-30.98,7.6-40.49,19.45-4.99-1.59-10.3-2.46-15.82-2.46-26.03,0-47.57,19.16-51.32,44.14-15.79,8.9-26.45,25.81-26.45,45.23,0,16.58,7.78,31.33,19.88,40.83-6.92,8.82-11.06,19.93-11.06,32.01,0,28.66,23.23,51.9,51.9,51.9,6.85,0,13.4-1.33,19.38-3.74,7.1,20.2,26.33,34.7,48.97,34.7,24.55,0,45.11-17.06,50.5-39.97,5.02,1.61,10.36,2.49,15.92,2.49,28.66,0,51.9-23.23,51.9-51.9,0-19.07-10.29-35.72-25.61-44.74,10.07-9.47,16.37-22.9,16.37-37.81Z"/>
    </g>
    <path class="cls-3" d="M906.14,455.31c0-18.76-9.95-35.15-24.83-44.31,9.26-7.77,15.15-19.42,15.15-32.46,0-16.53-9.49-30.82-23.29-37.8,3.58-4.3,5.74-9.83,5.74-15.87,0-13.71-11.11-24.82-24.82-24.82-13.71,0-24.82,11.11-24.82,24.82,0,6.03,2.16,11.56,5.74,15.87-13.81,6.99-23.29,21.27-23.29,37.8,0,13.03,5.89,24.68,15.15,32.46-14.88,9.16-24.83,25.55-24.83,44.31,0,26.13,21.27,47.77,46.37,51.49v37.27s16.03,0,16.03,0v-38.43c22.32-5.87,41.72-26.18,41.72-50.34Z"/>
    <path class="cls-3" d="M783.3,506.37c0-13.07-6.93-24.49-17.3-30.87,6.45-5.42,10.56-13.53,10.56-22.62,0-11.52-6.61-21.47-16.23-26.34,2.49-3,4-6.85,4-11.06,0-9.55-7.74-17.3-17.3-17.3-9.55,0-17.3,7.74-17.3,17.3,0,4.21,1.5,8.06,4,11.06-9.62,4.87-16.23,14.82-16.23,26.34,0,9.08,4.11,17.2,10.56,22.62-10.37,6.39-17.3,17.81-17.3,30.87,0,18.21,14.82,33.29,32.31,35.88v38.38s11.17,0,11.17,0v-39.19c15.55-4.09,29.07-18.24,29.07-35.07Z"/>
    <polygon class="cls-1" points="0 816.04 2055.07 816.04 2055.07 145.69 0 816.04"/>
    <path class="cls-5" d="M1164.2,402.71c-26.61,4.07-46.51-6.98-51.16-33.02"/>
  </g>
  <g id="Ebene_1" data-name="Ebene 1">
    <path class="cls-6" d="M827.24,664.57c.07-.13,2.44,1.1,2.51.97s-2.31-1.36-2.24-1.49,2.44,1.1,2.51.97-2.3-1.37-2.24-1.5,2.44,1.1,2.51.97-2.3-1.37-2.23-1.5c.46-.89,3.2-.17,3.85-.87s-.28-3.39.54-3.91,2.84,1.47,3.77,1.17,1.43-3.08,2.41-3.12,1.72,2.68,2.69,2.89,2.76-1.96,3.65-1.5c1.78.92.54,3.3,2.32,4.22s3.01-1.45,4.79-.52.55,3.3,2.32,4.22,3.01-1.45,4.79-.52.55,3.3,2.33,4.23,3.02-1.45,4.8-.52c.89.46.17,3.2.87,3.85s3.39-.28,3.91.54-1.47,2.84-1.17,3.77,3.08,1.43,3.12,2.41-2.68,1.72-2.89,2.69,1.96,2.76,1.49,3.65c-.07.13-2.44-1.1-2.51-.97s2.31,1.36,2.24,1.49-2.44-1.1-2.51-.97,2.3,1.37,2.24,1.5-2.44-1.1-2.51-.97,2.3,1.37,2.23,1.5c-.46.89-3.2.17-3.85.87s.28,3.39-.54,3.91-2.84-1.47-3.77-1.17-1.43,3.08-2.41,3.12-1.72-2.68-2.69-2.89-2.76,1.96-3.65,1.5c-1.78-.92-.54-3.3-2.32-4.22s-3.01,1.45-4.79.52-.55-3.3-2.32-4.22-3.01,1.45-4.79.52-.55-3.3-2.33-4.23-3.02,1.45-4.8.52c-.89-.46-.17-3.2-.87-3.85s-3.39.28-3.91-.54,1.47-2.84,1.17-3.77-3.08-1.43-3.12-2.41,2.68-1.72,2.89-2.69-1.96-2.76-1.49-3.65Z"/>
    <g>
      <path class="cls-6" d="M882.11,702.71h0c-.88-.15-1.79-.03-2.61.34h0c-1.27.57-2.73.53-3.97-.11h0c-.8-.41-1.7-.58-2.59-.49h0c-1.38.15-2.76-.34-3.74-1.33h0c-.63-.64-1.43-1.08-2.31-1.26h0c-1.36-.29-2.52-1.18-3.14-2.42h0c-.4-.8-1.03-1.47-1.81-1.91h0c-1.21-.69-2.03-1.9-2.24-3.28h0c-.13-.89-.53-1.71-1.13-2.38h0c-.93-1.03-1.35-2.43-1.12-3.81h0c.15-.88.03-1.79-.34-2.61h0c-.57-1.27-.53-2.73.11-3.97h0c.41-.8.58-1.7.49-2.59h0c-.15-1.38.34-2.76,1.33-3.74h0c.64-.63,1.08-1.43,1.26-2.31h0c.29-1.36,1.18-2.52,2.42-3.14h0c.8-.4,1.47-1.03,1.91-1.81h0c.69-1.21,1.9-2.03,3.28-2.24h0c.89-.13,1.71-.53,2.38-1.13h0c1.03-.93,2.43-1.35,3.81-1.12h0c.88.15,1.79.03,2.61-.34h0c1.27-.57,2.73-.53,3.97.11h0c.8.41,1.7.58,2.59.49h0c1.38-.15,2.76.34,3.74,1.33h0c.63.64,1.43,1.08,2.31,1.26h0c1.36.29,2.52,1.18,3.14,2.42h0c.4.8,1.03,1.47,1.81,1.91h0c1.21.69,2.03,1.9,2.24,3.28h0c.13.89.53,1.71,1.13,2.38h0c.93,1.03,1.35,2.43,1.12,3.81h0c-.15.88-.03,1.79.34,2.61h0c.57,1.27.53,2.73-.11,3.97h0c-.41.8-.58,1.7-.49,2.59h0c.15,1.38-.34,2.76-1.33,3.74h0c-.64.63-1.08,1.43-1.26,2.31h0c-.29,1.36-1.18,2.52-2.42,3.14h0c-.8.4-1.47,1.03-1.91,1.81h0c-.69,1.21-1.9,2.03-3.28,2.24h0c-.89.13-1.71.53-2.38,1.13h0c-1.03.93-2.43,1.35-3.81,1.12Z"/>
      <path class="cls-6" d="M860.23,660.58s9.01-6.49,13.28-9.29c3.25-2.13,7.35-2.35,10.19.31,2.16,2.02,4.59,4.47,4.7,4.63.54.76,4.81.54,6.2,2.7s-3.87,3.5-1.74,6.83,7.06,10.32,3.01,17.52c-2.88,5.12-8.02,7.11-9.61,7.73-12.19,4.71-19.99-2.01-22.92-11.28-3.63-11.51-3.11-19.13-3.11-19.13Z"/>
    </g>
    <path class="cls-6" d="M773.49,692.55h0c-.72-.35-1.53-.47-2.32-.37h0c-1.23.17-2.47-.24-3.37-1.09h0c-.58-.55-1.3-.92-2.09-1.07h0c-1.22-.22-2.28-.99-2.86-2.08h0c-.38-.7-.96-1.28-1.66-1.66h0c-1.09-.59-1.86-1.64-2.08-2.86h0c-.14-.79-.51-1.51-1.07-2.09h0c-.86-.9-1.26-2.14-1.09-3.37h0c.11-.79-.02-1.6-.37-2.32h0c-.54-1.12-.54-2.42,0-3.54h0c.35-.72.47-1.53.37-2.32h0c-.17-1.23.24-2.47,1.09-3.37h0c.55-.58.92-1.3,1.07-2.09h0c.22-1.22.99-2.28,2.08-2.86h0c.7-.38,1.28-.96,1.66-1.66h0c.59-1.09,1.64-1.86,2.86-2.08h0c.79-.14,1.51-.51,2.09-1.07h0c.9-.86,2.14-1.26,3.37-1.09h0c.79.11,1.6-.02,2.32-.37h0c1.12-.54,2.42-.54,3.54,0h0c.72.35,1.53.47,2.32.37h0c1.23-.17,2.47.24,3.37,1.09h0c.58.55,1.3.92,2.09,1.07h0c1.22.22,2.28.99,2.86,2.08h0c.38.7.96,1.28,1.66,1.66h0c1.09.59,1.86,1.64,2.08,2.86h0c.14.79.51,1.51,1.07,2.09h0c.86.9,1.26,2.14,1.09,3.37h0c-.11.79.02,1.6.37,2.32h0c.54,1.12.54,2.42,0,3.54h0c-.35.72-.47,1.53-.37,2.32h0c.17,1.23-.24,2.47-1.09,3.37h0c-.55.58-.92,1.3-1.07,2.09h0c-.22,1.22-.99,2.28-2.08,2.86h0c-.7.38-1.28.96-1.66,1.66h0c-.59,1.09-1.64,1.86-2.86,2.08h0c-.79.14-1.51.51-2.09,1.07h0c-.9.86-2.14,1.26-3.37,1.09h0c-.79-.11-1.6.02-2.32.37h0c-1.12.54-2.42.54-3.54,0Z"/>
    <path class="cls-6" d="M765.36,650.99s9.35-3.29,13.7-4.62c3.31-1.01,6.88-.16,8.64,2.82,1.34,2.27,1.79,5.98,1.85,6.14.27.79,5.31.78,5.64,2.87.68,4.24-3.75,3.03-2.77,6.42s3.01,9.6-2.26,14.74c-3.75,3.66-8.65,4.07-10.17,4.2-11.62.96-16.61-6.74-16.78-15.42-.21-10.76,2.14-17.16,2.14-17.16Z"/>
    <path class="cls-6" d="M1166.24,451.5c1.19-4.49,20.99-15.56,18.99-22.42l-34.23,11.17s-6.11,10.98,3.21,15.28c6.69-7.25,11.22-.94,12.03-4.02Z"/>
    <polygon class="cls-6" points="749.1 578.77 754.18 569.93 742.5 573.51 742.5 577.12 749.1 578.77"/>
    <path class="cls-6" d="M1259.6,485.89c6.87,17.86-24.94,59.39-57.15,76.98l-51.56-27.56c16.51-10.79,59.12-38.55,59.12-38.55l-52.73-21.02,20.07-28.2s75.97,22.02,82.25,38.35Z"/>
    <path class="cls-6" d="M1075.83,514.04l17.36,32.59,9.65-18.5c1.07-1.07,2.79-1.09,3.89-.05l25.19,40.93c1.33,1.26,3.49.92,4.37-.69l43.14-24.91c1.18-2.17-8.3-10.11-10.31-11.56l-47.88-35.13c-.21-.15-17.09-14.29-33.78,2.4l-11.62,14.92Z"/>
    <path class="cls-6" d="M1081.56,636.44s26.82,14.15,46.28,16.99c21.04,3.07,36.82,1.31,51.54-1.52,19.77-3.81,38.36-21.4,41.74-41.24,3.61-21.18-12-88-12-88l-87.56,40.44,31.92,57.01s-11.98,3.58-20.6,2.63c-12.7-1.4-42.08-16.88-42.08-16.88l-9.24,30.57Z"/>
    <path class="cls-6" d="M990.29,643c-20.42-7.78-47.41-17.28-54.19-23.04l-13.42,17.41c21.47,17.55,57.77,27.77,78.65,33.05,61.12,15.45,62.15-28.29,62.55-24.69-11.88-46.87,8.13-80.19,5.35-96.21-1.79-10.34-33.36-43.13-33.36-43.13l-141.98,50.71s37.76,45.46,75.67,52.67c0,0,21.53,30.58,20.73,33.24Z"/>
    <path class="cls-6" d="M748.53,637.28c-10.1-.57-19.4-3.29-21.11-6.64l-5.41,7.02c8.66,7.08,17.87,9.06,26.3,11.19,24.65,6.23,30.49-9.27,30.65-7.82-4.79-18.9,3.28-32.34,2.16-38.8-.72-4.17-13.45-17.39-13.45-17.39l-44.8,30.31s6.39,14.58,21.67,17.48c0,0,4.32,3.58,4,4.65Z"/>
    <g>
      <path class="cls-6" d="M1197.7,648.06s18.39-6.48,26.95-9.08c6.52-1.98,13.54-.32,17,5.55,2.63,4.47,5.15,8.79,5.26,9.11.54,1.55,6.85-3.92,9.09,2.73,1.44,4.28-8.77,7.4-5.92,16.52,2,6.43,6.78,20.87-3.59,30.98-7.38,7.2-17.02,8.01-20,8.26-22.86,1.9-32.67-13.27-33-30.33-.42-21.17,4.22-33.75,4.22-33.75Z"/>
      <circle class="cls-6" cx="1242.52" cy="709.92" r="5.16"/>
      <circle class="cls-6" cx="1246.81" cy="704.76" r="5.16"/>
      <circle class="cls-6" cx="1236.28" cy="713.47" r="5.16"/>
      <circle class="cls-6" cx="1226.49" cy="712.14" r="5.16"/>
      <circle class="cls-6" cx="1213.39" cy="715.07" r="6.17"/>
      <circle class="cls-6" cx="1220.32" cy="716.09" r="6.17"/>
      <circle class="cls-6" cx="1229.16" cy="715.72" r="5.16"/>
      <circle class="cls-6" cx="1205.37" cy="710.25" r="7.67"/>
      <circle class="cls-6" cx="1193.89" cy="695.39" r="7.67"/>
      <circle class="cls-6" cx="1198.62" cy="704.08" r="5.16"/>
      <circle class="cls-6" cx="1192.55" cy="685.85" r="5.16"/>
      <circle class="cls-6" cx="1192.55" cy="677.61" r="5.16"/>
      <circle class="cls-6" cx="1195.55" cy="669.14" r="5.16"/>
    </g>
    <g>
      <path class="cls-6" d="M1050.89,672.21s14.57-9.61,22.13-11.91c5.76-1.75,11.47-.94,14.71,4.13,1.81,2.83,3.62,5.82,4.96,8.82.59,1.33,8.1.32,6.35,3.33-3.29,5.69-6.07,5.62-3.56,13.68,1.77,5.68,5.99,18.43-3.17,27.37-6.52,6.36-15.04,7.07-17.67,7.29-20.19,1.67-28.86-11.72-29.15-26.79-.37-18.7,5.4-25.93,5.4-25.93Z"/>
      <path class="cls-6" d="M1060,748.8h0c-1.4-.67-2.96-.92-4.49-.71h0c-2.38.32-4.79-.46-6.52-2.12h0c-1.12-1.07-2.53-1.79-4.05-2.06h0c-2.37-.43-4.41-1.91-5.55-4.03h0c-.73-1.36-1.85-2.48-3.22-3.22h0c-2.12-1.14-3.6-3.18-4.03-5.55h0c-.28-1.52-.99-2.93-2.06-4.05h0c-1.66-1.74-2.44-4.14-2.12-6.52h0c.21-1.53-.04-3.1-.71-4.49h0c-1.04-2.17-1.04-4.69,0-6.86h0c.67-1.4.92-2.96.71-4.49h0c-.32-2.38.46-4.79,2.12-6.52h0c1.07-1.12,1.79-2.53,2.06-4.05h0c.43-2.37,1.91-4.41,4.03-5.55h0c1.36-.73,2.48-1.85,3.22-3.22h0c1.14-2.12,3.18-3.6,5.55-4.03h0c1.52-.28,2.93-.99,4.05-2.06h0c1.74-1.66,4.14-2.44,6.52-2.12h0c1.53.21,3.1-.04,4.49-.71h0c2.17-1.04,4.69-1.04,6.86,0h0c1.4.67,2.96.92,4.49.71h0c2.38-.32,4.79.46,6.52,2.12h0c1.12,1.07,2.53,1.79,4.05,2.06h0c2.37.43,4.41,1.91,5.55,4.03h0c.73,1.36,1.85,2.48,3.22,3.22h0c2.12,1.14,3.6,3.18,4.03,5.55h0c.28,1.52.99,2.93,2.06,4.05h0c1.66,1.74,2.44,4.14,2.12,6.52h0c-.21,1.53.04,3.1.71,4.49h0c1.04,2.17,1.04,4.69,0,6.86h0c-.67,1.4-.92,2.96-.71,4.49h0c.32,2.38-.46,4.79-2.12,6.52h0c-1.07,1.12-1.79,2.53-2.06,4.05h0c-.43,2.37-1.91,4.41-4.03,5.55h0c-1.36.73-2.48,1.85-3.22,3.22h0c-1.14,2.12-3.18,3.6-5.55,4.03h0c-1.52.28-2.93.99-4.05,2.06h0c-1.74,1.66-4.14,2.44-6.52,2.12h0c-1.53-.21-3.1.04-4.49.71h0c-2.17,1.04-4.69,1.04-6.86,0Z"/>
    </g>
    <path class="cls-6" d="M814.75,613.39l11.56,10.84s10.08,19.17,10.84,20.35c5.02,7.71,13,11.83,19.58,8.42,2.8-1.45,11.35-5.64,13.85-7.34s4.93-2.51,6.72-9.23,9.19-26.92,9.19-26.92l4.08,2.68,6.79-10.39s-6.39-9.45-17.94-8.22c-5.03.53-16.22,6.18-12.63,19.66l-6.7-25-45.36,25.15Z"/>
    <polyline class="cls-4" points="740.9 615.87 751.23 589.76 742.9 577.76"/>
    <path class="cls-6" d="M1031.66,660.37l17.27,30.57,17.8-10.06-10.56-16.56c5.34-6.7,14.47-14.4,16.51-22.22,2.23-8.57.92-18.08.92-18.08,2.41-12.48,6.92-22.12,19.42-24.42l23.64-3.71-6.33-21.83s-28.87-8.68-49.97,14.06c-13.19,14.22-13.57,45.61-12.61,63.15l-16.1,9.09Z"/>
    <polygon class="cls-6" points="846.37 637.3 862.29 630.56 875.98 662.89 865.55 671.74 846.37 637.3"/>
    <polygon class="cls-6" points="746.28 629.03 762.2 622.29 775.88 654.62 765.45 663.47 746.28 629.03"/>
    <rect class="cls-6" x="1192.62" y="631.41" width="27.45" height="35.11" transform="translate(2575.88 620.53) rotate(150.53)"/>
    <rect class="cls-6" x="1067.46" y="604.07" width="20.08" height="32.48" rx="10.04" ry="10.04" transform="translate(2024.08 -185.78) rotate(109.65)"/>
    <rect class="cls-6" x="892.49" y="602.05" width="9.46" height="15.31" rx="4.73" ry="4.73" transform="translate(1968.9 441.69) rotate(136.89)"/>
    <rect class="cls-6" x="796.31" y="617.04" width="12.81" height="13.18" rx="6.41" ry="6.41" transform="translate(1781.93 350.84) rotate(126.59)"/>
    <rect class="cls-6" x="1093.22" y="579.22" width="29.78" height="14.44" transform="translate(2272.09 1052.26) rotate(173.92)"/>
    <polygon class="cls-6" points="918.34 616.73 947.34 630.14 932.84 640.26 913.93 626.75 918.34 616.73"/>
    <g>
      <rect class="cls-6" x="1120.48" y="566.55" width="19.04" height="30.8" rx="9.52" ry="9.52" transform="translate(906.22 1833.14) rotate(-107.11)"/>
      <path class="cls-6" d="M1137.21,594.92c.11.25-7.67,1.6-10.26,1.82s-5.17-.61-8.59-5.93c-.08-.23,17.25-6.38,17.25-6.38l-6.15,6.61s5.7-.91,7.75,3.88Z"/>
    </g>
    <polygon class="cls-6" points="1152.32 452.86 1162.87 446.15 1178.51 464.19 1167.65 476.07 1152.32 452.86"/>
    <path class="cls-6" d="M1019.31,496.5c18.27-11.9,18.98-19.27,18.98-19.27l-29.13,9.49s-7.74,6.2-2.67,11.94c5.74-6.22,9.15,1.54,12.82-2.16Z"/>
    <polygon class="cls-6" points="1006.14 498.18 1013.52 491.04 1035.78 512 1025.3 522.14 1006.14 498.18"/>
    <path class="cls-6" d="M852.7,545.24c10.46-6.81,12.21-11.48,12.21-11.48l-16.86,5.53s-1.62,1.51-.05,4.91c.84-.5,3.82-.78,4.7,1.04Z"/>
    <polygon class="cls-6" points="848.05 543.52 853.64 542.63 856.73 554.42 849.27 559.66 848.05 543.52"/>
    <path class="cls-6" d="M784.23,566.77c10.46-6.81,8.38-9.49,8.38-9.49l-16.37,5.32s-2.09,4.06,2.56,6.32c-.48-3.52,4.55-3.97,5.43-2.15Z"/>
    <path class="cls-6" d="M778.8,568.93c-3.72-2.22,2.32-8.59,5.11-3.27,2.98,5.69,8.23,10.06,8.23,10.06,0,0,5.98,1.76-3.62,5.82-5.68,2.4-4.09-9.24-9.72-12.61Z"/>
    <path class="cls-6" d="M902.22,532.47c18.27-11.9,16.69-16.26,16.69-16.26l-28.47,8.9s-6.15,10.7,3.87,13.77c-2.61-2.92,6.38-9.59,7.91-6.41Z"/>
    <polygon class="cls-6" points="891.59 537.07 897.59 529.91 962.47 554.23 940.15 573.05 891.59 537.07"/>
    <g>
      <path class="cls-6" d="M895.33,615.38h0c1.51-4.55,6.42-7.02,10.92-5.5l10.1,3.41c4.5,1.52,6.95,6.48,5.44,11.02h0c-1.51,4.55-6.42,7.02-10.92,5.5l-10.1-3.41c-4.5-1.52-6.95-6.48-5.44-11.02Z"/>
      <path class="cls-6" d="M910.1,606.36c.05-.24,6.5,2.9,8.52,4.11s3.49,3.2,3.2,8.98c-.06.21-16.07-4.44-16.07-4.44l8.02-1.64s-4.68-2.36-3.67-7.01Z"/>
    </g>
    <path class="cls-6" d="M1081,532.45c-9.65-18.66-18.4-13.49-18.4-13.49l10.7,28.53s8.91,4.04,13.35-4.54c-8.21-5.47-4.18-7.66-5.65-10.5Z"/>
    <polygon class="cls-6" points="1084.96 544.39 1076.31 536.53 1088.78 513.7 1103.95 524.52 1084.96 544.39"/>
    <path class="cls-6" d="M862.97,603.65s12.24-21.99,10.43-33.39c-1.17-7.33-15.98-17.2-15.98-17.2l-14.88,6.51,11.35,13-13.76,23.29-5.7,3.05-18.3-14.64-17.11-16.34-18.18,13.73,18.75,12.99,21.74,21.01,41.66-12.03Z"/>
    <path class="cls-6" d="M849.2,651.03c-14.7-1.93-26.7-6.96-47.2-23.21.39-.39,4.26-6.58,4.26-6.58,0,0,28.63,17.02,36.75,18.18s6.19,11.61,6.19,11.61Z"/>
    <path class="cls-6" d="M777.64,642.3c8.6-8.27,13.54-19.8,14.31-22.13l5.83,5.83,5.46-6.77s-11.69-9.66-15.43-8.66c-7.17,1.93-8.7,14.88-15.23,16.16-6.53,1.28,5.06,15.57,5.06,15.57Z"/>
    <path class="cls-6" d="M718.63,596.51c7.38-4.19,13.04,15.3,18.82,13.67s-8.55,9.14-8.55,9.14l-9-10.44c-1.11,5.67-3.26,8.34-4.03,10.46-1.65,4.48-4.3-1.34-4.3-1.34,0,0-.31-17.28,7.07-21.47Z"/>
    <path class="cls-6" d="M711.87,616.7c-.93-2.05-8.08,4.64-8.08,4.64l12.19.93s3.05-1.37.92-3.81c-1.17-1.35-3.94.63-5.03-1.77Z"/>
    <polygon class="cls-6" points="724.71 630.01 730.84 636.34 724.61 638.91 720.54 633.26 724.71 630.01"/>
    <g>
      <rect class="cls-6" x="716.24" y="623.11" width="7.29" height="11.79" rx="3.64" ry="3.64" transform="translate(1674.46 680.43) rotate(141.94)"/>
      <path class="cls-6" d="M723.53,624.65c.08-.07,1.62,2.52,2.06,3.42s.49,1.93-.94,3.88c-.07.06-4.64-5.29-4.64-5.29l3.21,1.3s-1.11-1.91.32-3.3Z"/>
    </g>
  </g>
</svg>