<?xml version="1.0" encoding="UTF-8"?>
<svg id="Layer_2" data-name="Layer 2" xmlns="http://www.w3.org/2000/svg" viewBox="0 0 1193.54 416.17">
  <g id="Ebene_4" data-name="Ebene 4">
    <path d="M215.4,225.12c120.62-68.93,286.78,77.21,428.38-30.06,106.29-80.52,138.5,12.88,214.73,12.88s178.22-31.67,267.34,31.67c51.81,36.83,67.4,130.84,67.4,130.84l-1064,1s26.03-111.98,86.15-146.33Z" style="fill: #3c9823; stroke: #003c5e; stroke-miterlimit: 10; stroke-width: .5px;"/>
    <path d="M227.29,371.37c-.33-13.8,1.33-37.6,15.79-66.64,26.61-53.45,127.71-99.43,237.17-99.43,120.22,0,123.29,25.76,200.57,25.76,77.29,0,95.69-75.07,233.7-73.61,79.73.85,110.83,61.85,150.43,113.89,36.41,47.84,96.95,45.3,96.95,100.03H227.29Z" style="fill: #bfd100; stroke: #003c5e; stroke-miterlimit: 10; stroke-width: .5px;"/>
    <g>
      <rect x="748.72" y="214.3" width="24.39" height="169.39" style="fill: #85c695;"/>
      <path d="M853.02,78.09c0-24.68-20-44.68-44.68-44.68-.6,0-1.2.02-1.79.05-5.15-18.99-22.5-32.96-43.11-32.96-14.1,0-26.67,6.54-34.86,16.75-4.29-1.37-8.87-2.12-13.62-2.12-22.41,0-40.96,16.49-44.18,38-13.59,7.66-22.78,22.22-22.78,38.94,0,14.27,6.7,26.97,17.12,35.15-5.96,7.59-9.52,17.16-9.52,27.56,0,24.68,20,44.68,44.68,44.68,5.9,0,11.53-1.15,16.69-3.22,6.11,17.4,22.67,29.87,42.16,29.87,21.14,0,38.84-14.69,43.48-34.41,4.32,1.39,8.92,2.15,13.7,2.15,24.68,0,44.68-20,44.68-44.68,0-16.42-8.86-30.75-22.05-38.52,8.67-8.15,14.09-19.71,14.09-32.55" style="fill: #85c695; stroke: #fff; stroke-miterlimit: 10;"/>
    </g>
    <path d="M583.13,266.81c0-18.76-9.95-35.15-24.83-44.31,9.26-7.77,15.15-19.42,15.15-32.46,0-16.53-9.49-30.82-23.29-37.8,3.58-4.3,5.74-9.83,5.74-15.87,0-13.71-11.11-24.82-24.82-24.82-13.71,0-24.82,11.11-24.82,24.82,0,6.03,2.16,11.56,5.74,15.87-13.81,6.99-23.29,21.27-23.29,37.8,0,13.03,5.89,24.68,15.15,32.46-14.88,9.16-24.83,25.55-24.83,44.31,0,26.13,21.27,47.77,46.37,51.49v66.53h16.03v-67.68c22.32-5.87,41.72-26.18,41.72-50.34Z" style="fill: #00837b; stroke: #003c5e; stroke-miterlimit: 10;"/>
    <path d="M103.49,198.12c0-13.36-7.09-25.04-17.69-31.57,6.6-5.54,10.8-13.84,10.8-23.13,0-11.78-6.76-21.96-16.6-26.94,2.55-3.07,4.09-7.01,4.09-11.31,0-9.77-7.92-17.69-17.69-17.69-9.77,0-17.69,7.92-17.69,17.69,0,4.3,1.54,8.24,4.09,11.31-9.84,4.98-16.6,15.16-16.6,26.94,0,9.29,4.2,17.59,10.8,23.13-10.6,6.53-17.69,18.21-17.69,31.57,0,18.62,15.16,34.04,33.04,36.69v47.4h11.42v-48.23c15.9-4.18,29.73-18.65,29.73-35.87Z" style="fill: #f1ed7f;"/>
    <path d="M480.84,371.37c.18-7.5-.72-20.43-8.58-36.21-14.46-29.05-69.4-54.04-128.89-54.04-65.33,0-67,14-109,14s-52-40-127-40S8.61,302.44,2.49,337.45C-.08,352.17,0,363.89.58,371.37h480.26Z" style="fill: #fec800; stroke: #003c5e; stroke-miterlimit: 10; stroke-width: .5px;"/>
    <path d="M1038.22,376.35c-36.21-54.38-89-36-126-46-40.55-10.96-46.91-25.49-85.45-25.49-75,0-98.76,41.58-104.88,76.59-2.57,14.73-2.49,26.44-1.91,33.92,0,0,349.7,8.21,318.24-39.02Z" style="fill: #fec800; stroke: #003c5e; stroke-miterlimit: 10; stroke-width: .5px;"/>
    <path d="M907.05,214c0-14.21-7.54-26.63-18.81-33.57,7.01-5.89,11.48-14.71,11.48-24.59,0-17.73-14.38-32.11-32.11-32.11s-32.11,14.38-32.11,32.11c0,9.87,4.47,18.7,11.48,24.59-11.27,6.94-18.81,19.36-18.81,33.57,0,20.42,15.53,37.22,35.42,39.24v111.08h8.04v-111.08c19.89-2.02,35.42-18.81,35.42-39.24Z" style="fill: #f1ed7f;"/>
    <path d="M1165.72,196.81c0-17.6-9.34-32.98-23.3-41.58,8.69-7.29,14.22-18.22,14.22-30.45,0-21.96-17.8-39.77-39.77-39.77s-39.77,17.8-39.77,39.77c0,12.23,5.53,23.16,14.22,30.45-13.96,8.6-23.3,23.98-23.3,41.58,0,25.3,19.23,46.1,43.87,48.6v137.57h9.96v-137.57c24.64-2.5,43.87-23.3,43.87-48.6Z" style="fill: #82c9bb;"/>
    <path d="M976.2,288.3l-18.59-26.94c-1.12-1.62.04-3.83,2.01-3.83h3.97c1.97,0,3.13-2.21,2.01-3.83l-12.5-18.12c-1.12-1.62.04-3.83,2.01-3.83s3.13-2.21,2.01-3.83l-29.26-42.4c-.97-1.41-3.05-1.41-4.02,0l-29.26,42.4c-1.12,1.62.04,3.83,2.01,3.83s3.13,2.21,2.01,3.83l-12.5,18.12c-1.12,1.62.04,3.83,2.01,3.83h3.97c1.97,0,3.13,2.21,2.01,3.83l-18.59,26.94c-1.12,1.62.04,3.83,2.01,3.83h42.15v89.89h12.36v-89.89h42.15c1.97,0,3.13-2.21,2.01-3.83Z" style="fill: #85c695; stroke: #fff; stroke-miterlimit: 10;"/>
  </g>
</svg>