<?xml version="1.0" encoding="UTF-8"?>
<svg id="Layer_2" data-name="Layer 2" xmlns="http://www.w3.org/2000/svg" xmlns:xlink="http://www.w3.org/1999/xlink" viewBox="0 0 418.61 220.98">
  <defs>
    <style>
      .cls-1, .cls-2, .cls-3, .cls-4, .cls-5, .cls-6, .cls-7, .cls-8 {
        fill: none;
      }

      .cls-9 {
        fill: #ffcb05;
      }

      .cls-10 {
        fill: #004263;
      }

      .cls-2 {
        stroke-dasharray: 0 1.5;
      }

      .cls-2, .cls-4, .cls-5 {
        stroke-linecap: round;
        stroke-linejoin: round;
      }

      .cls-2, .cls-4, .cls-5, .cls-6 {
        stroke: #004263;
        stroke-width: .75px;
      }

      .cls-11 {
        fill: #231f20;
      }

      .cls-12 {
        fill: #d0dbf0;
      }

      .cls-3 {
        stroke: #fff;
      }

      .cls-3, .cls-8 {
        stroke-miterlimit: 10;
      }

      .cls-4 {
        stroke-dasharray: 0 1.5;
      }

      .cls-7, .cls-8 {
        stroke: #231f20;
        stroke-width: .5px;
      }

      .cls-13 {
        fill: #44a13f;
      }

      .cls-14 {
        fill: #739dd2;
      }

      .cls-15 {
        fill: #7cccbf;
      }

      .cls-16 {
        clip-path: url(#clippath-11);
      }

      .cls-17 {
        clip-path: url(#clippath-10);
      }

      .cls-18 {
        clip-path: url(#clippath-13);
      }

      .cls-19 {
        clip-path: url(#clippath-14);
      }

      .cls-20 {
        clip-path: url(#clippath-12);
      }

      .cls-21 {
        fill: #0f8a81;
      }

      .cls-22 {
        clip-path: url(#clippath-1);
      }

      .cls-23 {
        clip-path: url(#clippath-3);
      }

      .cls-24 {
        clip-path: url(#clippath-4);
      }

      .cls-25 {
        clip-path: url(#clippath-2);
      }

      .cls-26 {
        clip-path: url(#clippath-7);
      }

      .cls-27 {
        clip-path: url(#clippath-6);
      }

      .cls-28 {
        clip-path: url(#clippath-9);
      }

      .cls-29 {
        clip-path: url(#clippath-8);
      }

      .cls-30 {
        clip-path: url(#clippath-5);
      }

      .cls-31 {
        fill: #fff;
      }

      .cls-32 {
        clip-path: url(#clippath);
      }
    </style>
    <clipPath id="clippath">
      <rect class="cls-1" width="418.61" height="220.98"/>
    </clipPath>
    <clipPath id="clippath-1">
      <rect class="cls-1" width="418.61" height="220.98"/>
    </clipPath>
    <clipPath id="clippath-2">
      <rect class="cls-1" width="418.61" height="220.98"/>
    </clipPath>
    <clipPath id="clippath-3">
      <rect class="cls-1" width="418.61" height="220.98"/>
    </clipPath>
    <clipPath id="clippath-4">
      <rect class="cls-1" width="418.61" height="220.98"/>
    </clipPath>
    <clipPath id="clippath-5">
      <rect class="cls-1" width="418.61" height="220.98"/>
    </clipPath>
    <clipPath id="clippath-6">
      <rect class="cls-1" width="418.61" height="220.98"/>
    </clipPath>
    <clipPath id="clippath-7">
      <polygon class="cls-1" points="50.41 165.89 47.9 182.17 63.9 182.17 61.38 165.89 50.41 165.89"/>
    </clipPath>
    <clipPath id="clippath-8">
      <rect class="cls-1" width="418.61" height="220.98"/>
    </clipPath>
    <clipPath id="clippath-9">
      <rect class="cls-1" width="418.61" height="220.98"/>
    </clipPath>
    <clipPath id="clippath-10">
      <polygon class="cls-1" points="390.42 128.71 387.9 144.99 403.9 144.99 401.39 128.71 390.42 128.71"/>
    </clipPath>
    <clipPath id="clippath-11">
      <rect class="cls-1" width="418.61" height="220.98"/>
    </clipPath>
    <clipPath id="clippath-12">
      <rect class="cls-1" width="418.61" height="220.98"/>
    </clipPath>
    <clipPath id="clippath-13">
      <rect class="cls-1" width="418.61" height="220.98"/>
    </clipPath>
    <clipPath id="clippath-14">
      <rect class="cls-1" width="418.61" height="220.98"/>
    </clipPath>
  </defs>
  <g id="Layer_1-2" data-name="Layer 1">
    <g class="cls-32">
      <path class="cls-31" d="M408.03,26.56h-3.25c-1.09-.24-2.38-.38-3.78-.38s-2.68.14-3.77.38h-3.25v2.04h0c.02,1.32,3.15,2.4,7.02,2.4s7.01-1.07,7.02-2.4h0v-2.04Z"/>
      <path class="cls-8" d="M408.03,26.56h-3.25c-1.09-.24-2.38-.38-3.78-.38s-2.68.14-3.77.38h-3.25v2.04h0c.02,1.32,3.15,2.4,7.02,2.4s7.01-1.07,7.02-2.4h0v-2.04Z"/>
      <path class="cls-31" d="M408.03,24.4h-3.25c-1.09-.24-2.38-.38-3.78-.38s-2.68.14-3.77.38h-3.25v2.04h0c.02,1.32,3.15,2.4,7.02,2.4s7.01-1.07,7.02-2.4h0v-2.04Z"/>
      <path class="cls-8" d="M408.03,24.4h-3.25c-1.09-.24-2.38-.38-3.78-.38s-2.68.14-3.77.38h-3.25v2.04h0c.02,1.32,3.15,2.4,7.02,2.4s7.01-1.07,7.02-2.4h0v-2.04Z"/>
      <path class="cls-31" d="M408.03,22.24h-3.25c-1.09-.24-2.38-.38-3.78-.38s-2.68.14-3.77.38h-3.25v2.04h0c.02,1.32,3.15,2.4,7.02,2.4s7.01-1.07,7.02-2.4h0v-2.04Z"/>
      <path class="cls-8" d="M408.03,22.24h-3.25c-1.09-.24-2.38-.38-3.78-.38s-2.68.14-3.77.38h-3.25v2.04h0c.02,1.32,3.15,2.4,7.02,2.4s7.01-1.07,7.02-2.4h0v-2.04Z"/>
      <path class="cls-31" d="M408.03,20.08h-3.25c-1.09-.24-2.38-.38-3.78-.38s-2.68.14-3.77.38h-3.25v2.04h0c.02,1.32,3.15,2.4,7.02,2.4s7.01-1.07,7.02-2.4h0v-2.04Z"/>
      <path class="cls-8" d="M408.03,20.08h-3.25c-1.09-.24-2.38-.38-3.78-.38s-2.68.14-3.77.38h-3.25v2.04h0c.02,1.32,3.15,2.4,7.02,2.4s7.01-1.07,7.02-2.4h0v-2.04Z"/>
      <path class="cls-31" d="M408.03,19.94c0,1.33-3.14,2.41-7.02,2.41s-7.02-1.08-7.02-2.41,3.14-2.41,7.02-2.41,7.02,1.08,7.02,2.41"/>
      <path class="cls-8" d="M408.03,19.94c0,1.33-3.14,2.41-7.02,2.41s-7.02-1.08-7.02-2.41,3.14-2.41,7.02-2.41,7.02,1.08,7.02,2.41Z"/>
      <path class="cls-31" d="M408.03,17.92h-3.25c-1.09-.24-2.38-.38-3.78-.38s-2.68.14-3.77.38h-3.25v2.04h0c.02,1.32,3.15,2.4,7.02,2.4s7.01-1.07,7.02-2.4h0v-2.04Z"/>
      <path class="cls-8" d="M408.03,17.92h-3.25c-1.09-.24-2.38-.38-3.78-.38s-2.68.14-3.77.38h-3.25v2.04h0c.02,1.32,3.15,2.4,7.02,2.4s7.01-1.07,7.02-2.4h0v-2.04Z"/>
      <path class="cls-31" d="M408.03,15.76h-3.25c-1.09-.24-2.38-.38-3.78-.38s-2.68.14-3.77.38h-3.25v2.04h0c.02,1.32,3.15,2.4,7.02,2.4s7.01-1.07,7.02-2.4h0v-2.04Z"/>
      <path class="cls-8" d="M408.03,15.76h-3.25c-1.09-.24-2.38-.38-3.78-.38s-2.68.14-3.77.38h-3.25v2.04h0c.02,1.32,3.15,2.4,7.02,2.4s7.01-1.07,7.02-2.4h0v-2.04Z"/>
      <path class="cls-31" d="M408.03,13.59h-3.25c-1.09-.24-2.38-.38-3.78-.38s-2.68.14-3.77.38h-3.25v2.04h0c.02,1.32,3.15,2.4,7.02,2.4s7.01-1.07,7.02-2.4h0v-2.04Z"/>
      <path class="cls-8" d="M408.03,13.59h-3.25c-1.09-.24-2.38-.38-3.78-.38s-2.68.14-3.77.38h-3.25v2.04h0c.02,1.32,3.15,2.4,7.02,2.4s7.01-1.07,7.02-2.4h0v-2.04Z"/>
      <path class="cls-31" d="M408.03,11.43h-3.25c-1.09-.24-2.38-.38-3.78-.38s-2.68.14-3.77.38h-3.25v2.04h0c.02,1.32,3.15,2.4,7.02,2.4s7.01-1.07,7.02-2.4h0v-2.04Z"/>
      <path class="cls-8" d="M408.03,11.43h-3.25c-1.09-.24-2.38-.38-3.78-.38s-2.68.14-3.77.38h-3.25v2.04h0c.02,1.32,3.15,2.4,7.02,2.4s7.01-1.07,7.02-2.4h0v-2.04Z"/>
      <path class="cls-31" d="M408.03,11.3c0,1.33-3.14,2.41-7.02,2.41s-7.02-1.08-7.02-2.41,3.14-2.41,7.02-2.41,7.02,1.08,7.02,2.41"/>
      <path class="cls-8" d="M408.03,11.3c0,1.33-3.14,2.41-7.02,2.41s-7.02-1.08-7.02-2.41,3.14-2.41,7.02-2.41,7.02,1.08,7.02,2.41Z"/>
      <path class="cls-31" d="M408.03,9.27h-3.25c-1.09-.24-2.38-.38-3.78-.38s-2.68.14-3.77.38h-3.25v2.04h0c.02,1.32,3.15,2.4,7.02,2.4s7.01-1.07,7.02-2.4h0v-2.04Z"/>
      <path class="cls-8" d="M408.03,9.27h-3.25c-1.09-.24-2.38-.38-3.78-.38s-2.68.14-3.77.38h-3.25v2.04h0c.02,1.32,3.15,2.4,7.02,2.4s7.01-1.07,7.02-2.4h0v-2.04Z"/>
      <path class="cls-31" d="M408.03,7.11h-3.25c-1.09-.24-2.38-.38-3.78-.38s-2.68.14-3.77.38h-3.25v2.04h0c.02,1.32,3.15,2.4,7.02,2.4s7.01-1.07,7.02-2.4h0v-2.04Z"/>
      <path class="cls-8" d="M408.03,7.11h-3.25c-1.09-.24-2.38-.38-3.78-.38s-2.68.14-3.77.38h-3.25v2.04h0c.02,1.32,3.15,2.4,7.02,2.4s7.01-1.07,7.02-2.4h0v-2.04Z"/>
      <path class="cls-31" d="M408.03,4.95h-3.25c-1.09-.24-2.38-.38-3.78-.38s-2.68.14-3.77.38h-3.25v2.04h0c.02,1.32,3.15,2.4,7.02,2.4s7.01-1.07,7.02-2.4h0v-2.04Z"/>
      <path class="cls-8" d="M408.03,4.95h-3.25c-1.09-.24-2.38-.38-3.78-.38s-2.68.14-3.77.38h-3.25v2.04h0c.02,1.32,3.15,2.4,7.02,2.4s7.01-1.07,7.02-2.4h0v-2.04Z"/>
      <path class="cls-31" d="M408.03,2.79h-3.25c-1.09-.24-2.38-.38-3.78-.38s-2.68.14-3.77.38h-3.25v2.04h0c.02,1.32,3.15,2.4,7.02,2.4s7.01-1.07,7.02-2.4h0v-2.04Z"/>
      <path class="cls-8" d="M408.03,2.79h-3.25c-1.09-.24-2.38-.38-3.78-.38s-2.68.14-3.77.38h-3.25v2.04h0c.02,1.32,3.15,2.4,7.02,2.4s7.01-1.07,7.02-2.4h0v-2.04Z"/>
      <path class="cls-31" d="M408.03,2.66c0,1.33-3.14,2.41-7.02,2.41s-7.02-1.08-7.02-2.41,3.14-2.41,7.02-2.41,7.02,1.08,7.02,2.41"/>
      <path class="cls-8" d="M408.03,2.66c0,1.33-3.14,2.41-7.02,2.41s-7.02-1.08-7.02-2.41,3.14-2.41,7.02-2.41,7.02,1.08,7.02,2.41Z"/>
      <path class="cls-15" d="M413.2,17.52c-.02-.72-.59-1.3-1.3-1.3s-1.21.59-1.31,1.3c-.14,1.02-.76,2.69-1.31,3.93-.66,1.49-3.92,3.92-6.54,3.92s-2.61-1.31-2.61-1.31c0,0,3.67-4.14,4.98-5.45.46-.46,1.16-1.59.25-2.39-.86-.77-1.7-.16-2.29.12-1.67.81-5.55,2.49-5.55,2.49,0,0-1.55-.22-5.56.78-2.22.55-3.97,2.02-4.9,3.14-.27.33-.7.74-1.22,1.18-2.01,1.75-5.32,4.05-5.32,4.05l6.54,7.84,3.92-5.23s.31.2.83.5c.01.01.03.02.05.03.74.41,1.9.98,3.25,1.43,1.32.39,2.71.6,4.15.6,5.15,0,9.66-2.68,12.17-6.69.17-.35.33-.71.48-1.1,1.54-3.84,1.36-5.86,1.3-7.85"/>
      <path class="cls-11" d="M399.6,3.32c.46-.03.74-.13.86-.45l-1.9-.02c.06.35.52.51,1.04.47M402.08,2.31h1.88c-.08-.32-.54-.49-1.04-.46-.51.03-.73.17-.84.46M397.39,2.27c.3-.6,1.23-.94,2.47-1.05l.05.66c-.5.05-.93.18-1.16.4h1.91s.03-.05.03-.05c.24-.63.99-.95,2.11-1.03,1.16-.08,2.35.28,2.42,1.12v.02s1.22,0,1.22,0l.05.57h-1.42c-.33.5-1.18.83-2.27.9l-.05-.66c.43-.04.74-.14.94-.27h-1.81c-.23.61-.87.99-2.12,1.08-1.32.09-2.4-.28-2.48-1.13h-1.22s-.05-.58-.05-.58h1.38Z"/>
    </g>
    <polygon class="cls-14" points="397.32 102.14 376.6 102.14 376.6 66.18 397.32 55.56 397.32 102.14"/>
    <polygon class="cls-15" points="414.86 105.36 394.14 105.36 394.14 65.59 414.86 71.25 414.86 105.36"/>
    <polygon class="cls-10" points="391.42 58.58 391.42 98.9 397.32 98.9 397.32 55.56 391.42 58.58"/>
    <rect class="cls-9" x="379.78" y="72.28" width="1.61" height="2.5"/>
    <rect class="cls-9" x="383.2" y="72.28" width="1.61" height="2.5"/>
    <rect class="cls-9" x="386.62" y="72.28" width="1.61" height="2.5"/>
    <rect class="cls-9" x="379.78" y="77.15" width="1.61" height="2.5"/>
    <rect class="cls-9" x="383.2" y="77.15" width="1.61" height="2.5"/>
    <rect class="cls-9" x="386.62" y="77.15" width="1.61" height="2.5"/>
    <rect class="cls-9" x="379.78" y="82.03" width="1.61" height="2.5"/>
    <rect class="cls-9" x="383.2" y="82.03" width="1.61" height="2.5"/>
    <rect class="cls-9" x="386.62" y="82.03" width="1.61" height="2.5"/>
    <polygon class="cls-11" points="401.48 102.14 388.48 102.14 390.9 86.54 399.51 86.54 401.48 102.14"/>
    <g class="cls-22">
      <path class="cls-9" d="M395.2,85.63h0c-1.68,0-3.05-1.37-3.05-3.05v-1.13c0-1.68,1.37-3.05,3.05-3.05s3.05,1.37,3.05,3.05v1.13c0,1.68-1.37,3.05-3.05,3.05"/>
    </g>
    <polygon class="cls-31" points="397.12 96.24 396.5 86.54 393.9 86.54 393.28 96.24 395.2 99.57 397.12 96.24 397.12 96.24"/>
    <polygon class="cls-11" points="414.86 102.14 401.86 102.14 404.27 86.54 412.88 86.54 414.86 102.14"/>
    <g class="cls-25">
      <path class="cls-9" d="M408.58,85.63h0c-1.68,0-3.05-1.37-3.05-3.05v-1.13c0-1.68,1.37-3.05,3.05-3.05s3.05,1.37,3.05,3.05v1.13c0,1.68-1.37,3.05-3.05,3.05"/>
    </g>
    <polygon class="cls-31" points="410.5 96.24 409.88 86.54 407.27 86.54 406.66 96.24 408.58 99.57 410.5 96.24 410.5 96.24"/>
    <rect class="cls-12" x="375.88" y="182.4" width="40.74" height="25.46"/>
    <rect class="cls-21" x="375.88" y="201.89" width="40.74" height="5.96"/>
    <rect class="cls-15" x="373.62" y="181" width="44.99" height="4.75"/>
    <rect class="cls-21" x="381.03" y="188.3" width="5.96" height="19.56"/>
    <rect class="cls-21" x="405.51" y="188.3" width="5.96" height="19.56"/>
    <rect class="cls-21" x="393.27" y="188.3" width="5.96" height="19.56"/>
    <g class="cls-23">
      <path class="cls-21" d="M409.57,187.66h-26.64c0-7.36,5.95-13.32,13.32-13.32s13.32,5.95,13.32,13.32"/>
    </g>
    <polygon class="cls-15" points="374.08 188.31 418.42 188.31 396.25 180.04 374.08 188.31"/>
    <polygon class="cls-21" points="402.74 167.75 405.09 164.9 405.09 164.9 396.25 164.9 396.25 170.6 405.09 170.6 402.74 167.75"/>
    <rect class="cls-21" x="395.87" y="164.9" width=".77" height="10.4"/>
    <g class="cls-24">
      <path class="cls-14" d="M205.06,102.77c0-2.76-1.8-5.08-4.29-5.9-.21-3.26-2.9-5.84-6.21-5.84-.04,0-.07,0-.11,0-.24-4.6-4.03-8.26-8.68-8.26s-8.71,3.9-8.71,8.71c0,.44.04.87.11,1.29-4.48,0-8.11,3.64-8.11,8.12,0,4.19,3.18,7.6,7.25,8.04v.09h21.5v-.1c.33.05.66.1,1,.1,3.45,0,6.25-2.8,6.25-6.25"/>
      <path class="cls-14" d="M188.75,112c0-2.76-1.8-5.07-4.28-5.89-.21-3.25-2.89-5.83-6.2-5.83-.04,0-.07,0-.11,0-.24-4.59-4.02-8.24-8.67-8.24s-8.69,3.89-8.69,8.69c0,.44.04.87.11,1.29-4.47.01-8.09,3.63-8.09,8.1,0,4.18,3.17,7.58,7.24,8.02v.09h21.46v-.1c.33.05.66.1,1,.1,3.45,0,6.24-2.79,6.24-6.24"/>
      <path class="cls-7" d="M188.75,112c0-2.76-1.8-5.07-4.28-5.89-.21-3.25-2.89-5.83-6.2-5.83-.04,0-.07,0-.11,0-.24-4.59-4.02-8.24-8.67-8.24s-8.69,3.89-8.69,8.69c0,.44.04.87.11,1.29-4.47.01-8.09,3.63-8.09,8.1,0,4.18,3.17,7.58,7.24,8.02v.09h21.46v-.1c.33.05.66.1,1,.1,3.45,0,6.24-2.79,6.24-6.24Z"/>
    </g>
    <polygon class="cls-11" points="190.04 115.27 190.04 102.27 181.91 102.27 181.91 115.27 177.23 115.27 185.97 123.99 194.71 115.27 190.04 115.27"/>
    <line class="cls-4" x1="55.21" y1="29.76" x2="99.38" y2="29.76"/>
    <line class="cls-2" x1="100.13" y1="31.26" x2="100.13" y2="99.33"/>
    <path class="cls-5" d="M100.13,100.08h0M100.13,29.76h0M53.71,29.76h0"/>
    <polyline class="cls-6" points="103.6 96.34 100.13 100.08 96.65 96.34"/>
    <line class="cls-4" x1="192" y1="29.76" x2="236.17" y2="29.76"/>
    <line class="cls-2" x1="236.92" y1="31.26" x2="236.92" y2="99.33"/>
    <path class="cls-5" d="M236.92,100.08h0M236.92,29.76h0M190.5,29.76h0"/>
    <polyline class="cls-6" points="240.39 96.34 236.92 100.08 233.45 96.34"/>
    <line class="cls-4" x1="153.76" y1="29.76" x2="109.58" y2="29.76"/>
    <line class="cls-2" x1="108.84" y1="31.26" x2="108.84" y2="99.33"/>
    <path class="cls-5" d="M108.84,100.08h0M108.84,29.76h0M155.25,29.76h0"/>
    <polyline class="cls-6" points="105.36 96.34 108.84 100.08 112.31 96.34"/>
    <line class="cls-6" x1="45.32" y1="116.22" x2="145.64" y2="116.22"/>
    <polyline class="cls-6" points="141.9 112.75 145.64 116.22 141.9 119.69"/>
    <line class="cls-6" x1="197.21" y1="116.22" x2="307.46" y2="116.22"/>
    <polyline class="cls-6" points="303.72 112.75 307.46 116.22 303.72 119.69"/>
    <line class="cls-6" x1="324.35" y1="116.22" x2="337.81" y2="116.22"/>
    <line class="cls-6" x1="337.39" y1="150.74" x2="364.83" y2="150.74"/>
    <polyline class="cls-6" points="361.09 147.27 364.83 150.74 361.09 154.21"/>
    <line class="cls-6" x1="337.39" y1="210.68" x2="364.83" y2="210.68"/>
    <polyline class="cls-6" points="361.09 207.2 364.83 210.68 361.09 214.15"/>
    <line class="cls-6" x1="337.39" y1="84.54" x2="364.83" y2="84.54"/>
    <polyline class="cls-6" points="361.09 81.06 364.83 84.54 361.09 88.01"/>
    <polyline class="cls-6" points="115.72 187.79 173.35 187.79 173.35 143.7"/>
    <polyline class="cls-6" points="169.88 147.44 173.35 143.7 176.83 147.44"/>
    <polyline class="cls-6" points="114.42 194.38 191 194.38 191 143.15"/>
    <polyline class="cls-6" points="118.16 197.86 114.42 194.38 118.16 190.91"/>
    <g class="cls-30">
      <polyline class="cls-6" points="3.75 146.53 3.75 220.6 337.53 220.6 337.53 28.35 366.03 28.35"/>
      <polyline class="cls-6" points=".27 150.27 3.75 146.53 7.22 150.27"/>
    </g>
    <polyline class="cls-6" points="362.3 24.87 366.03 28.35 362.3 31.82"/>
    <g class="cls-27">
      <path class="cls-9" d="M55.9,164.73h0c-2.13,0-3.88-1.75-3.88-3.88v-1.44c0-2.14,1.75-3.88,3.88-3.88s3.88,1.75,3.88,3.88v1.44c0,2.14-1.75,3.88-3.88,3.88"/>
    </g>
    <polygon class="cls-9" points="51.03 194.73 45.32 198.02 54.84 198.02 55.14 194.93 51.03 194.73"/>
    <polygon class="cls-9" points="60.77 194.73 66.47 198.02 56.96 198.02 56.66 194.93 60.77 194.73"/>
    <polygon class="cls-15" points="50.23 183.11 49.8 193.89 55.17 194.11 55.61 183.11 50.23 183.11"/>
    <polygon class="cls-15" points="61.56 183.11 62 193.89 56.63 194.11 56.19 183.11 61.56 183.11"/>
    <polygon class="cls-21" points="63.9 182.17 47.9 182.17 50.41 165.89 61.38 165.89 63.9 182.17"/>
    <g class="cls-26">
      <path class="cls-15" d="M48.81,166.12c0,.78.63,1.42,1.42,1.42s1.42-.63,1.42-1.42-.63-1.42-1.42-1.42-1.42.63-1.42,1.42"/>
      <path class="cls-15" d="M57.32,168.95c0,.78-.63,1.42-1.42,1.42s-1.42-.63-1.42-1.42.63-1.42,1.42-1.42,1.42.63,1.42,1.42"/>
      <path class="cls-15" d="M60.15,166.12c0,.78.63,1.42,1.42,1.42s1.42-.63,1.42-1.42-.63-1.42-1.42-1.42-1.42.63-1.42,1.42"/>
      <path class="cls-15" d="M51.65,171.79c0,.78-.63,1.42-1.42,1.42s-1.42-.63-1.42-1.42.63-1.42,1.42-1.42,1.42.63,1.42,1.42"/>
      <path class="cls-15" d="M54.48,174.62c0,.78.63,1.42,1.42,1.42s1.42-.63,1.42-1.42-.63-1.42-1.42-1.42-1.42.63-1.42,1.42"/>
      <path class="cls-15" d="M62.98,171.79c0,.78-.63,1.42-1.42,1.42s-1.42-.63-1.42-1.42.63-1.42,1.42-1.42,1.42.63,1.42,1.42"/>
      <path class="cls-15" d="M48.81,177.46c0,.78.63,1.42,1.42,1.42s1.42-.63,1.42-1.42-.63-1.42-1.42-1.42-1.42.63-1.42,1.42"/>
      <path class="cls-15" d="M57.32,180.29c0,.78-.63,1.42-1.42,1.42s-1.42-.63-1.42-1.42.63-1.42,1.42-1.42,1.42.63,1.42,1.42"/>
      <path class="cls-15" d="M60.15,177.46c0,.78.63,1.42,1.42,1.42s1.42-.63,1.42-1.42-.63-1.42-1.42-1.42-1.42.63-1.42,1.42"/>
    </g>
    <polygon class="cls-13" points="73.89 194.16 68.53 193.93 69.19 177.48 74.55 177.7 73.89 194.16"/>
    <polygon class="cls-13" points="75.25 194.16 80.61 193.93 79.95 177.48 74.59 177.7 75.25 194.16"/>
    <g class="cls-29">
      <path class="cls-9" d="M74.59,164.77h0c-2.14,0-3.88-1.75-3.88-3.88v-1.44c0-2.13,1.75-3.88,3.88-3.88s3.88,1.75,3.88,3.88v1.44c0,2.14-1.75,3.88-3.88,3.88"/>
    </g>
    <polygon class="cls-9" points="69.61 194.78 63.91 198.06 73.42 198.06 73.72 194.97 69.61 194.78"/>
    <polygon class="cls-9" points="79.36 194.78 85.06 198.06 75.55 198.06 75.25 194.97 79.36 194.78"/>
    <line class="cls-3" x1="66.58" y1="182.65" x2="82.59" y2="182.65"/>
    <polygon class="cls-21" points="82.78 190.46 66.77 190.46 69.29 165.93 80.26 165.93 82.78 190.46"/>
    <g class="cls-28">
      <path class="cls-21" d="M70.7,159.52c8-1.78,3.11-2.46,3.11-2.46,0,.31.89,3.35,4.66,2.46v.9c.45-.71.72-1.55.72-2.46,0-2.54-2.06-4.61-4.6-4.61s-4.61,2.06-4.61,4.61c0,.91.27,1.75.72,2.46v-.9Z"/>
      <path class="cls-9" d="M395.9,127.55h0c-2.14,0-3.88-1.75-3.88-3.88v-1.44c0-2.14,1.75-3.88,3.88-3.88s3.88,1.75,3.88,3.88v1.44c0,2.14-1.75,3.88-3.88,3.88"/>
    </g>
    <polygon class="cls-21" points="403.9 144.99 387.9 144.99 390.42 128.71 401.39 128.71 403.9 144.99"/>
    <g class="cls-17">
      <path class="cls-15" d="M388.82,128.94c0,.78.64,1.42,1.42,1.42s1.42-.63,1.42-1.42-.63-1.42-1.42-1.42-1.42.63-1.42,1.42"/>
      <path class="cls-15" d="M397.32,131.77c0,.78-.64,1.42-1.42,1.42s-1.42-.63-1.42-1.42.63-1.42,1.42-1.42,1.42.63,1.42,1.42"/>
      <path class="cls-15" d="M400.16,128.94c0,.78.64,1.42,1.42,1.42s1.42-.63,1.42-1.42-.63-1.42-1.42-1.42-1.42.63-1.42,1.42"/>
      <path class="cls-15" d="M391.65,134.61c0,.78-.64,1.42-1.42,1.42s-1.42-.63-1.42-1.42.63-1.42,1.42-1.42,1.42.63,1.42,1.42"/>
      <path class="cls-15" d="M394.49,137.44c0,.78.64,1.42,1.42,1.42s1.42-.63,1.42-1.42-.63-1.42-1.42-1.42-1.42.63-1.42,1.42"/>
      <path class="cls-15" d="M402.99,134.61c0,.78-.64,1.42-1.42,1.42s-1.42-.63-1.42-1.42.63-1.42,1.42-1.42,1.42.63,1.42,1.42"/>
      <path class="cls-15" d="M388.82,140.28c0,.78.64,1.42,1.42,1.42s1.42-.63,1.42-1.42-.63-1.42-1.42-1.42-1.42.63-1.42,1.42"/>
      <path class="cls-15" d="M397.32,143.11c0,.78-.64,1.42-1.42,1.42s-1.42-.63-1.42-1.42.63-1.42,1.42-1.42,1.42.63,1.42,1.42"/>
      <path class="cls-15" d="M400.16,140.28c0,.78.64,1.42,1.42,1.42s1.42-.63,1.42-1.42-.63-1.42-1.42-1.42-1.42.63-1.42,1.42"/>
    </g>
    <rect class="cls-31" x="157.91" y="4.22" width="30.11" height="38.92"/>
    <rect class="cls-8" x="157.91" y="4.22" width="30.11" height="38.92"/>
    <polygon class="cls-14" points="174.99 35.56 170.47 34.34 167.64 44.86 167.64 44.86 167.19 46.5 169.82 45.8 171.72 47.7 172.15 46.08 172.15 46.08 174.99 35.56"/>
    <polygon class="cls-14" points="171.01 35.56 175.53 34.34 178.36 44.86 178.36 44.86 178.8 46.5 176.18 45.8 174.28 47.7 173.84 46.08 173.84 46.08 171.01 35.56"/>
    <g class="cls-16">
      <path class="cls-9" d="M173.62,28.04l.33-.36.21.44c.21.44.75.62,1.18.38l.43-.24.06.48c.06.49.52.82,1,.73l.48-.09-.09.48c-.09.48.24.94.73,1l.48.06-.24.43c-.24.43-.06.97.38,1.18l.44.21-.36.33c-.36.33-.36.9,0,1.24l.36.33-.44.21c-.45.21-.62.75-.38,1.18l.24.43-.48.06c-.49.06-.82.52-.73,1l.09.48-.48-.09c-.48-.09-.94.24-1,.73l-.06.48-.43-.24c-.43-.24-.97-.06-1.18.38l-.21.44-.33-.36c-.33-.36-.9-.36-1.24,0l-.33.36-.21-.44c-.21-.45-.75-.62-1.18-.38l-.43.24-.06-.48c-.06-.49-.52-.82-1-.73l-.48.09.09-.48c.09-.48-.24-.94-.73-1l-.48-.06.24-.43c.24-.43.06-.97-.38-1.18l-.44-.21.36-.33c.36-.33.36-.9,0-1.24l-.36-.33.44-.21c.44-.21.62-.75.38-1.18l-.24-.43.48-.06c.49-.06.82-.52.73-1l-.09-.48.48.09c.48.09.94-.24,1-.73l.06-.48.43.24c.43.24.97.06,1.18-.38l.21-.44.33.36c.33.36.9.36,1.24,0"/>
      <path class="cls-8" d="M173.62,28.04l.33-.36.21.44c.21.44.75.62,1.18.38l.43-.24.06.48c.06.49.52.82,1,.73l.48-.09-.09.48c-.09.48.24.94.73,1l.48.06-.24.43c-.24.43-.06.97.38,1.18l.44.21-.36.33c-.36.33-.36.9,0,1.24l.36.33-.44.21c-.45.21-.62.75-.38,1.18l.24.43-.48.06c-.49.06-.82.52-.73,1l.09.48-.48-.09c-.48-.09-.94.24-1,.73l-.06.48-.43-.24c-.43-.24-.97-.06-1.18.38l-.21.44-.33-.36c-.33-.36-.9-.36-1.24,0l-.33.36-.21-.44c-.21-.45-.75-.62-1.18-.38l-.43.24-.06-.48c-.06-.49-.52-.82-1-.73l-.48.09.09-.48c.09-.48-.24-.94-.73-1l-.48-.06.24-.43c.24-.43.06-.97-.38-1.18l-.44-.21.36-.33c.36-.33.36-.9,0-1.24l-.36-.33.44-.21c.44-.21.62-.75.38-1.18l-.24-.43.48-.06c.49-.06.82-.52.73-1l-.09-.48.48.09c.48.09.94-.24,1-.73l.06-.48.43.24c.43.24.97.06,1.18-.38l.21-.44.33.36c.33.36.9.36,1.24,0Z"/>
    </g>
    <path class="cls-8" d="M161.61,23.37h23.08M161.61,21.21h23.08M161.61,19.05h23.08M161.61,16.89h23.08M161.61,14.72h23.08"/>
    <rect class="cls-12" x="3.59" y="22.6" width="40.74" height="25.46"/>
    <rect class="cls-21" x="3.59" y="42.09" width="40.74" height="5.96"/>
    <rect class="cls-15" x="1.33" y="21.2" width="44.99" height="4.75"/>
    <rect class="cls-21" x="8.74" y="28.5" width="5.96" height="19.56"/>
    <rect class="cls-21" x="33.21" y="28.5" width="5.96" height="19.56"/>
    <rect class="cls-21" x="20.98" y="28.5" width="5.96" height="19.56"/>
    <g class="cls-20">
      <path class="cls-21" d="M37.28,27.86H10.64c0-7.36,5.95-13.32,13.32-13.32s13.32,5.95,13.32,13.32"/>
    </g>
    <polygon class="cls-15" points="23.96 20.24 1.79 28.51 46.12 28.51 23.96 20.24"/>
    <polygon class="cls-21" points="30.45 7.95 32.79 5.1 32.79 5.1 23.96 5.1 23.96 10.8 32.79 10.8 30.45 7.95"/>
    <rect class="cls-21" x="23.58" y="5.1" width=".77" height="10.4"/>
    <polygon class="cls-11" points="14.33 124.36 1.33 124.36 3.75 108.76 12.35 108.76 14.33 124.36"/>
    <g class="cls-18">
      <path class="cls-9" d="M8.05,107.85h0c-1.68,0-3.05-1.37-3.05-3.05v-1.13c0-1.68,1.37-3.05,3.05-3.05s3.05,1.37,3.05,3.05v1.13c0,1.68-1.37,3.05-3.05,3.05"/>
    </g>
    <polygon class="cls-31" points="9.97 118.47 9.35 108.76 6.74 108.76 6.13 118.47 8.05 121.8 9.97 118.47 9.97 118.47"/>
    <polygon class="cls-11" points="27.71 124.36 14.71 124.36 17.12 108.76 25.73 108.76 27.71 124.36"/>
    <g class="cls-19">
      <path class="cls-9" d="M21.43,107.85h0c-1.68,0-3.05-1.37-3.05-3.05v-1.13c0-1.68,1.37-3.05,3.05-3.05s3.05,1.37,3.05,3.05v1.13c0,1.68-1.37,3.05-3.05,3.05"/>
    </g>
    <polygon class="cls-31" points="23.35 118.47 22.73 108.76 20.12 108.76 19.51 118.47 21.43 121.8 23.35 118.47 23.35 118.47"/>
  </g>
</svg>